<?xml version="1.0" encoding="utf-8"?>
<!-- Generator: Adobe Illustrator 23.1.1, SVG Export Plug-In . SVG Version: 6.00 Build 0)  -->
<svg version="1.1" id="Layer_6" xmlns="http://www.w3.org/2000/svg" xmlns:xlink="http://www.w3.org/1999/xlink" x="0px" y="0px"
	 viewBox="0 0 527.4 186.2" style="enable-background:new 0 0 527.4 186.2;" xml:space="preserve">
<style type="text/css">
	.st0{fill:url(#SVGID_1_);}
	.st1{fill:#FFFFFF;}
</style>
<title>Floob-white-logo</title>
<linearGradient id="SVGID_1_" gradientUnits="userSpaceOnUse" x1="34.2905" y1="-167.0188" x2="34.2905" y2="-13.9208" gradientTransform="matrix(0.9905 0.1373 0.1373 -0.9905 34.7605 12.322)">
	<stop  offset="0" style="stop-color:#7E57C2"/>
	<stop  offset="0.2973" style="stop-color:#5C72C7"/>
	<stop  offset="0.951" style="stop-color:#07B7D3"/>
	<stop  offset="1" style="stop-color:#00BCD4"/>
</linearGradient>
<path class="st0" d="M80.9,32.8c0,0-17.8,19.4-10.1,49.4s6.1,65,3.3,74.6s-33,25-33,25s-18-8.4-17.2-8.3s7.9-1.6,7.9-1.6
	s19.7-7.6,12.1-59.8c0,0-14.4-53.7,0.9-77L80.9,32.8z"/>
<path class="st1" d="M115.4,75.8c1.6-0.5,3.2,0.4,3.6,2c0.1,0.4,0.2,0.9,0.1,1.4l-3.6,19.3c0,0-0.9,8.4-9.5,10.8s-65.7,6-71.2,8.5
	s-24.3,11.1-20.4,36.4c0,0,6.7,21.3,32.6,19.3c0,0,24.8-5.2,27.6-19.1c0,0,0.6,11.1-12.2,22.3c-11.5,10.1-27.8,12.5-41.8,6.2
	c-12.4-5.5-23.1-24.5-20.2-45s13.4-32.7,13.4-32.7s13.2-18.3,40.6-22.5c21.5-3.3,32-3.5,35.6-3.5c1.3,0,2.5,0,3.8-0.1
	C98.5,78.6,109.1,77.6,115.4,75.8z"/>
<path class="st1" d="M40,46.4c0,0,4.4-38,45-40.3c39.3-2.3,41.9,3.2,70.5-6c1.1-0.4,2.3,0.2,2.6,1.3c0.1,0.3,0.1,0.6,0.1,0.9
	L155.8,20c0,0-1,11.9-7.8,13.2c-1,0.2-2,0.4-3,0.7c-5.8,1.7-24.6,6.5-43.2,4.2C79.4,35.2,46.2,40.1,40,46.4z"/>
<path class="st1" d="M190.1,73.8c-1.6,1.5-2.4,3.9-2.4,7.4V82h10.7v8.7h-10.7v40.2h-10.2V90.7h-6.6V82h6.6v-1.6
	c0-6,1.7-10.5,5.2-13.5c3.5-3,8.7-4.3,15.7-4v8.9C194.5,71.7,191.7,72.3,190.1,73.8z"/>
<path class="st1" d="M216.8,65.2v65.7h-10.1V65.2H216.8z"/>
<path class="st1" d="M264.1,84.4c3.7,2,6.8,5,8.9,8.7c4.3,8.4,4.3,18.3,0.1,26.7c-2,3.7-5.1,6.7-8.9,8.7c-8,4-17.5,4-25.5,0
	c-3.7-2-6.8-5-8.9-8.7c-2.2-4.1-3.3-8.7-3.2-13.4c-0.1-4.6,1-9.2,3.2-13.3c2.1-3.7,5.1-6.7,8.9-8.7
	C246.7,80.3,256.2,80.3,264.1,84.4L264.1,84.4z M244.1,91.9c-2.3,1.3-4.1,3.2-5.3,5.5c-2.7,5.7-2.7,12.3,0,18.1
	c1.2,2.3,3,4.2,5.3,5.4c4.5,2.4,9.9,2.4,14.4,0c2.3-1.2,4.1-3.1,5.3-5.4c2.7-5.7,2.7-12.3,0-18.1c-1.2-2.3-3-4.2-5.3-5.5
	C254,89.6,248.6,89.6,244.1,91.9z"/>
<path class="st1" d="M321.1,84.4c3.7,2,6.8,5,8.9,8.7c4.3,8.4,4.3,18.3,0,26.7c-2,3.7-5.1,6.7-8.9,8.7c-3.9,2-8.3,3.1-12.8,3
	c-4.4,0.1-8.8-1-12.7-3c-3.7-2-6.8-5-8.9-8.7c-2.2-4.1-3.3-8.7-3.2-13.4c-0.1-4.6,1-9.2,3.2-13.3c2.1-3.7,5.1-6.7,8.9-8.7
	c3.9-2,8.3-3.1,12.7-3C312.8,81.3,317.2,82.4,321.1,84.4z M301.1,91.9c-2.3,1.3-4.1,3.2-5.3,5.5c-2.7,5.7-2.7,12.3,0,18.1
	c1.2,2.3,3,4.2,5.3,5.4c4.5,2.4,9.9,2.4,14.4,0c2.3-1.2,4.1-3.1,5.3-5.4c2.7-5.7,2.7-12.3,0-18.1c-1.2-2.3-3-4.2-5.3-5.5
	C311,89.6,305.6,89.6,301.1,91.9z"/>
<path class="st1" d="M382.4,84.4c3.4,2.1,6.1,5.1,7.9,8.7c3.8,8.5,3.8,18.2,0,26.7c-1.7,3.6-4.5,6.6-7.9,8.7c-3.4,2-7.4,3.1-11.4,3
	c-4,0.1-8-1-11.4-3.3c-3.1-2.1-5.4-5.2-6.6-8.7v11.4H343V65.2h10.1v28.1c1.2-3.5,3.5-6.6,6.6-8.7c3.4-2.3,7.3-3.4,11.4-3.3
	C375,81.3,378.9,82.4,382.4,84.4z M360.2,92.3c-2.3,1.4-4.1,3.3-5.3,5.7c-2.6,5.4-2.6,11.6,0,17c1.2,2.3,3.1,4.3,5.3,5.6
	c2.3,1.3,5,2,7.6,2c4.1,0.2,8-1.4,10.8-4.3c2.7-2.9,4.1-6.8,4.1-11.9s-1.4-9-4.1-11.8c-2.8-2.9-6.8-4.5-10.8-4.3
	C365.2,90.2,362.6,90.9,360.2,92.3z"/>
<path class="st1" d="M410.8,119.8v11.2h-11.5v-11.2H410.8z"/>
<path class="st1" d="M450.7,84.7c3.1,2.1,5.4,5.2,6.7,8.7V82h10.1v49.4c0.1,4.2-0.9,8.4-2.8,12.1c-1.8,3.5-4.6,6.4-8,8.3
	c-3.8,2.1-8.1,3.1-12.4,3c-6.9,0-12.4-1.6-16.6-4.9c-4.2-3.2-7.1-8-8-13.2h10c0.7,2.8,2.4,5.2,4.8,6.8c2.7,1.7,5.9,2.6,9.1,2.4
	c3.7,0.1,7.3-1.2,9.9-3.7c2.6-2.5,3.9-6.1,3.9-10.8v-11.9c-1.2,3.5-3.6,6.6-6.7,8.7c-3.4,2.3-7.3,3.4-11.4,3.3c-4,0.1-8-1-11.4-3
	c-3.4-2.1-6.1-5.1-7.8-8.8c-3.8-8.5-3.8-18.2,0-26.7c1.7-3.6,4.4-6.6,7.8-8.7c3.5-2,7.4-3.1,11.4-3
	C443.4,81.2,447.3,82.4,450.7,84.7z M431.7,94.6c-2.7,2.9-4,6.8-4,11.9s1.4,9,4,11.9c2.7,2.9,6.3,4.3,10.8,4.3c2.7,0,5.3-0.7,7.6-2
	c2.3-1.3,4.1-3.3,5.3-5.6c2.6-5.4,2.6-11.6,0-17c-1.2-2.4-3.1-4.3-5.3-5.7c-2.3-1.3-5-2-7.6-2C437.9,90.3,434.3,91.7,431.7,94.6
	L431.7,94.6z"/>
<path class="st1" d="M510.6,84.7c3.1,2.1,5.4,5.2,6.7,8.7V82h10.1v49.4c0.1,4.2-0.9,8.4-2.8,12.1c-1.8,3.5-4.6,6.4-8,8.3
	c-3.8,2.1-8.1,3.1-12.4,3c-6.9,0-12.4-1.6-16.6-4.9c-4.2-3.2-7.1-7.9-8-13.2h10c0.7,2.8,2.4,5.2,4.8,6.8c2.7,1.7,5.9,2.6,9,2.4
	c3.7,0.1,7.3-1.2,9.9-3.7c2.6-2.5,3.9-6.1,3.9-10.8v-11.9c-1.2,3.5-3.6,6.6-6.7,8.7c-3.4,2.3-7.3,3.4-11.4,3.3c-4,0.1-8-1-11.4-3
	c-3.4-2.1-6.1-5.1-7.8-8.7c-3.8-8.5-3.8-18.2,0-26.7c1.7-3.6,4.4-6.6,7.8-8.7c3.5-2,7.4-3.1,11.4-3
	C503.2,81.3,507.2,82.4,510.6,84.7z M491.6,94.6c-2.7,2.9-4,6.8-4,11.9s1.3,9,4,11.9c2.7,2.9,6.3,4.3,10.8,4.3c2.7,0,5.3-0.7,7.6-2
	c2.3-1.3,4.1-3.3,5.3-5.6c2.6-5.4,2.6-11.6,0-17c-1.2-2.4-3.1-4.3-5.3-5.7c-2.3-1.3-5-2-7.6-2C497.9,90.3,494.2,91.7,491.6,94.6
	L491.6,94.6z"/>
</svg>
