<svg id="Layer_1" data-name="Layer 1" xmlns="http://www.w3.org/2000/svg" xmlns:xlink="http://www.w3.org/1999/xlink" viewBox="0 0 398.93 469.36"><defs><style>.cls-1{fill:url(#linear-gradient);}.cls-2{fill:#fff;}</style><linearGradient id="linear-gradient" x1="213.26" y1="77.84" x2="213.26" y2="463.71" gradientTransform="matrix(0.99, 0.14, 0.14, -0.99, 135.28, 566.33)" gradientUnits="userSpaceOnUse"><stop offset="0" stop-color="#5c50a1"/><stop offset="1" stop-color="#42bda9"/></linearGradient></defs><title>Floob.logo</title><path class="cls-1" d="M445.71,141.23s-44.77,48.91-25.46,124.58,15.3,163.75,8.19,188.1-83.21,62.94-83.21,62.94S299.76,495.65,302,496,321.86,492,321.86,492s49.59-19.2,30.58-150.69c0,0-36.35-135.39,2.32-194.07Z" transform="translate(-241.79 -58.64)"/><path class="cls-2" d="M532.7,249.55A7.37,7.37,0,0,1,542,258l-9,48.76s-2.22,21.3-23.88,27.22-165.64,15-179.48,21.3-61.23,28-51.47,91.93c0,0,16.94,53.75,82.18,48.63,0,0,62.41-13,69.6-48.25,0,0,1.46,28-30.73,56.09s-74,29.75-105.25,15.73-58.2-61.68-51-113.59,33.78-82.45,33.78-82.45,33.2-46.06,102.45-56.57c54.09-8.22,80.66-8.87,89.71-8.77,3.18,0,6.35,0,9.51-.3C490.1,256.81,516.85,254.26,532.7,249.55Z" transform="translate(-241.79 -58.64)"/><path class="cls-2" d="M342.61,175.72s11-95.67,113.51-101.59c99-5.7,105.65,8.09,177.77-15.23a5.22,5.22,0,0,1,6.78,5.67l-6.15,44.32s-2.47,29.9-19.71,33.38c-2.58.52-5.15.95-7.67,1.68-14.47,4.21-61.91,16.39-108.9,10.49C441.88,147.38,358.24,159.63,342.61,175.72Z" transform="translate(-241.79 -58.64)"/></svg>