<svg id="Layer_6" data-name="Layer 6" xmlns="http://www.w3.org/2000/svg" xmlns:xlink="http://www.w3.org/1999/xlink" viewBox="0 0 527.36 186.2"><defs><style>.cls-1{fill:url(#linear-gradient);}.cls-2{fill:#fff;}</style><linearGradient id="linear-gradient" x1="-20.37" y1="454.6" x2="-20.37" y2="301.53" gradientTransform="translate(219.31 -39.85) rotate(7.89)" gradientUnits="userSpaceOnUse"><stop offset="0" stop-color="#591ae8"/><stop offset="1" stop-color="#59c1ad"/></linearGradient></defs><title>Floob-white-logo</title><path class="cls-1" d="M171.84,258s-17.76,19.4-10.1,49.42,6.07,65,3.26,74.62-33,25-33,25-18-8.41-17.17-8.29,7.9-1.56,7.9-1.56,19.67-7.62,12.12-59.78c0,0-14.42-53.71.92-77Z" transform="translate(-90.94 -225.23)"/><path class="cls-2" d="M206.35,301a2.93,2.93,0,0,1,3.7,3.35l-3.58,19.34s-.87,8.44-9.47,10.8-65.71,6-71.2,8.45S101.51,354,105.38,379.37c0,0,6.72,21.32,32.6,19.29,0,0,24.76-5.16,27.61-19.14,0,0,.58,11.12-12.2,22.26A39.06,39.06,0,0,1,111.64,408C99.23,402.45,88.55,383.54,91.4,363s13.4-32.72,13.4-32.72S118,312,145.44,307.8c21.46-3.26,32-3.52,35.58-3.48,1.26,0,2.52,0,3.78-.12C189.45,303.83,200.06,302.83,206.35,301Z" transform="translate(-90.94 -225.23)"/><path class="cls-2" d="M130.94,271.67s4.38-38,45-40.3c39.27-2.27,41.91,3.21,70.52-6a2.08,2.08,0,0,1,2.7,2.25l-2.44,17.58s-1,11.86-7.82,13.24c-1,.21-2,.38-3,.67-5.75,1.67-24.56,6.5-43.21,4.16C170.32,260.43,137.15,265.29,130.94,271.67Z" transform="translate(-90.94 -225.23)"/><path class="cls-2" d="M281.06,299q-2.38,2.18-2.39,7.41v.8h10.74v8.7H278.67v40.2H268.46v-40.2h-6.65v-8.7h6.65v-1.59q0-9,5.24-13.45t15.71-3.95v8.88C285.44,296.94,282.66,297.58,281.06,299Z" transform="translate(-90.94 -225.23)"/><path class="cls-2" d="M307.69,290.46v65.67H297.57V290.46Z" transform="translate(-90.94 -225.23)"/><path class="cls-2" d="M355.08,309.63a21.6,21.6,0,0,1,8.87,8.7A29.47,29.47,0,0,1,364,345a21.6,21.6,0,0,1-8.87,8.7,28.55,28.55,0,0,1-25.52,0,22,22,0,0,1-8.87-8.74,26.67,26.67,0,0,1-3.24-13.36,26.38,26.38,0,0,1,3.24-13.31,22,22,0,0,1,8.87-8.7,28.47,28.47,0,0,1,25.52,0Zm-20,7.54a13.14,13.14,0,0,0-5.28,5.46,21.39,21.39,0,0,0,0,18.06,13.07,13.07,0,0,0,5.28,5.41,15.41,15.41,0,0,0,14.38,0,13.07,13.07,0,0,0,5.28-5.41,21.39,21.39,0,0,0,0-18.06,13.14,13.14,0,0,0-5.28-5.46,15.49,15.49,0,0,0-14.38,0Z" transform="translate(-90.94 -225.23)"/><path class="cls-2" d="M412.06,309.63a21.66,21.66,0,0,1,8.87,8.7,29.55,29.55,0,0,1,0,26.71,21.66,21.66,0,0,1-8.87,8.7,26.85,26.85,0,0,1-12.78,3,26.57,26.57,0,0,1-12.74-3,21.94,21.94,0,0,1-8.87-8.74,26.67,26.67,0,0,1-3.24-13.36,26.38,26.38,0,0,1,3.24-13.31,22,22,0,0,1,8.87-8.7,26.58,26.58,0,0,1,12.74-3A26.85,26.85,0,0,1,412.06,309.63Zm-20,7.54a13.14,13.14,0,0,0-5.28,5.46,21.39,21.39,0,0,0,0,18.06,13.07,13.07,0,0,0,5.28,5.41,15.39,15.39,0,0,0,14.37,0,13.07,13.07,0,0,0,5.28-5.41,21.39,21.39,0,0,0,0-18.06,13.14,13.14,0,0,0-5.28-5.46,15.47,15.47,0,0,0-14.37,0Z" transform="translate(-90.94 -225.23)"/><path class="cls-2" d="M473.33,309.63a20.61,20.61,0,0,1,7.86,8.7,32.82,32.82,0,0,1,0,26.71,20.61,20.61,0,0,1-7.86,8.7,21.67,21.67,0,0,1-11.4,3,19.34,19.34,0,0,1-11.36-3.28,17.2,17.2,0,0,1-6.57-8.7v11.36H433.89V290.46H444v28.13a17.14,17.14,0,0,1,6.57-8.69,19.35,19.35,0,0,1,11.36-3.29A21.68,21.68,0,0,1,473.33,309.63Zm-22.14,7.85a14.11,14.11,0,0,0-5.32,5.68,19.5,19.5,0,0,0,0,17,14.16,14.16,0,0,0,5.32,5.63,14.7,14.7,0,0,0,7.63,2,14.22,14.22,0,0,0,10.83-4.3q4.08-4.31,4.08-11.85t-4.08-11.81a14.18,14.18,0,0,0-10.83-4.34A14.7,14.7,0,0,0,451.19,317.48Z" transform="translate(-90.94 -225.23)"/><path class="cls-2" d="M501.78,345v11.18H490.33V345Z" transform="translate(-90.94 -225.23)"/><path class="cls-2" d="M541.62,309.9a17.58,17.58,0,0,1,6.66,8.69V307.23H558.4v49.44a25.54,25.54,0,0,1-2.8,12.11,20.43,20.43,0,0,1-8,8.3,24.48,24.48,0,0,1-12.43,3q-10.29,0-16.64-4.88A21.06,21.06,0,0,1,510.56,362h10a12,12,0,0,0,4.79,6.79,15.64,15.64,0,0,0,9.06,2.44,13.81,13.81,0,0,0,9.94-3.73q3.9-3.72,3.9-10.82v-11.9a17.65,17.65,0,0,1-6.66,8.7,19.32,19.32,0,0,1-11.36,3.28,21.67,21.67,0,0,1-11.4-3A20.59,20.59,0,0,1,511,345a32.82,32.82,0,0,1,0-26.71,20.59,20.59,0,0,1,7.85-8.7,21.68,21.68,0,0,1,11.4-3A19.32,19.32,0,0,1,541.62,309.9Zm-19,9.89q-4.05,4.31-4,11.85t4,11.85q4,4.31,10.78,4.3a14.7,14.7,0,0,0,7.63-2,14.19,14.19,0,0,0,5.33-5.63,19.5,19.5,0,0,0,0-17,14.13,14.13,0,0,0-5.33-5.68,14.7,14.7,0,0,0-7.63-2Q526.62,315.49,522.59,319.79Z" transform="translate(-90.94 -225.23)"/><path class="cls-2" d="M601.53,309.9a17.62,17.62,0,0,1,6.65,8.69V307.23H618.3v49.44a25.43,25.43,0,0,1-2.8,12.11,20.43,20.43,0,0,1-8,8.3,24.47,24.47,0,0,1-12.42,3q-10.31,0-16.64-4.88A21.07,21.07,0,0,1,570.46,362h10a12,12,0,0,0,4.8,6.79,15.59,15.59,0,0,0,9.05,2.44,13.81,13.81,0,0,0,9.94-3.73q3.9-3.72,3.9-10.82v-11.9a17.69,17.69,0,0,1-6.65,8.7,19.36,19.36,0,0,1-11.36,3.28,21.73,21.73,0,0,1-11.41-3,20.59,20.59,0,0,1-7.85-8.7,32.82,32.82,0,0,1,0-26.71,20.59,20.59,0,0,1,7.85-8.7,21.74,21.74,0,0,1,11.41-3A19.37,19.37,0,0,1,601.53,309.9Zm-19,9.89q-4,4.31-4,11.85t4,11.85q4,4.31,10.78,4.3a14.74,14.74,0,0,0,7.64-2,14.23,14.23,0,0,0,5.32-5.63,19.5,19.5,0,0,0,0-17,14.18,14.18,0,0,0-5.32-5.68,14.73,14.73,0,0,0-7.64-2Q586.54,315.49,582.49,319.79Z" transform="translate(-90.94 -225.23)"/></svg>