<?xml version="1.0" encoding="utf-8"?>
<!-- Generator: Adobe Illustrator 23.1.1, SVG Export Plug-In . SVG Version: 6.00 Build 0)  -->
<svg version="1.1" id="Layer_6" xmlns="http://www.w3.org/2000/svg" xmlns:xlink="http://www.w3.org/1999/xlink" x="0px" y="0px"
	 viewBox="0 0 158.3 186.2" style="enable-background:new 0 0 158.3 186.2;" xml:space="preserve">
<style type="text/css">
	.st0{fill:url(#SVGID_1_);}
	.st1{fill:#FFFFFF;}
</style>
<title>floob-logo</title>
<linearGradient id="SVGID_1_" gradientUnits="userSpaceOnUse" x1="41.0093" y1="-127.982" x2="41.0093" y2="25.1174" gradientTransform="matrix(0.9905 0.1373 0.1373 -0.9905 22.7492 50.0473)">
	<stop  offset="0" style="stop-color:#7E57C2"/>
	<stop  offset="0.2971" style="stop-color:#5C72C7"/>
	<stop  offset="0.9503" style="stop-color:#07B7D3"/>
	<stop  offset="1" style="stop-color:#00BCD4"/>
</linearGradient>
<path class="st0" d="M80.9,32.8c0,0-17.8,19.4-10.1,49.4s6.1,65,3.2,74.6s-33,25-33,25s-18-8.4-17.2-8.3s7.9-1.6,7.9-1.6
	s19.7-7.6,12.1-59.8c0,0-14.4-53.7,0.9-77L80.9,32.8z"/>
<path class="st1" d="M115.4,75.7c1.6-0.5,3.2,0.4,3.6,2c0.1,0.4,0.2,0.9,0.1,1.4l-3.6,19.3c0,0-0.9,8.4-9.5,10.8s-65.7,6-71.2,8.5
	s-24.3,11.1-20.4,36.4c0,0,6.7,21.3,32.6,19.3c0,0,24.8-5.2,27.6-19.1c0,0,0.6,11.1-12.2,22.3C51,186.6,34.6,189,20.7,182.7
	c-12.4-5.6-23.1-24.5-20.2-45S13.9,105,13.9,105S27,86.7,54.5,82.5c21.5-3.3,32-3.5,35.6-3.5c1.3,0,2.5,0,3.8-0.1
	C98.5,78.6,109.1,77.6,115.4,75.7z"/>
<path class="st1" d="M40,46.4c0,0,4.4-38,45-40.3c39.3-2.3,41.9,3.2,70.5-6c1.1-0.4,2.3,0.2,2.6,1.3c0.1,0.3,0.1,0.6,0.1,0.9
	l-2.4,17.5c0,0-1,11.9-7.8,13.2c-1,0.2-2,0.4-3,0.7c-5.7,1.7-24.6,6.5-43.2,4.2C79.4,35.2,46.2,40.1,40,46.4z"/>
</svg>
