<svg id="Layer_1" data-name="Layer 1" xmlns="http://www.w3.org/2000/svg" xmlns:xlink="http://www.w3.org/1999/xlink" viewBox="0 0 624.89 195.96"><defs><style>.cls-1{fill:url(#linear-gradient);}.cls-2,.cls-3{fill:#fff;}.cls-3{font-size:88.75px;font-family:Poppins-Bold, Poppins;font-weight:700;}</style><linearGradient id="linear-gradient" x1="-27.86" y1="428.75" x2="-27.86" y2="275.67" gradientTransform="translate(219.31 -39.85) rotate(7.89)" gradientUnits="userSpaceOnUse"><stop offset="0" stop-color="#5c50a1"/><stop offset="1" stop-color="#42bda9"/></linearGradient></defs><title>Floob-logo-text</title><path class="cls-1" d="M168,231.34s-17.76,19.4-10.1,49.42,6.07,65,3.25,74.62-33,25-33,25-18-8.41-17.17-8.29,7.9-1.56,7.9-1.56,19.67-7.62,12.13-59.78c0,0-14.43-53.71.91-77Z" transform="translate(-87.06 -198.59)"/><path class="cls-2" d="M202.48,274.32a2.93,2.93,0,0,1,3.7,3.35L202.6,297s-.88,8.44-9.48,10.8-65.7,5.95-71.2,8.45-24.29,11.11-20.41,36.47c0,0,6.72,21.32,32.6,19.29,0,0,24.76-5.16,27.6-19.14,0,0,.58,11.12-12.19,22.26a39.07,39.07,0,0,1-41.75,6.23c-12.42-5.56-23.09-24.47-20.24-45.05s13.4-32.72,13.4-32.72,13.17-18.27,40.63-22.44c21.46-3.26,32-3.52,35.59-3.48,1.26,0,2.52,0,3.77-.12C185.58,277.19,196.18,276.19,202.48,274.32Z" transform="translate(-87.06 -198.59)"/><path class="cls-2" d="M127.07,245s4.37-38,45-40.3c39.26-2.27,41.91,3.21,70.52-6a2.07,2.07,0,0,1,2.69,2.25l-2.44,17.58s-1,11.86-7.82,13.24c-1,.21-2,.38-3,.67-5.74,1.67-24.56,6.5-43.2,4.16C166.45,233.79,133.27,238.65,127.07,245Z" transform="translate(-87.06 -198.59)"/><text class="cls-3" transform="translate(172.02 142.18)">floob.club</text></svg>