<?xml version="1.0" standalone="no"?>
<!DOCTYPE svg PUBLIC "-//W3C//DTD SVG 20010904//EN"
 "http://www.w3.org/TR/2001/REC-SVG-20010904/DTD/svg10.dtd">
<svg version="1.0" xmlns="http://www.w3.org/2000/svg"
 width="460.000000pt" height="460.000000pt" viewBox="0 0 460.000000 460.000000"
 preserveAspectRatio="xMidYMid meet">
<metadata>
Created by potrace 1.11, written by Peter Selinger 2001-2013
</metadata>
<g transform="translate(0.000000,460.000000) scale(0.100000,-0.100000)"
fill="#000000" stroke="none">
<path d="M1295 2653 c-324 -328 -749 -758 -944 -955 l-354 -358 518 0 c497 0
517 1 502 18 -36 39 -47 89 -47 204 0 128 14 171 71 225 70 66 22 63 951 63
800 0 845 -1 883 -19 55 -26 105 -81 124 -138 l16 -48 304 308 304 307 -752 0
c-829 0 -790 -3 -860 63 -58 55 -71 97 -71 227 0 130 13 172 71 227 70 66 22
63 944 63 922 0 874 3 943 -63 40 -38 61 -75 70 -125 l7 -37 315 318 315 317
-1360 0 -1360 0 -590 -597z"/>
</g>
</svg>
