<?xml version="1.0" standalone="no"?>
<!DOCTYPE svg PUBLIC "-//W3C//DTD SVG 20010904//EN"
 "http://www.w3.org/TR/2001/REC-SVG-20010904/DTD/svg10.dtd">
<svg version="1.0" xmlns="http://www.w3.org/2000/svg"
 width="768.000000pt" height="768.000000pt" viewBox="0 0 768.000000 768.000000"
 preserveAspectRatio="xMidYMid meet">
<metadata>
Created by potrace 1.11, written by Peter Selinger 2001-2013
</metadata>
<g transform="translate(0.000000,768.000000) scale(0.100000,-0.100000)"
fill="#000000" stroke="none">
<path d="M3637 7334 c-1 -1 -38 -5 -82 -8 -75 -6 -124 -12 -185 -21 -14 -2
-45 -7 -70 -10 -25 -3 -90 -15 -145 -26 -1209 -240 -2217 -1125 -2617 -2298
-67 -199 -136 -489 -153 -648 -2 -21 -6 -51 -9 -68 -20 -119 -27 -530 -12
-695 18 -200 24 -243 62 -430 102 -505 332 -1006 652 -1418 168 -217 378 -432
572 -587 41 -33 77 -62 80 -65 25 -27 265 -185 390 -257 93 -53 331 -173 344
-173 3 0 29 -11 58 -24 187 -85 653 -208 873 -231 59 -6 161 -16 205 -20 114
-10 471 -4 595 9 28 3 75 8 105 12 30 3 62 7 70 9 8 3 33 7 55 10 77 11 241
47 350 77 514 138 1013 413 1415 778 74 67 229 222 270 270 12 14 31 36 43 50
12 14 40 48 62 75 22 28 42 52 45 55 3 3 23 30 45 60 22 30 42 57 45 60 11 10
117 176 172 270 266 453 424 973 463 1517 12 169 7 458 -10 594 -3 19 -7 57
-10 84 -3 28 -8 64 -12 80 -3 17 -7 41 -8 55 -2 21 -25 140 -39 205 -100 463
-351 988 -654 1370 -132 165 -329 372 -462 485 -29 25 -62 53 -74 63 -11 10
-36 31 -55 45 -19 15 -46 36 -60 48 -52 41 -218 153 -316 211 -185 112 -433
227 -625 293 -52 17 -104 36 -115 40 -32 14 -292 77 -390 96 -49 9 -97 17
-105 19 -8 1 -40 6 -70 9 -30 4 -73 9 -94 12 -95 13 -154 16 -369 18 -125 1
-228 1 -230 0z m498 -218 c22 -3 65 -7 95 -10 30 -3 64 -8 75 -10 11 -2 40 -7
65 -10 102 -14 263 -50 425 -96 194 -55 507 -190 690 -297 116 -69 311 -203
420 -290 113 -90 362 -332 450 -437 278 -331 489 -710 619 -1111 52 -162 107
-397 121 -515 3 -30 8 -62 10 -70 2 -8 7 -49 11 -90 3 -41 8 -91 10 -110 4
-43 4 -390 0 -445 -11 -132 -18 -211 -21 -215 -2 -3 -6 -30 -10 -60 -9 -81
-42 -239 -75 -364 -213 -805 -758 -1526 -1485 -1963 -360 -216 -789 -370
-1195 -428 -63 -9 -126 -18 -138 -20 -32 -5 -294 -18 -362 -18 -75 0 -314 13
-342 18 -13 3 -52 8 -88 11 -35 3 -67 7 -70 9 -3 2 -26 6 -50 10 -25 4 -76 13
-115 22 -38 8 -81 17 -95 20 -34 7 -226 61 -275 78 -486 167 -884 411 -1248
765 -438 424 -753 971 -897 1556 -34 139 -34 137 -45 204 -4 25 -9 54 -11 65
-2 11 -6 40 -9 65 -3 25 -8 56 -10 70 -25 143 -25 642 -1 775 2 11 7 43 10 70
19 136 40 244 72 370 26 99 90 302 115 360 7 17 13 33 13 36 2 14 76 173 132
284 75 150 211 367 301 480 70 88 98 122 157 190 493 559 1138 923 1876 1059
132 24 171 29 315 42 39 3 71 7 73 9 5 4 445 -4 487 -9z"/>
<path d="M3165 6040 c-27 -4 -69 -10 -92 -13 -115 -17 -257 -64 -380 -127
-275 -141 -518 -407 -597 -655 -58 -180 -54 -387 11 -523 49 -104 163 -208
296 -271 103 -49 169 -64 272 -63 279 4 532 125 654 312 19 30 36 57 37 60 0
3 8 21 16 40 34 75 47 137 34 155 -11 15 -15 15 -34 4 -22 -14 -42 -50 -42
-77 0 -77 -89 -182 -224 -267 -233 -145 -454 -164 -671 -58 -80 39 -100 54
-137 103 -71 94 -71 290 -1 455 70 164 232 348 413 469 103 69 146 91 285 146
68 27 171 55 235 64 19 3 46 8 60 11 41 11 359 14 435 4 329 -41 721 -171
1197 -398 l86 -41 -88 -133 c-187 -282 -426 -720 -531 -975 l-34 -83 -65 7
c-36 4 -74 8 -84 10 -51 9 -203 18 -311 19 -112 0 -249 -22 -280 -45 -5 -4
-27 -13 -47 -19 -20 -7 -63 -29 -95 -50 -101 -67 -166 -139 -223 -250 -27 -52
-31 -68 -24 -90 15 -39 35 -29 117 53 50 51 92 82 137 103 173 82 300 99 702
94 107 -1 107 -1 99 -23 -19 -50 -138 -289 -193 -387 -32 -58 -58 -108 -58
-113 0 -4 -4 -8 -10 -8 -5 0 -10 -5 -10 -10 0 -21 -249 -386 -279 -410 -4 -3
-17 -18 -30 -35 -160 -208 -445 -462 -646 -575 -173 -98 -422 -187 -570 -205
-22 -3 -65 -9 -95 -14 -53 -9 -345 -7 -402 3 -44 7 -111 18 -134 22 -56 10
-208 59 -294 95 -307 128 -545 338 -673 594 -27 54 -81 209 -92 265 -11 53
-13 297 -3 349 37 189 74 283 156 391 61 81 128 143 260 240 56 41 102 79 102
83 0 21 -136 -21 -195 -61 -229 -154 -341 -314 -381 -547 -2 -16 -8 -39 -11
-50 -3 -11 -8 -31 -9 -45 -2 -14 -7 -50 -11 -80 -15 -109 -8 -375 13 -467 27
-124 92 -283 159 -392 57 -93 186 -225 305 -313 179 -131 348 -207 585 -263
141 -33 211 -40 450 -40 256 0 333 8 514 52 180 43 289 83 448 164 214 110
353 220 573 455 230 245 421 584 630 1116 42 109 79 196 81 193 12 -11 332
-21 544 -15 50 1 98 2 107 1 13 -1 0 -23 -49 -83 -208 -258 -400 -635 -448
-880 -12 -67 -13 -227 -1 -281 17 -73 50 -139 94 -186 134 -142 329 -132 597
32 148 91 305 227 452 394 189 213 327 471 373 698 18 88 16 231 -4 291 -47
142 -182 147 -264 9 -51 -83 -66 -154 -67 -300 0 -157 15 -248 57 -332 11 -23
10 -28 -23 -82 -86 -142 -336 -407 -484 -513 -214 -152 -384 -213 -451 -162
-79 59 -74 274 12 564 68 225 233 574 371 785 18 27 34 53 35 57 2 5 29 15 60
22 88 20 133 59 96 82 -7 5 -179 9 -383 10 -203 0 -379 4 -391 7 -11 3 -54 8
-95 12 -41 4 -77 10 -81 13 -7 7 141 378 201 507 50 105 140 284 169 335 79
140 207 320 228 320 8 0 81 -33 162 -73 81 -41 183 -88 227 -107 44 -18 89
-37 100 -41 47 -20 297 -100 385 -123 134 -34 188 -41 330 -41 119 0 129 2
200 32 157 68 229 160 235 298 4 87 -32 76 -87 -27 -36 -67 -91 -109 -178
-135 -82 -25 -313 -22 -448 5 -208 42 -559 160 -777 261 l-89 42 49 35 c59 42
86 54 142 61 41 5 113 -19 113 -38 0 -14 36 -11 47 4 14 16 6 64 -15 93 -26
35 -69 49 -152 48 -89 -1 -158 -30 -238 -100 -28 -24 -52 -44 -55 -44 -2 0
-44 24 -93 54 -166 100 -426 226 -639 310 -166 65 -542 182 -620 192 -11 1
-20 3 -20 4 0 1 -9 3 -20 4 -11 2 -56 9 -100 16 -90 14 -344 20 -420 10z
m2863 -2110 c15 -41 8 -201 -12 -285 -19 -81 -67 -218 -74 -211 -16 16 -30
145 -27 246 4 122 18 184 57 244 28 44 43 45 56 6z"/>
</g>
</svg>
