<?xml version="1.0" encoding="utf-8"?>
<!-- Generator: Adobe Illustrator 24.0.3, SVG Export Plug-In . SVG Version: 6.00 Build 0)  -->
<svg version="1.1" xmlns="http://www.w3.org/2000/svg" xmlns:xlink="http://www.w3.org/1999/xlink" x="0px" y="0px"
	 viewBox="0 0 750 500" style="enable-background:new 0 0 750 500;" xml:space="preserve">
<style type="text/css">
	.st0{fill:#1B1E4B;}
	.st1{opacity:0.8;}
	.st2{clip-path:url(#XMLID_3_);fill:url(#SVGID_1_);}
	.st3{clip-path:url(#XMLID_3_);fill:url(#SVGID_2_);}
	.st4{clip-path:url(#XMLID_3_);fill:url(#SVGID_3_);}
	.st5{clip-path:url(#XMLID_3_);fill:url(#SVGID_4_);}
	.st6{clip-path:url(#XMLID_3_);fill:url(#SVGID_5_);}
	.st7{clip-path:url(#XMLID_5_);fill:url(#SVGID_6_);}
	.st8{clip-path:url(#XMLID_5_);fill:url(#SVGID_7_);}
	.st9{clip-path:url(#XMLID_5_);fill:url(#SVGID_8_);}
	.st10{clip-path:url(#XMLID_5_);fill:url(#SVGID_9_);}
	.st11{clip-path:url(#XMLID_7_);fill:url(#SVGID_10_);}
	.st12{clip-path:url(#XMLID_7_);fill:url(#SVGID_11_);}
	.st13{clip-path:url(#XMLID_7_);fill:url(#SVGID_12_);}
	.st14{clip-path:url(#XMLID_7_);fill:url(#SVGID_13_);}
	.st15{clip-path:url(#XMLID_7_);fill:url(#SVGID_14_);}
	.st16{fill:url(#SVGID_15_);}
	.st17{fill:url(#SVGID_16_);}
	.st18{fill:url(#SVGID_17_);}
	.st19{fill:url(#SVGID_18_);}
	.st20{fill:url(#SVGID_19_);}
	.st21{opacity:0.93;}
	.st22{fill:url(#SVGID_20_);}
	.st23{fill:url(#SVGID_21_);}
	.st24{fill:url(#SVGID_22_);}
	.st25{fill:url(#SVGID_23_);}
</style>
<g id="BACKGROUND">
	<rect x="-361.1" y="-181.5" class="st0" width="1432.5" height="973.6"/>
	<g class="st1">
		<defs>
			<path id="XMLID_67_" class="st1" d="M915.7-5.4c171.2-128.9,401.3,224,478.4,433.1C1499,712,1677.8,615.6,1813.9,653.8
				c180.5,50.6,127.2,275.7-114,284.9c-481,18.3-482.4,527.7-848.4,301.1c-366-226.6-456.4-795.4-225.2-855.8
				C857.6,323.5,791.8,87.9,915.7-5.4z"/>
		</defs>
		
			<linearGradient id="XMLID_2_" gradientUnits="userSpaceOnUse" x1="1266.8479" y1="1024.1077" x2="1212.7183" y2="84.5592" gradientTransform="matrix(0.9962 8.700000e-02 -8.700000e-02 0.9962 25.8894 -49.0543)">
			<stop  offset="0" style="stop-color:#BB67F5"/>
			<stop  offset="1" style="stop-color:#2F64EB"/>
		</linearGradient>
		<use xlink:href="#XMLID_67_"  style="overflow:visible;fill:url(#XMLID_2_);"/>
		<clipPath id="XMLID_3_">
			<use xlink:href="#XMLID_67_"  style="overflow:visible;"/>
		</clipPath>
		
			<linearGradient id="SVGID_1_" gradientUnits="userSpaceOnUse" x1="1047.1375" y1="947.8588" x2="1479.2133" y2="292.4944" gradientTransform="matrix(0.9962 8.700000e-02 -8.700000e-02 0.9962 25.8894 -49.0543)">
			<stop  offset="0" style="stop-color:#BB67F5"/>
			<stop  offset="1" style="stop-color:#2F64EB"/>
		</linearGradient>
		<polygon class="st2" points="2034.5,1553.4 312.8,1403 455.7,-233.5 2177.5,-83.1 		"/>
		
			<linearGradient id="SVGID_2_" gradientUnits="userSpaceOnUse" x1="1218.5845" y1="1105.5198" x2="901.5352" y2="604.8143" gradientTransform="matrix(0.9962 8.700000e-02 -8.700000e-02 0.9962 25.8894 -49.0543)">
			<stop  offset="0" style="stop-color:#A2A2A2"/>
			<stop  offset="1" style="stop-color:#FFFFFF;stop-opacity:0"/>
		</linearGradient>
		<path class="st3" d="M583.7,939.9c73.8,138.1,239.2-8.5,198.1-167.3c-41.1-158.8,172.3-39.3,252.5-106.6
			c104.8-87.9,131.3-606.4,313.8-340.2c0,0-131.9-422.8-135.8-422.5c-3.9,0.3-342-38.9-342-38.9L628.7-26.8
			c0,0-235.6,338.4-246.5,349.1c-10.9,10.7-94.5,327.5-99.9,342.5c-5.4,15.1,43.7,300.7,43.7,300.7s91.8,145.8,101.1,150.5"/>
		
			<linearGradient id="SVGID_3_" gradientUnits="userSpaceOnUse" x1="826.3802" y1="751.7802" x2="675.5884" y2="336.136" gradientTransform="matrix(0.9962 8.700000e-02 -8.700000e-02 0.9962 25.8894 -49.0543)">
			<stop  offset="0" style="stop-color:#A2A2A2"/>
			<stop  offset="1" style="stop-color:#FFFFFF;stop-opacity:0"/>
		</linearGradient>
		<path class="st4" d="M515.6,752.4c-33.4-122.4,13.5-192.2,110.3-173c96.8,19.2,128.8,41.4,163.6-35.1
			c34.8-76.5,51.2-77.1,108.8-83c67.9-7,110.3-38.6,106.5-104.9c-3.1-53.6-60.2-74.2-101.6-144.7c-26.9-45.9-66.1-180.8,46.5-236.2
			l-117.1-57L603.3-11.8L431.9,128.7l-79.8,158L323.8,455l51.8,206.3"/>
		
			<linearGradient id="SVGID_4_" gradientUnits="userSpaceOnUse" x1="693.061" y1="622.4045" x2="652.8033" y2="-76.3653" gradientTransform="matrix(0.9962 8.700000e-02 -8.700000e-02 0.9962 25.8894 -49.0543)">
			<stop  offset="0" style="stop-color:#BB67F5"/>
			<stop  offset="1" style="stop-color:#2F64EB"/>
		</linearGradient>
		<path class="st5" d="M949.7-24.6c-106.3,63.1-97.9,230.8-26,297.2c71.9,66.4,85.9,156.9-48.3,168.5
			c-134.2,11.6-57.8,167.7-217.9,118.8C497.4,510.9,497.1,670,513.7,791.8L299.9,617.9L412.1,244L688.6,50l232.5-212.3l127.8-19.4"
			/>
		
			<linearGradient id="SVGID_5_" gradientUnits="userSpaceOnUse" x1="782.0344" y1="716.9865" x2="604.1775" y2="247.2121" gradientTransform="matrix(0.9962 8.700000e-02 -8.700000e-02 0.9962 25.8894 -49.0543)">
			<stop  offset="0" style="stop-color:#A2A2A2"/>
			<stop  offset="1" style="stop-color:#FFFFFF;stop-opacity:0"/>
		</linearGradient>
		<path class="st6" d="M500,588.2c21.6-247.8,270.3-137.3,332.6-211c48.3-57.2-33.2-99.4,21.5-306.3
			c54.2-205.3-231.3-30.2-231.3-30.2l-248,235.2l-53.9,101.3"/>
	</g>
	<g class="st1">
		<g>
			<defs>
				<path id="XMLID_66_" d="M-187.9-147.6C44.5-75.2,102.3,182,283,91.5c180.6-90.5,185.8,81.9,344.9-16.3
					C786.9-23,743.2-350.4,463.3-337.7c-120.1,5.5-287.6,180-390.5,50.9C-154.9-572.4-419.5-219.7-187.9-147.6z"/>
			</defs>
			<linearGradient id="XMLID_4_" gradientUnits="userSpaceOnUse" x1="664.3002" y1="-404.0868" x2="-130.8908" y2="46.113">
				<stop  offset="0" style="stop-color:#00CCC2"/>
				<stop  offset="1" style="stop-color:#BB67F5"/>
			</linearGradient>
			<use xlink:href="#XMLID_66_"  style="overflow:visible;fill:url(#XMLID_4_);"/>
			<clipPath id="XMLID_5_">
				<use xlink:href="#XMLID_66_"  style="overflow:visible;"/>
			</clipPath>
			<linearGradient id="SVGID_6_" gradientUnits="userSpaceOnUse" x1="4.3319" y1="71.9721" x2="545.0641" y2="-490.7806">
				<stop  offset="0" style="stop-color:#00CCC2"/>
				<stop  offset="1" style="stop-color:#BB67F5"/>
			</linearGradient>
			<rect x="-394.8" y="-580.4" class="st7" width="1211.5" height="874.7"/>
			<linearGradient id="SVGID_7_" gradientUnits="userSpaceOnUse" x1="421.4917" y1="512.3736" x2="552.9499" y2="-214.5128">
				<stop  offset="0" style="stop-color:#FFFFFF"/>
				<stop  offset="1" style="stop-color:#FFFFFF;stop-opacity:0"/>
			</linearGradient>
			<path class="st8" d="M266.1-263.6c142-50.9,115.4,174.3,198.1,208.2c60.4,24.7,65.9-41.8,147-39.3c81.1,2.5,94,98.6,49.9,143.4
				l104.7,19.6c0,0,146.9-156.6,148.9-187.5c1.9-30.9-40.6-277.5-40.6-277.5l-224.3-142c0,0-200.8,13.5-229.9,21.3
				c-29.1,7.7-116,46.4-153.8,65.7c-37.8,19.3-55.1,32.9-55.1,32.9"/>
			<linearGradient id="SVGID_8_" gradientUnits="userSpaceOnUse" x1="289.7782" y1="124.6742" x2="147.3231" y2="-75.4155">
				<stop  offset="0" style="stop-color:#A2A2A2"/>
				<stop  offset="1" style="stop-color:#FFFFFF;stop-opacity:0"/>
			</linearGradient>
			<path class="st9" d="M25.2-6.7c0,0,44.9,52.7,150.1,82.6C280.5,105.9,309.8-87.4,309.8-87.4c-40.5-9.5-55.8,5.9-88.9,70.4
				C175.3,72.2,109.5,59.1,25.2-6.7"/>
			<linearGradient id="SVGID_9_" gradientUnits="userSpaceOnUse" x1="388.0926" y1="-36.7475" x2="13.0381" y2="175.5907">
				<stop  offset="0" style="stop-color:#00CCC2"/>
				<stop  offset="1" style="stop-color:#BB67F5"/>
			</linearGradient>
			<path class="st10" d="M-4.5-35C71.7,44.7,170.9,88,214.4,31.2C247.8-12.4,257.6-98,309.8-87.4c60.5,12.3-7.5,126.6,99,154.5
				l11,98.8L170.4,292L-20.5,110.6l-9.8-52.4"/>
		</g>
	</g>
	<g class="st1">
		<g>
			<defs>
				<path id="XMLID_64_" d="M-608.9,605.4c147.3,343.5,327.4,265.2,380,153.4C-176.3,647-84.3,651.3,11.4,629.1
					c122-28.4,184-176.7,64.3-274.3c-101.1-82.5-264.2-54.8-294.6-213.4c-47.7-248.4-305-286.5-390-112.6
					C-682.4,179-671.9,458.4-608.9,605.4z"/>
			</defs>
			
				<linearGradient id="XMLID_6_" gradientUnits="userSpaceOnUse" x1="1557.5844" y1="-1209.7454" x2="715.4019" y2="-732.9413" gradientTransform="matrix(0 -1 1 0 617.776 1454.6814)">
				<stop  offset="0" style="stop-color:#00CCC2"/>
				<stop  offset="1" style="stop-color:#161663"/>
			</linearGradient>
			<use xlink:href="#XMLID_64_"  style="overflow:visible;fill:url(#XMLID_6_);"/>
			<clipPath id="XMLID_7_">
				<use xlink:href="#XMLID_64_"  style="overflow:visible;"/>
			</clipPath>
			
				<linearGradient id="SVGID_10_" gradientUnits="userSpaceOnUse" x1="1468.1572" y1="-995.5132" x2="811.9028" y2="-758.2141" gradientTransform="matrix(0 -1 1 0 617.776 1454.6814)">
				<stop  offset="0" style="stop-color:#00CCC2"/>
				<stop  offset="1" style="stop-color:#161663"/>
			</linearGradient>
			<polygon class="st11" points="329.8,-213.5 329.8,981.4 -797.8,981.4 -797.8,-213.5 			"/>
			<linearGradient id="SVGID_11_" gradientUnits="userSpaceOnUse" x1="-84.4823" y1="448.9167" x2="-641.2472" y2="418.469">
				<stop  offset="0" style="stop-color:#FFFFFF"/>
				<stop  offset="1" style="stop-color:#FFFFFF;stop-opacity:0"/>
			</linearGradient>
			<path class="st12" d="M-546.9-71.4c-129,155.2-101.9,336.1-31.9,272.6c78.3-71,171.1,22.2,78.3,112.6s-75.4,194.5-17.4,239.7
				c91.4,71.3-50.7,234.9,168.2,353.8c218.9,118.9-318.9,129-318.9,129l-216.2-449.3l76.8-703.4l227.6-81.2"/>
			
				<linearGradient id="SVGID_12_" gradientUnits="userSpaceOnUse" x1="1197.5013" y1="-465.8199" x2="818.9129" y2="-828.0434" gradientTransform="matrix(0 -1 1 0 617.776 1454.6814)">
				<stop  offset="0" style="stop-color:#A2A2A2"/>
				<stop  offset="1" style="stop-color:#FFFFFF;stop-opacity:0"/>
			</linearGradient>
			<path class="st13" d="M-268,494.7c89.3,90.5,159.2-2.1,212.3-24c31.6-13.1,80.9-23.3,106.2,13.1c16.7,24,15.5,64.5-5.8,103.3
				l57.1-42.2l12-103.6c0,0-97.1-99.3-110.2-99.3c-13.1,0-152.4-5.5-152.4-5.5l-68,76.4l-20.7,38.2L-268,494.7z"/>
			
				<linearGradient id="SVGID_13_" gradientUnits="userSpaceOnUse" x1="-146.1975" y1="1327.1311" x2="214.2097" y2="864.256" gradientTransform="matrix(0 1 -1 0 847.0985 144.2137)">
				<stop  offset="0" style="stop-color:#A2A2A2"/>
				<stop  offset="1" style="stop-color:#FFFFFF;stop-opacity:0"/>
			</linearGradient>
			<path class="st14" d="M-382-68.3c69.5,39.1,112.3,135.2,89.3,253.8c-26.7,138-76.7,313.5,71.8,336.1c0,0,147.2-249.5,154-256.6
				c6.8-7.1,22.7-230.8,22.7-230.8l-143.1-152.6L-382-160.8l-65,28.3"/>
			
				<linearGradient id="SVGID_14_" gradientUnits="userSpaceOnUse" x1="1437.9752" y1="-725.7025" x2="1001.4006" y2="-567.8387" gradientTransform="matrix(0 -1 1 0 617.776 1454.6814)">
				<stop  offset="0" style="stop-color:#00CCC2"/>
				<stop  offset="1" style="stop-color:#161663"/>
			</linearGradient>
			<path class="st15" d="M-69,645c181.7-40.2,174-190.7,86.8-221.1c-92-32-177.5,149.2-270.7,84.3c-55.6-38.7-43.3-126.1-20.7-256.9
				C-260,172.8-228.3-4-382-68.3l68.6-74.8l432,117.8l222.6,346.9l-37.6,296.8L90.8,776.8L-69,645z"/>
		</g>
		<g>
			<linearGradient id="SVGID_15_" gradientUnits="userSpaceOnUse" x1="-322.977" y1="451.6257" x2="-203.9698" y2="308.5883">
				<stop  offset="0" style="stop-color:#FFFFFF"/>
				<stop  offset="1" style="stop-color:#FFFFFF;stop-opacity:0"/>
			</linearGradient>
			<path class="st16" d="M-252.8,508.3c-9.3-6.3-17.5-14.5-23.4-24.2c-6.1-9.6-10-20.4-12.7-31.4c-0.4-1.4-0.6-2.8-0.9-4.1l-0.8-4.2
				l-0.6-4.2c-0.2-1.4-0.4-2.8-0.6-4.2c-0.3-2.8-0.7-5.6-0.9-8.4c-0.2-2.8-0.4-5.6-0.5-8.5c-0.5-11.3-0.3-22.6,0.3-33.9
				c1.4-22.5,4.3-45,7.7-67.2c1.7-11.1,3.6-22.3,5.5-33.4c2-11.1,4-22.2,6.1-33.3l-5.2,33.4c-1.7,11.1-3.4,22.3-5,33.4
				c-1.5,11.2-3.1,22.3-4.3,33.5c-1.3,11.2-2.3,22.4-2.9,33.6c-0.7,11.2-1,22.5-0.5,33.7c0.5,11.2,1.6,22.4,4,33.4
				c2.5,10.9,6.1,21.7,12,31.2l1.1,1.8l0.5,0.9l0.6,0.9l2.4,3.4c0.8,1.2,1.8,2.2,2.6,3.3c0.9,1.1,1.8,2.2,2.8,3.2l2.9,3
				c1,1,2.1,1.9,3.1,2.8l1.6,1.4l1.7,1.3L-252.8,508.3z"/>
		</g>
	</g>
	<g>
		
			<image style="overflow:visible;opacity:0.2;" width="300" height="300" xlink:href="445D8CCCC75A1094.png"  transform="matrix(0.48 0 0 0.48 -140.2248 216.8058)">
		</image>
		<g>
			<linearGradient id="SVGID_16_" gradientUnits="userSpaceOnUse" x1="-121.5777" y1="357.8749" x2="-15.0901" y2="214.0466">
				<stop  offset="0" style="stop-color:#00CCC2"/>
				<stop  offset="1" style="stop-color:#161663"/>
			</linearGradient>
			<circle class="st17" cx="-68.1" cy="285.7" r="47.8"/>
		</g>
	</g>
	<g>
		
			<image style="overflow:visible;opacity:0.2;" width="239" height="239" xlink:href="445D8CCCC75A1095.png"  transform="matrix(0.48 0 0 0.48 570.1752 264.3258)">
		</image>
		<g>
			<linearGradient id="SVGID_17_" gradientUnits="userSpaceOnUse" x1="676.231" y1="267.3457" x2="588.8267" y2="359.1944">
				<stop  offset="0" style="stop-color:#2F64EB"/>
				<stop  offset="1" style="stop-color:#BB67F5"/>
			</linearGradient>
			<circle class="st18" cx="627.4" cy="318.7" r="33.2"/>
		</g>
	</g>
	<g>
		
			<image style="overflow:visible;opacity:0.2;" width="218" height="218" xlink:href="445D8CCCC75A1093.png"  transform="matrix(0.48 0 0 0.48 88.2552 156.8058)">
		</image>
		<g>
			<linearGradient id="SVGID_18_" gradientUnits="userSpaceOnUse" x1="106.8888" y1="234.4665" x2="173.6596" y2="178.4391">
				<stop  offset="0" style="stop-color:#00CCC2"/>
				<stop  offset="0.7707" style="stop-color:#BB67F5"/>
			</linearGradient>
			<circle class="st19" cx="140.7" cy="206.1" r="28.1"/>
		</g>
	</g>
	<g>
		
			<image style="overflow:visible;opacity:0.2;" width="390" height="390" xlink:href="445D8CCCC75A109C.png"  transform="matrix(0.48 0 0 0.48 -277.0248 580.1658)">
		</image>
		<g>
			<linearGradient id="SVGID_19_" gradientUnits="userSpaceOnUse" x1="-118.648" y1="582.9809" x2="-247.5321" y2="757.7892">
				<stop  offset="0" style="stop-color:#161663"/>
				<stop  offset="1" style="stop-color:#00CCC2"/>
			</linearGradient>
			<circle class="st20" cx="-183.3" cy="670.7" r="69.5"/>
		</g>
	</g>
	<g class="st21">
		
			<image style="overflow:visible;opacity:0.2;" width="309" height="309" xlink:href="445D8CCCC75A109F.png"  transform="matrix(0.48 0 0 0.48 576.4152 -17.9142)">
		</image>
		<g>
			<linearGradient id="SVGID_20_" gradientUnits="userSpaceOnUse" x1="607.4254" y1="89.551" x2="699.2456" y2="12.5047">
				<stop  offset="0" style="stop-color:#00CCC2"/>
				<stop  offset="1" style="stop-color:#BB67F5"/>
			</linearGradient>
			<circle class="st22" cx="650.5" cy="53.4" r="49.9"/>
		</g>
	</g>
	<g>
		
			<image style="overflow:visible;opacity:0.2;" width="473" height="473" xlink:href="445D8CCCC75A109D.png"  transform="matrix(0.48 0 0 0.48 -190.6248 -144.6342)">
		</image>
		<g>
			<linearGradient id="SVGID_21_" gradientUnits="userSpaceOnUse" x1="-182.5833" y1="54.2938" x2="32.1567" y2="-125.8944">
				<stop  offset="0" style="stop-color:#00CCC2"/>
				<stop  offset="1" style="stop-color:#BB67F5"/>
			</linearGradient>
			<circle class="st23" cx="-77.1" cy="-34.2" r="89.3"/>
		</g>
	</g>
	<g>
		
			<image style="overflow:visible;opacity:0.2;" width="400" height="400" xlink:href="445D8CCCC75A1092.png"  transform="matrix(0.48 0 0 0.48 618.6552 488.4858)">
		</image>
		<g>
			
				<linearGradient id="SVGID_22_" gradientUnits="userSpaceOnUse" x1="784.8132" y1="503.8434" x2="671.4827" y2="670.506" gradientTransform="matrix(0.9962 8.700000e-02 -8.700000e-02 0.9962 25.8894 -49.0543)">
				<stop  offset="0" style="stop-color:#2F64EB"/>
				<stop  offset="1" style="stop-color:#BB67F5"/>
			</linearGradient>
			<circle class="st24" cx="714.8" cy="581.3" r="71.8"/>
		</g>
	</g>
	<g>
		
			<image style="overflow:visible;opacity:0.2;" width="717" height="717" xlink:href="445D8CCCC75A1096.png"  transform="matrix(0.48 0 0 0.48 975.7752 229.7658)">
		</image>
		<g>
			<linearGradient id="SVGID_23_" gradientUnits="userSpaceOnUse" x1="984.0689" y1="552.8932" x2="1284.057" y2="270.6816">
				<stop  offset="0" style="stop-color:#BB67F5"/>
				<stop  offset="1" style="stop-color:#2F64EB"/>
			</linearGradient>
			<circle class="st25" cx="1147.9" cy="398.8" r="147.8"/>
		</g>
	</g>
</g>
<g id="DESIGNED_BY_FREEPIK">
</g>
</svg>
