<?xml version="1.0" encoding="utf-8"?>
<!-- Generator: Adobe Illustrator 24.1.3, SVG Export Plug-In . SVG Version: 6.00 Build 0)  -->
<svg version="1.1" id="Layer_1" xmlns="http://www.w3.org/2000/svg" xmlns:xlink="http://www.w3.org/1999/xlink" x="0px" y="0px"
	 viewBox="0 0 1080 1080" style="enable-background:new 0 0 1080 1080;" xml:space="preserve">
<style type="text/css">
	.st0{fill:#2465CC;}
	.st1{fill:#E6E6E6;}
	.st2{fill:#FFFFFF;}
	.st3{fill:#2870F2;}
	.st4{fill:#2F2E41;}
	.st5{fill:#FFB8B8;}
	.st6{fill:#3F3D56;}
	.st7{opacity:0.3;enable-background:new    ;}
	.st8{fill:#989898;}
	.st9{fill:#CD69FA;}
	.st10{fill:#00D6C9;}
	.st11{fill:#737373;}
	.st12{fill:#AA5DD3;}
	.st13{fill:#00B0A0;}
	.st14{fill:#18539B;}
	.st15{fill:#484848;}
	.st16{fill:#7F49A3;}
	.st17{fill:#007B6E;}
	.st18{fill:#0B3A66;}
	.st19{fill:#0F0F0F;}
	.st20{fill:#502E6B;}
	.st21{fill:#003E35;}
	.st22{fill:#D4E4FF;}
	.st23{fill:#FBFBFB;}
	.st24{fill:#E2C4FF;}
	.st25{fill:#D1FFFB;}
	.st26{fill:#A0C2F3;}
	.st27{fill:#D6D6D6;}
	.st28{fill:#DBB6F3;}
	.st29{fill:#A7FCEC;}
	.st30{fill:#6E9EF4;}
	.st31{fill:#B9B9BA;}
	.st32{fill:#D394F4;}
	.st33{fill:#4AECE0;}
	.st34{fill:none;stroke:#8A8A8A;stroke-width:2;stroke-miterlimit:10;}
	.st35{fill:#F2F2F2;}
	.st36{fill:#00D6C9;stroke:#000000;stroke-width:0.25;stroke-miterlimit:10;}
	.st37{fill:none;stroke:#3F3D56;stroke-width:2;stroke-miterlimit:10;}
	.st38{fill:#9F616A;}
	.st39{fill:#364A66;}
	.st40{fill:#6C63FF;}
	.st41{fill:#FFB9B9;}
	.st42{fill:#575A89;}
	.st43{opacity:0.1;enable-background:new    ;}
	.st44{fill:#493545;}
	.st45{fill:#C77485;}
	.st46{opacity:0.1;}
	.st47{fill:#CED2DF;}
	.st48{fill:#88455E;}
	.st49{fill:#EC8C9C;}
	.st50{fill:#EBF1F6;}
</style>
<path class="st35" d="M704.6,390.4L353.8,175.7L300.4,263c30.6,19.9,39.2,60.7,19.4,91.3c-19.1,29.4-57.9,38.7-88.3,21.3l-17.3,28.3
	h147.9v179.1l360.3,220.4l75.4-123.3h-93.2V390.4z"/>
<path class="st36" d="M539.1,550l64-73.2c19.7-20.1,19.3-52.4-0.8-72.1c-20.1-19.7-52.4-19.3-72.1,0.8
	c-20.1-19.7-52.4-19.3-72.1,0.8c-19.7,20.1-19.3,52.4,0.8,72.1l71.2,71.6"/>
<g>
	<rect x="18.7" y="403" class="st24" width="345.2" height="313"/>
	<g>
		<path d="M363.8,403.1v312.8h-345V403.1H363.8 M364.1,402.8H18.6v313.3h345.5V402.8L364.1,402.8z"/>
	</g>
</g>
<g>
	<rect x="706.7" y="366" class="st25" width="345.2" height="313"/>
	<g>
		<path d="M1051.8,366.1v312.8h-345V366.1H1051.8 M1052.1,365.8H706.6v313.3h345.5V365.8L1052.1,365.8z"/>
	</g>
</g>
<circle class="st36" cx="267.1" cy="320" r="43"/>
<path class="st37" d="M369.1,554c0,0,54-19,77,7s87-15,87-15"/>
<path class="st37" d="M808.1,561c0,0-10-24-78-2s-164,21-188-13l64-73.2c19.7-20.1,19.3-52.4-0.8-72.1
	c-20.1-19.7-52.4-19.3-72.1,0.8c-20.1-19.7-52.4-19.3-72.1,0.8s-19.3,52.4,0.8,72.1l71.2,71.6"/>
<circle class="st4" cx="220.2" cy="533.2" r="33.3"/>
<path class="st38" d="M204.3,550c0,0-10.8,24-13.9,24.8s25.5,14.7,25.5,14.7s5.4-29.4,7.7-30.9S204.3,550,204.3,550z"/>
<circle class="st38" cx="220.6" cy="545.4" r="22.4"/>
<path class="st4" d="M239.4,716.1H144c3.2-11.6,6.6-23.1,8.5-29.5c1-3.2,1.6-5.1,1.6-5.1s71.9,15.5,73.5,16.2c0.9,0.9,1.6,1.9,2.3,3
	C232.1,704.1,235.7,709.8,239.4,716.1z"/>
<path class="st38" d="M120.8,497.4l-23.2-35.6c0,0,5.7-37.3-2-30.4s-10.2,35.1-10.2,35.1l26.9,40.9L120.8,497.4z"/>
<path class="st38" d="M331.2,562.4l20.9-1.5c0,0,24.8-26.3,26.3-17.8s-20.1,27.1-20.1,27.1l-28.6,3.1L331.2,562.4z"/>
<path class="st6" d="M178.8,570.1v-7.7c0,0-20.1-13.2-19.3-15.5c0.8-2.3-1.5-3.9-1.5-3.9s-2.3-3.1-2.3-3.9s-3.1-1.5-3.1-1.5
	l-19.3-22.4c0,0-10.8-21.7-13.2-20.9s-14.7,5.4-13.2,8.5s44.9,69.6,44.9,69.6s2.3,14.7,6.2,14.7S178.8,570.1,178.8,570.1z"/>
<path class="st6" d="M230.6,579.4c0,0,17-0.8,17.8,0s11.6,0,11.6,0s29.4-7,31.7-9.3s41-12.4,42.5-7.7s5.4,13.9,1.5,15.5
	s-108.3,27.9-108.3,27.9L230.6,579.4z"/>
<g>
	<rect x="491.7" y="14.5" class="st23" width="296.1" height="266.4"/>
	<g>
		<path d="M787.8,14.6v266.2H491.9V14.6H787.8 M788,14.3H491.6V281H788V14.3L788,14.3z"/>
	</g>
</g>
<circle class="st4" cx="208.6" cy="498.2" r="13.8"/>
<path class="st4" d="M190.2,490.7c0-7,5.3-13,12.3-13.7c-0.5,0-1-0.1-1.4-0.1c-7.6,0-13.8,6.2-13.8,13.8c0,7.6,6.2,13.8,13.8,13.8
	c0,0,0,0,0,0c0.5,0,1,0,1.4-0.1C195.6,503.7,190.2,497.8,190.2,490.7z"/>
<ellipse class="st4" cx="224.1" cy="526.1" rx="22.9" ry="13.8"/>
<rect x="594" y="241" class="st39" width="83" height="41"/>
<g>
	<g>
		<path class="st6" d="M543,547c24.7-2.9,49.3-7.6,72.7-16.1c19.3-7,37.6-17.4,51.4-32.9c6.9-7.7,12.4-16.6,16.1-26.2
			c4-10.5,6-21.5,7.3-32.6c2.8-22.7,3-46.6,13.1-67.6c9.9-20.5,27.5-36.2,46.3-48.4c20.3-13.2,42.8-22.6,63.3-35.5
			c9.5-6,18.6-13,25.5-22c5.8-7.4,10-16,12.6-25.1c5.3-18.7,3.8-39.1-2.6-57.3c-6.2-17.8-17.6-34.4-32-46.6
			c-13-11-28.7-17.6-44.7-23.2c-4.7-1.7-9.5-3.3-14.3-4.9c-1.2-0.4-1.7,1.5-0.5,1.9c16.9,5.7,34.2,11.2,49.2,21
			c15.1,9.9,27.4,24.5,35.4,40.6c8.8,17.6,12.6,38,9.8,57.5c-1.4,9.7-4.5,19.1-9.5,27.5c-5.5,9.3-13.2,17-21.9,23.4
			c-9.1,6.7-19.1,12-29.1,17.2c-10.7,5.7-21.5,11.2-31.9,17.3c-18.9,11.1-36.9,24.4-49.6,42.5c-6.2,8.8-10.8,18.6-13.6,29
			c-2.9,10.6-4.3,21.6-5.4,32.5c-2.3,22-3.7,45-15.3,64.4c-10.5,17.6-27.3,30.7-45.6,39.5c-21.3,10.3-45.1,15.9-68.4,19.6
			c-6.1,1-12.2,1.8-18.3,2.5C541.7,545.1,541.7,547.1,543,547L543,547z"/>
	</g>
</g>
<path class="st6" d="M197.8,562c0,0-7,5.4-8.5,6.2s-10.8-7-12.4-7s-21.7,23.2-21.7,23.2s3.7,4.3,0,26.3c-1.4,8.2-4.2,43.5-4.2,48.2
	s-15.2,16-1.2,26.1s80.5,20.9,81.2,14.7s-7.7-22.4-3.9-30.2s3.9-36.4,3.9-36.4l4.6-30.2l3.9-24c0,0-18.2-5-19.7-5
	S211.3,584.8,197.8,562z"/>
<rect x="879.5" y="488.4" transform="matrix(0.9992 -3.874900e-02 3.874900e-02 0.9992 -18.6532 34.7596)" class="st40" width="15.8" height="20.4"/>
<path class="st41" d="M823.5,559.4c0,0-21.9-10.5-21.6-1.4c0.4,9,22.1,15,22.1,15L823.5,559.4z"/>
<path class="st4" d="M925.4,679.1h-104c2.2-10.2,6.3-22.5,9.5-31.3c2.6-7,4.5-11.9,4.5-11.9c11.8-13.3,29-13.7,45-10.4
	c1.9,0.4,3.8,0.8,5.7,1.3c0.2,0,0.4,0.1,0.7,0.2c3.8,1,7.4,2.1,10.9,3.2c6,1.9,11.3,3.9,15.7,5.2c2.2,0.7,4.4,1.2,6.7,1.6
	c0.5,0.1,1,0.1,1.5,0.1c1.7-0.1,2.9,1.8,3.7,5C927.1,649.4,926.7,663.8,925.4,679.1z"/>
<path class="st41" d="M904.9,469c0,0,12.1,18.8,16.8,23.1s-8.5,13.9-8.5,13.9l-23.7,3.2c0,0,0.3-21.5-0.9-23.7S904.9,469,904.9,469z
	"/>
<path class="st40" d="M884.4,493.6c0,0,4.9,8.9,9.4,8.7s27.9-10.1,28.9-13.6s7.7,24.6,7.7,24.6l-57.2,100.7l-14-9.7l6.8-59.2
	l5.6-31.9L884.4,493.6z"/>
<path class="st42" d="M924.8,583.8c-2.4,4.6-3.6,9.7-3.5,14.9c0,0.2,0,0.5,0,0.7c0.5,10.5,4.4,22.6,5.8,31.4c1,6.3,0.7,10.9-3,12
	c-9,2.6,1.3,4.5-33.4,16s-40.7,1.6-40.8-0.7s4.9-19.4,3.7-20.5s-16.4,14.2-21,12.1s-0.5-13.6-0.5-13.6s10.4-24.2,10.2-29.8
	s15.7-32.3,15.7-32.3l10.9-70.6c0,0,4.2-9.2,9.8-10.6c3.5-0.7,7.2-0.1,10.3,1.9l-9.4,20.7l-9.9,36.6l1.7,13.5
	c0,0,11.5-24.2,19.1-33.6c7.6-9.4,23.7-31.5,23.7-31.5s3.8-12.7,0.9-16.5c-2.8-3.8,11.9-4.4,18.1,11.2c3.3,8.3,8.7,20.6,12.1,32.1
	c3,10.2,4.4,19.7,1.5,25.1C942.1,560.7,930.6,571.6,924.8,583.8z"/>
<path class="st43" d="M946.7,552.3c-4.6,8.3-16,19.2-21.9,31.4c-1.5-5.5-3.4-11.2-3.4-11.2s-7.1-38.2,14-48.1c3.5-0.3,7,0.6,9.8,2.7
	C948.2,537.4,949.6,546.9,946.7,552.3z"/>
<path class="st42" d="M862.8,549.9l-17.9,5.2l-24.9,1l-2.6,21.6l40.9,2.9C858.3,580.7,868.5,552,862.8,549.9z"/>
<path class="st41" d="M892,622.6c0,0-24,4-18.5,11.2s26.7-0.4,26.7-0.4L892,622.6z"/>
<path class="st43" d="M921.3,599.3c0.5,10.5,4.4,22.6,5.8,31.4c-7.6,7.2-14.9,13.6-17.6,13.7c-5.7,0.2-14.7-0.6-18.1,0.7
	s-5.3-20.2-5.3-20.2s2-6.9,10.9-10.6C903,611.8,914.5,604.9,921.3,599.3z"/>
<path class="st42" d="M935.1,517.7c0,0,19.1-3,18.1,28.7c-1,31.7,2,52-5.7,58s-32.7,33-38.3,33.2s-14.7-0.6-18.1,0.7
	s-5.3-20.2-5.3-20.2s2-6.9,10.9-10.6s29.9-17,29.7-21.5s-5.3-20.2-5.3-20.2S914,527.6,935.1,517.7z"/>
<circle class="st41" cx="888" cy="471.9" r="24.9"/>
<path class="st4" d="M871.3,436.3c-0.6,0.5-1.3,0.9-2.1,1.1c-0.8,0.1-1.6-0.4-1.7-1.2c-0.4,1.2-1.3,2.3-2.4,3
	c-1.2,0.6-3,0.1-3.1-1.2c-0.2,1-0.6,1.9-1.3,2.7c-0.7,0.8-1.9,0.8-2.7,0.1c0.5,2.8,0.2,5.6,0.4,8.5s0.9,5.8,3,7.7
	c3.1,2.7,7.8,2,11.9,1.5c0.6-0.1,1.3-0.1,1.9,0.1c1.5,0.7,1.5,2.8,1.5,4.5c0.3,6,4.8,11,10.8,11.8c1.6,0.3,3.3-0.2,4.6-1.1
	c1.2-1,1.8-2.6,3.1-3.3c2.2-1.2,4.8,0.6,6.4,2.5s3.1,4.3,5.6,4.6c3.2,0.5,5.7-2.8,6.9-5.9c3.4-8.6,3.1-18.2-0.7-26.7
	C906.7,429.9,883.5,427.6,871.3,436.3z"/>
<g>
	<rect x="403.1" y="739.8" class="st22" width="285.8" height="259.2"/>
	<g>
		<path d="M688.8,739.9v258.9H403.2V739.9H688.8 M689.1,739.7H403v259.4h286.1V739.7L689.1,739.7z"/>
	</g>
</g>
<polygon class="st35" points="508.8,490.2 508.3,462.5 507.9,434.9 535.2,448.3 562.5,461.7 535.6,475.9 "/>
<rect x="525.8" y="835" class="st44" width="25.2" height="63.9"/>
<rect x="525.8" y="835" class="st43" width="25.2" height="63.9"/>
<g>
	<g>
		<path class="st6" d="M532.5,546.9c15.8,7,25.2,22.2,29.4,38.4c2.2,8.5,3.1,17.3,2.9,26c-0.1,5.1-0.5,10.3-2,15.3
			c-1.6,5.3-4.5,9.7-8.4,13.6c-3.9,3.9-8.4,7.1-12.8,10.4c-4.6,3.4-9.3,6.7-14.1,9.8c-9.1,5.9-18.5,11.3-28.1,16.4
			c-16.7,9-34.3,18.1-46.2,33.4c-6.6,8.4-10.8,18.3-13.5,28.6c-3,11.4-4.2,23.2-3.9,35c0.1,2.9,0.3,5.7,0.5,8.6c0.1,1.3,2.1,1.3,2,0
			c-1.2-12.1-0.6-24.4,1.7-36.3c2.2-10.9,5.7-21.7,12-31c11-16.3,28.8-26,45.7-35.1c9.5-5.1,19-10.3,28.1-16.1
			c4.9-3.1,9.7-6.4,14.4-9.8c4.5-3.2,8.9-6.5,13.1-10.1c4-3.5,7.5-7.5,9.7-12.3c2.2-4.9,3.1-10.2,3.5-15.5
			c0.6-8.8,0.1-17.8-1.7-26.5c-3.3-16.3-11.4-32.6-25.9-41.6c-1.8-1.1-3.6-2.1-5.5-2.9C532.3,544.6,531.3,546.3,532.5,546.9
			L532.5,546.9z"/>
	</g>
</g>
<path class="st44" d="M565.5,825.6c0.9,0.2,1.8,0.3,2.4,1.5c0.4,1,0.6,2,0.6,3l1.6,19.8c0,1.3,0.3,2.6,0.7,3.8
	c0.7,1.3,1.8,1.5,2.7,2.4c1.8,1.7,2.3,6.1,1.8,9.6s-1.7,6.6-2.6,9.8c-1.4,4.6-2.3,9.8-4.2,13.7s-5.4,6-7.6,2.7s-1.9-9.8-2.4-15.2
	c-0.7-9-4.2-16.8-4.5-25.8c-0.2-7.3,1.8-14.2,3-21.1c0.9-4.8,0.9-10.6,2.2-14.8C560.4,819.9,562.4,824.7,565.5,825.6z"/>
<path class="st43" d="M565.5,825.6c0.9,0.2,1.8,0.3,2.4,1.5c0.4,1,0.6,2,0.6,3l1.6,19.8c0,1.3,0.3,2.6,0.7,3.8
	c0.7,1.3,1.8,1.5,2.7,2.4c1.8,1.7,2.3,6.1,1.8,9.6s-1.7,6.6-2.6,9.8c-1.4,4.6-2.3,9.8-4.2,13.7s-5.4,6-7.6,2.7s-1.9-9.8-2.4-15.2
	c-0.7-9-4.2-16.8-4.5-25.8c-0.2-7.3,1.8-14.2,3-21.1c0.9-4.8,0.9-10.6,2.2-14.8C560.4,819.9,562.4,824.7,565.5,825.6z"/>
<path class="st45" d="M458.6,797.5l-9.8,8.2c0,0-1.2-1.4-2.9-3.6c-6.8-8.7-22.4-30.4-11.4-34.3c11-3.9,19.8,17.3,22.8,26.1
	C458.2,796.1,458.6,797.5,458.6,797.5z"/>
<path class="st45" d="M635,794.6c-4.1,6.1-9.8,0-9.8,0s-0.7-1.1-1.8-2.9c-3.3-5.7-9.9-18.2-5.6-23.2c5-5.7,17.4,13.7,17.8,22.8
	C635.8,792.5,635.6,793.7,635,794.6z"/>
<path class="st45" d="M534.8,860.6c0,0,8.2,26.1,5.7,33.8s17.5,16.7,17.5,16.7h22.8c0,0,8.2-16.7,6.1-21.6c-2-4.9-19.5-8.5-19.5-8.5
	s-10.2,0-9.8-27.3L534.8,860.6z"/>
<path class="st43" d="M458.6,797.5l-9.8,8.2c0,0-1.2-1.4-2.9-3.6c3.5-0.6,9.1-5.8,11.5-8.2C458.2,796.1,458.6,797.5,458.6,797.5z"/>
<path class="st43" d="M635,794.6c-4.1,6.1-9.8,0-9.8,0s-0.7-1.1-1.8-2.9l0.1-0.4c2.6,1.9,10.8,0.3,12.1,0
	C635.8,792.5,635.6,793.7,635,794.6z"/>
<g>
	<polygon points="585,999 525,999 527,990 584,993 	"/>
</g>
<path class="st43" d="M582.7,994.5c-12.6,5.8-53.5-4.5-56-5.1c1.6-1.9,3.5-3.5,5.6-4.9l50.1,2.4
	C582.4,989.4,582.5,991.9,582.7,994.5z"/>
<g>
	<path class="st28" d="M571.1,996.5c-16.6,0-41.5-6.1-44.2-6.8c8.2-6.9,3.7-42,3.5-43.5c-0.2-0.3-14.7-23-15-31.4
		c-0.4-8.5-32.5-49.6-33.8-51.4c-4.4-2.4-9.3-11.3-9.4-11.4l-26.7-46.6c0.2,0,0.4,0.1,0.7,0.1c4.3,0,12.2-8.3,13.3-9.5l23.9,41.9
		c2,7.2,31.8,36.7,33,37.9c9.3,8.5,16.9,9.8,20.5,9.8c1.7,0,2.8-0.3,3.1-0.4c1.1,1.4,18.7,24.2,32.3,24.2c1.9,0,3.7-0.5,5.3-1.4
		c2.6-1.5,3.9-3.4,4-5.7c0.2-8.5-16.8-19.5-18.9-20.9c0.8-0.4,4.5-2.1,17.3-5.2c12-2.9,21.8-24.6,26-33.9c1.1-2.4,1.9-4.1,2.2-4.5
		c1.6-1.6,14.4-40.3,15.5-43.5c0.9,0.5,2.3,0.8,4.4,0.8c3.2,0,7-0.7,7.7-0.9c1.5,9.4-8.9,44.7-9,45c0,5.2-5.6,13.3-5.7,13.4
		c-0.2,0.4-23.7,36.3-28.9,41.1c-5.3,4.9-3.3,14.7-3.3,14.8c9.2,17.7-4.3,33.9-4.5,34.1c-4.4,4.8-0.3,48.3,0,50.9
		C582,995.6,577.6,996.5,571.1,996.5z"/>
	<g>
		<path d="M635.6,794.5c1.3,9.6-8.9,44.5-9,44.8l0,0v0c0,5.2-5.6,13.2-5.7,13.3c-0.2,0.4-23.7,36.3-28.9,41.1
			c-2.2,2-3.5,5.3-3.7,9.3c-0.2,3.1,0.3,5.5,0.3,5.6l0,0l0,0c9.2,17.6-4.3,33.8-4.4,33.9c-4.4,4.8-0.4,47.7-0.1,51
			c-2.3,1.8-6.7,2.7-13.1,2.7c-16.2,0-40.3-5.8-44-6.7c8-7.3,3.6-42,3.4-43.5l0-0.1l0,0c-0.1-0.2-14.6-22.9-15-31.3
			c-0.4-8.5-32.5-49.7-33.9-51.5l0,0l0,0c-4.4-2.3-9.2-11.2-9.3-11.3l-26.6-46.3c0.1,0,0.3,0,0.4,0c4.2,0,11.8-7.8,13.3-9.4
			l23.8,41.7c2.1,7.4,31.8,36.7,33.1,38c4,3.7,12,9.8,20.6,9.8c1.6,0,2.7-0.2,3.1-0.3c0.7,0.9,5,6.5,10.8,12
			c8.4,8.1,15.7,12.2,21.6,12.2c2,0,3.8-0.5,5.4-1.4c2.6-1.5,4-3.5,4-5.8c0.2-8.4-16-19.1-18.7-20.8c1.1-0.5,5.1-2.2,17.1-5.1
			c12.1-2.9,21.9-24.7,26.1-33.9c1-2.3,1.9-4.1,2.2-4.4c1.6-1.6,14.1-39.3,15.4-43.4c0.9,0.5,2.4,0.8,4.3,0.8
			C631.1,795.4,634.7,794.7,635.6,794.5 M635.8,794.2c0,0-4.2,0.9-7.8,0.9c-1.8,0-3.5-0.2-4.4-0.9c0,0-13.8,42-15.5,43.6
			s-13,34.6-28.1,38.3c-15.1,3.7-17.5,5.3-17.5,5.3s29.3,18.3,15.1,26.5c-1.7,0.9-3.4,1.4-5.3,1.4c-14.1,0-32.2-24.2-32.2-24.2
			s-1.1,0.4-3.2,0.4c-4,0-11.3-1.4-20.4-9.7c0,0-31-30.6-33-37.9l-24-42c0,0-8.8,9.5-13.3,9.5c-0.3,0-0.6-0.1-0.9-0.2l26.9,46.8
			c0,0,4.9,9,9.4,11.4c0,0,33.4,42.8,33.8,51.3c0.4,8.6,15,31.5,15,31.5s4.9,37.1-3.7,43.6c0,0,26.8,6.9,44.5,6.9
			c5.9,0,10.8-0.8,13.3-2.8c0,0-4.5-46,0-50.9c0,0,13.8-16.3,4.5-34.2c0,0-2-9.8,3.3-14.7s28.9-41.1,28.9-41.1s5.7-8.1,5.7-13.4
			C626.8,839.4,637.4,803.6,635.8,794.2L635.8,794.2z"/>
	</g>
</g>
<path class="st43" d="M558.6,866.9c-0.5-3.8-0.7-7.7-0.6-11.6l-22.8,6.9c0.6,1.5,1.1,3.1,1.4,4.7c2.6,1.2,6.1,3.9,9.2,3.9
	C550.4,870.9,554.9,869.6,558.6,866.9z"/>
<circle class="st45" cx="545.4" cy="848.4" r="21.2"/>
<path class="st43" d="M520.2,815.8c-4.7,0.4-9.9,3.6-9.6,8.2c0.1,2.6,1.9,4.7,2.7,7.2c1.8,6-2.3,11.9-5.9,17
	c-3.6,5.1-7,11.8-3.9,17.2c0.9,1.3,1.8,2.5,2.9,3.7c3.8,5.2,3.8,12.2,5.5,18.4c4.5,16.5,21.1,26.6,37.8,23c-3-3.9-4.5-8.7-4.2-13.6
	c0.2-3.6,1.4-7.3,0-10.6c-1.8-4.2-7-5.9-9.7-9.6s-2.5-8.8-1.2-13.2c1.3-4.4,3.5-8.5,4.6-13c0.3-1.3,0.6-2.6,1-3.9
	c1.9-5.3,7.5-8.4,13-9.8c5.5-1.3,11.3-1.4,16.7-3.2s10.6-5.8,11.2-11.5c-4.5,1.8-8.7-2.9-13.1-5.1c-7.2-3.6-15.4-0.2-22.8,0.6
	C536.7,818.6,528.7,815.2,520.2,815.8z"/>
<path class="st44" d="M519.8,815c-4.7,0.4-9.9,3.6-9.6,8.2c0.1,2.6,1.9,4.7,2.7,7.2c1.8,6-2.3,11.9-5.9,17c-3.6,5.1-7,11.8-3.9,17.2
	c0.9,1.3,1.8,2.5,2.9,3.7c3.8,5.2,3.8,12.2,5.5,18.4c4.5,16.5,21.1,26.6,37.8,23c-3-3.9-4.5-8.7-4.2-13.6c0.2-3.6,1.4-7.3,0-10.6
	c-1.8-4.2-7-5.9-9.7-9.6s-2.5-8.8-1.2-13.2c1.3-4.4,3.5-8.5,4.6-13c0.3-1.3,0.6-2.6,1-3.9c1.9-5.3,7.5-8.4,13-9.8
	c5.5-1.3,11.3-1.4,16.7-3.2s10.6-5.8,11.2-11.5c-4.5,1.8-8.7-2.9-13.1-5.1c-7.2-3.6-15.4-0.2-22.8,0.6
	C536.3,817.8,528.4,814.3,519.8,815z"/>
<path class="st43" d="M566.4,895.5c0,0,8.5,7.6,10.2,10.9"/>
<path class="st43" d="M584.7,940.7c0,0-10.6,0-15.5,1.2c-4.9,1.2-16.7,0-16.7,0"/>
<g class="st46">
	<path d="M577.6,905.8c-0.9,0.5-1.9,0.9-2.9,1.1c2.7,0.6,5.4,0.2,7.8-1.1c14.3-8.2-15.1-26.5-15.1-26.5h-4.9
		C562.5,879.4,591.8,897.7,577.6,905.8z"/>
	<path d="M635.9,792.9c0-0.3-0.1-0.5-0.1-0.7c-1.7,0.3-3.4,0.6-5.1,0.8C632.5,793.2,634.2,793.2,635.9,792.9z"/>
	<path d="M531.5,987.7c8.5-6.5,3.7-43.6,3.7-43.6s-14.7-22.8-15.1-31.4s-33.8-51.3-33.8-51.3C481.9,859,477,850,477,850
		s-27.7-45.2-31.8-46.8l26.9,46.8c0,0,4.9,9,9.4,11.4c0,0,33.4,42.8,33.8,51.3c0.4,8.5,15.1,31.4,15.1,31.4s4.9,37.1-3.7,43.6
		c0,0,29.3,7.5,46.8,6.8C555.9,993.9,531.5,987.7,531.5,987.7z"/>
	<path d="M540.3,883.3l-0.2-0.3c-0.3,0.1-0.6,0.1-0.8,0.2C539.6,883.3,540,883.3,540.3,883.3z"/>
</g>
<g class="st46">
	<path d="M635.8,792.2l-0.2,0c-0.4,12.5-9.1,41.9-9.1,41.9c0,5.3-5.7,13.4-5.7,13.4s-23.6,36.2-28.9,41.1s-3.3,14.7-3.3,14.7l0,0.1
		c-0.2-3.3,0.2-8.4,3.6-11.5c5.3-4.9,28.9-41.1,28.9-41.1s5.7-8.2,5.7-13.4C626.8,837.4,637.4,801.6,635.8,792.2z"/>
	<path d="M584.1,937.6c0.6,3.5,0.2-0.2,0.4,3.3c0,0,10-11.7,7.3-26.2C592.6,927.6,584.1,937.6,584.1,937.6z"/>
</g>
<path class="st47" d="M531.8,154.7c0,0-19.4,1-16.7,21.4l5.4,0.7l8.2-8.8l4.1-7.5v-1.7L531.8,154.7z"/>
<path class="st43" d="M531.8,154.7c0,0-19.4,1-16.7,21.4l5.4,0.7l8.2-8.8l4.1-7.5v-1.7L531.8,154.7z"/>
<path class="st47" d="M747.5,162.2c0,0,16,8.5,11.9,18.4l-5.1,2l-6.8-3.7l-1-8.8l0.7-6.1L747.5,162.2z"/>
<path class="st43" d="M747.5,162.2c0,0,16,8.5,11.9,18.4l-5.1,2l-6.8-3.7l-1-8.8l0.7-6.1L747.5,162.2z"/>
<path class="st48" d="M631.2,74.4h13.6c11.6,0,21.1,9.4,21.1,21.1l0,0c0,11.6-9.4,21.1-21.1,21.1h-13.6c-11.6,0-21.1-9.4-21.1-21.1
	l0,0C610.1,83.9,619.5,74.4,631.2,74.4z"/>
<path class="st49" d="M531.7,157.6l-11.9,19l-1-3.4l-16.2-52.7c-0.6-1.8-0.5-3.7,0.2-5.5c4.1-9.9,18.5-43,23.7-27.5
	c6.1,18-10.5,37.4-10.5,37.4c1.9,15.8,10.8,27.2,14.2,31.1C531.2,157.1,531.7,157.6,531.7,157.6z"/>
<path class="st49" d="M745,165.8c0,0,18.7-17.7,18-24.8c0,0-17.7-28.6-8.8-35c7-5.1,17.6,20.7,21.8,31.7c1.1,3,0.8,6.3-0.7,9
	l-22.4,39.6L745,165.8z"/>
<path class="st49" d="M623.9,116.5c0,0,3.4,21.8-6.5,29.9s28.2,8.1,28.2,8.1l13.6-12.6c0,0-15.7-14.6-10.9-25.5L623.9,116.5z"/>
<path class="st43" d="M623.2,141.3c0,0,14.6,10.9,29.2-1.4l23.8,49.3l-1.4,60.2c0,0-49.3,25.5-69.7,9.9s-3.4-23.8-3.4-23.8
	l-4.8-46.3l5.1-29.9c0,0,9.2-14.3,9.9-14.3S623.2,141.3,623.2,141.3z"/>
<path class="st50" d="M623.2,140.6c0,0,14.6,10.9,29.3-1.4l23.8,49.3l-1.4,60.2c0,0-49.3,25.5-69.7,9.9s-3.4-23.8-3.4-23.8
	l-4.8-46.3l5.1-29.9c0,0,9.2-14.3,9.9-14.3S623.2,140.6,623.2,140.6z"/>
<path class="st43" d="M623.2,135.5c0,0-13.9,7.9-28.9,7.5c-2.9-0.1-5.6,1-7.7,2.9c-4.3,4.1-11.8,10.6-16.5,10.6
	c-1,0-29.9,5.8-29.9,5.8l-7.6-7.6c0,0-11.4,22.3-16.8,21.3l9.9,12.9c0,0,18.7,8.2,43.2-1.7h14.3l7.5,23.1c0,0-3.7,31.3-6.8,38.1
	s1,20.1,1,20.1l26.9-1c0,0,1.4-13.3,3.4-15s-7.1-60.2-7.1-60.2s-6.1-33,16.3-44.9L623.2,135.5z"/>
<path class="st43" d="M613.1,255.9c-1,4-1.7,8.1-2.1,12.3l-20.6,0.8c2.8-5.8,4.6-9.3,4.6-9.3L613.1,255.9z"/>
<path class="st43" d="M531.7,157.6l-11.9,19l-1-3.4c4.4-4.3,9.5-13.4,11.5-17.2C531.2,157.1,531.7,157.6,531.7,157.6z"/>
<path class="st47" d="M623.2,135.5c0,0-14.6,7.9-29.6,7.5c-2.9-0.1-5.6,1-7.7,2.9c-4.3,4.1-11.8,10.6-16.5,10.6
	c-1,0-29.9,5.8-29.9,5.8l-7.7-7.7c0,0-11.4,22.3-16.8,21.3l9.9,12.9c0,0,18.7,8.2,43.2-1.7h14.3l7.5,23.1c0,0-3.7,31.3-6.8,38.1
	s1,20.1,1,20.1l26.9-1c0,0,1.4-13.3,3.4-15s-7.1-60.2-7.1-60.2s-6.1-33,16.3-44.9L623.2,135.5z"/>
<path class="st43" d="M652.5,133.5c0,0,13.9,10.6,32.4,11.8c2,0.1,4,0.9,5.5,2.1c4.7,4,8.6,8.7,11.7,14
	c7.5,12.2,25.8,10.9,25.8,10.9s17.9-5.6,18.9-10c0,0,0.5,24,11.7,18.2l-14.8,17c-1.9,2.2-4.6,3.5-7.5,3.6
	c-5.5,0.2-15.2,0.3-23.3-1.3c-12.2-2.4-21.1-8.2-27.5-3.1c0,0-8.5,26.5-2.7,36.1s16,25.5,11.2,29.6s-10.5,3.7-20.1-6.1
	s-10.5-26.5-10.5-26.5l2.4-42.9c0,0-9.2-32.3-18-38.8L652.5,133.5z"/>
<path class="st43" d="M759.9,180.1l-14.8,17.1c-1,1.1-2.2,2-3.6,2.7l0,0c-1.2,0.5-2.5,0.9-3.9,0.9c-5.5,0.2-15.2,0.3-23.3-1.3
	c-11.5-2.2-19.9-7.4-26.3-3.9c-0.4,0.2-0.9,0.5-1.3,0.9c0,0-8.5,26.5-2.7,36.1s16,25.5,11.2,29.6c-0.8,0.7-1.7,1.3-2.7,1.7
	c-4.3,1.9-9.6,0.3-17.4-7.9c-9.5-9.9-10.5-26.5-10.5-26.5l2.4-42.9c0,0-9.2-32.3-18-38.8l3.9-14c2.7,1.8,16.1,10.4,32.6,11.5
	c2,0.1,4,0.9,5.5,2.1c4.7,4,8.6,8.7,11.7,14c7.5,12.2,25.8,10.9,25.8,10.9c4.4-1.4,8.7-3.1,12.9-5.1l0,0c2.6-1.3,4.9-2.7,6-4
	c0.3-0.3,0.5-0.8,0.7-1.2C748.2,162,748.7,185.8,759.9,180.1z"/>
<path class="st47" d="M759.3,180.4l-14.8,17.1c-0.8,0.9-1.8,1.7-2.9,2.3l0,0c-1.4,0.8-3,1.2-4.5,1.2c-5.5,0.2-15.2,0.3-23.3-1.3
	c-11-2.1-19.3-7.1-25.6-4.3c-0.7,0.3-1.4,0.7-2,1.2c0,0-8.5,26.5-2.7,36.1s16,25.5,11.2,29.6c-0.6,0.5-1.3,1-2,1.4
	c-4.4,2.4-9.8,1-18.1-7.5c-9.5-9.9-10.5-26.5-10.5-26.5l2.4-42.9c0,0-9.2-32.3-18-38.8l4.1-14.6l0.5,0.3
	c2.7,1.8,16.1,10.4,32.6,11.5c2,0.1,4,0.9,5.5,2.1c4.7,4,8.6,8.7,11.7,14c7.5,12.2,25.8,10.9,25.8,10.9c4.4-1.4,8.7-3.1,12.9-5.1
	l0,0c3.1-1.6,5.6-3.3,6-4.9c0,0,0,0.3,0,0.9C747.8,167.3,749.3,185.5,759.3,180.4z"/>
<path class="st43" d="M648.7,117h-25c0.5,4,0.7,8,0.5,12c7.8,5.5,17.9,6.2,26.4,1.9C648.2,126.4,646.7,121.4,648.7,117z"/>
<circle class="st49" cx="638.8" cy="108.3" r="24.8"/>
<path class="st43" d="M633.7,103.9c2.8-0.3,5.5-1.3,8.3-0.8c2.5,0.5,4.6,2.2,7.1,2.7c4.8,1,9.2-2.5,12.8-5.8l7.8-7.1
	c1.7-1.6,3.5-3.2,4.4-5.4s0.6-5-1.3-6.4c-2.8-2-7.8,0-9.8-2.8c-0.9-1.3-0.8-3-1.3-4.5c-1-3.1-4.4-4.7-7.7-4.8s-6.3,1.1-9.4,2
	c-6.5,1.9-13.3,2.5-20,1.9c-1.8-0.3-3.7-0.3-5.5,0.2c-2.2,1-3.9,2.9-4.4,5.3c-1.5,5.4,1.1,14.2,3.7,19.1S628.4,104.5,633.7,103.9z"
	/>
<path class="st48" d="M633.7,103.2c2.8-0.3,5.5-1.3,8.3-0.8c2.5,0.5,4.6,2.2,7.1,2.7c4.8,1,9.2-2.5,12.8-5.8l7.8-7.1
	c1.7-1.6,3.5-3.2,4.4-5.4s0.6-5-1.3-6.4c-2.8-2-7.8,0-9.8-2.8c-0.9-1.3-0.8-3-1.3-4.5c-1-3.1-4.4-4.7-7.7-4.8s-6.3,1.1-9.4,2
	c-6.5,1.9-13.3,2.5-20,1.9c-1.8-0.3-3.7-0.3-5.5,0.2c-2.2,1-3.9,2.9-4.4,5.3c-1.5,5.4,1.1,14.2,3.7,19.1S628.4,103.8,633.7,103.2z"
	/>
<path class="st43" d="M590.4,210.5c0,0,5.4,0.7,8.2,4.1s7.5,4.4,7.5,4.4"/>
<path class="st43" d="M541.4,165.6c0,0,4.4,9.9,1.7,10.9s-1.7,8.2-1.7,8.2"/>
<g class="st46">
	<path d="M542.9,162.2c0,0,28.9-5.8,29.9-5.8c4.7,0,12.2-6.5,16.5-10.6c1.3-1.2,2.9-2.1,4.7-2.6h-0.4c-2.9-0.1-5.6,1-7.7,2.9
		c-4.3,4.1-11.8,10.6-16.5,10.6c-0.8,0-19.3,3.7-26.8,5.2L542.9,162.2z"/>
	<path d="M623.2,136.9v-1.3c-7,3.5-14.4,5.9-22.2,7.1C608.7,142.1,616.2,140.1,623.2,136.9z"/>
	<path d="M587.5,268.3c0,0-4.1-13.3-1-20.1s6.8-38.1,6.8-38.1l-7.5-23.1h-14.3l-0.9,0.3h11.8l7.5,23.1c0,0-3.7,31.3-6.8,38.1
		s1,20.1,1,20.1l26.9-1v-0.2L587.5,268.3z"/>
</g>
<g class="st46">
	<path d="M695,256.9c-0.6,0.5-1.3,1-2,1.4c-4.4,2.4-9.8,1-18.1-7.5c-7.6-7.8-9.8-20-10.3-24.6l-0.2,3.5c0,0,1,16.7,10.5,26.5
		c8.2,8.5,13.7,9.9,18.1,7.5c0.7-0.4,1.4-0.9,2-1.4c1.4-1.2,1.5-3.5,0.8-6.4C695.6,256.3,695.3,256.7,695,256.9z"/>
	<path d="M754.5,180.9l-9.6,11.1c-0.8,0.9-1.8,1.7-2.9,2.3l0,0c-1.4,0.8-3,1.2-4.5,1.2c-5.5,0.2-15.2,0.3-23.3-1.3
		c-11-2.1-19.3-7.1-25.6-4.3c-0.7,0.3-1.4,0.7-2,1.2c0,0-5.5,17.1-4.7,28.8c0.7-10.9,4.7-23.4,4.7-23.4c0.6-0.5,1.3-0.9,2-1.2
		c6.3-2.8,14.5,2.1,25.6,4.3c8.1,1.6,17.8,1.5,23.3,1.3c1.6-0.1,3.1-0.5,4.5-1.2l0,0c1.1-0.6,2.1-1.4,2.9-2.3l14.8-17.1
		C758.1,181.4,756.2,181.6,754.5,180.9z"/>
</g>
</svg>
