<svg id="ez7vw63oqkzg1" xmlns="http://www.w3.org/2000/svg" xmlns:xlink="http://www.w3.org/1999/xlink" viewBox="-700 -700 3500.200000 1979.030000" shape-rendering="geometricPrecision" text-rendering="geometricPrecision"><rect id="ez7vw63oqkzg2" width="3500.200000" height="1999.027660" rx="0" ry="0" transform="matrix(1 0 0 1 -700.00000000499995 -705.72829777500044)" fill="rgb(30,20,45)" stroke="none" stroke-width="1"/><g id="ez7vw63oqkzg3" transform="matrix(1.34484169625609 0 0 1.38951448382439 -404.58057570000017 -560.50118206000047)"><g id="ez7vw63oqkzg4"><g id="ez7vw63oqkzg5"/><g id="ez7vw63oqkzg6"><g id="ez7vw63oqkzg7"><g id="ez7vw63oqkzg8"><path id="ez7vw63oqkzg9" d="M1553.500000,1122.100000L1553.500000,527.700000C1553.500000,512.200000,1541.700000,499.700000,1527.100000,499.700000L543.600000,499.700000C529,499.700000,517.200000,512.200000,517.200000,527.700000L517.200000,1122.100000L1553.500000,1122.100000Z" fill="rgb(234,234,234)" stroke="none" stroke-width="1"/><rect id="ez7vw63oqkzg10" width="960.100000" height="510.500000" rx="0" ry="0" transform="matrix(1 0 0 1 555.29999999999995 541.39999999999998)" fill="rgb(255,255,255)" stroke="none" stroke-width="1"/><path id="ez7vw63oqkzg11" d="M1709,1139.800000L361.700000,1139.800000C360.400000,1139.800000,359.300000,1138.700000,359.300000,1137.400000L359.300000,1124.100000C359.300000,1122.800000,360.400000,1121.700000,361.700000,1121.700000L1709,1121.700000C1710.300000,1121.700000,1711.400000,1122.800000,1711.400000,1124.100000L1711.400000,1137.400000C1711.400000,1138.700000,1710.300000,1139.800000,1709,1139.800000Z" fill="rgb(209,209,223)" stroke="none" stroke-width="1"/><polygon id="ez7vw63oqkzg12" points="1580.600000,1182.400000 1708.600000,1139.800000 362.100000,1139.800000 490,1182.400000" fill="rgb(234,234,234)" stroke="none" stroke-width="1"/><path id="ez7vw63oqkzg13" d="M1105,1133.300000L965.600000,1133.300000C964.200000,1133.300000,963,1132.100000,963,1130.700000L963,1121.700000L1107.600000,1121.700000L1107.600000,1130.700000C1107.600000,1132.100000,1106.500000,1133.300000,1105,1133.300000Z" fill="rgb(255,255,255)" stroke="none" stroke-width="1"/></g></g></g><rect id="ez7vw63oqkzg14" width="37.900000" height="575.800000" rx="0" ry="0" transform="matrix(1 0 0 1 544.34999999614297 517.60000000000002)" fill="rgb(36,15,51)" stroke="none" stroke-width="1" stroke-opacity="0"/><rect id="ez7vw63oqkzg15" width="956.259960" height="569" rx="0" ry="0" transform="matrix(1 0 0 1 575.34004028431184 524.39999999999998)" fill="rgb(36,15,51)" stroke="none" stroke-width="1"/><rect id="ez7vw63oqkzg16" width="716.950000" height="371.800000" rx="0" ry="0" transform="matrix(1 0 0 1 582.25000000000023 587.39662851862408)" fill="rgb(0,204,194)" stroke="none" stroke-width="1"/><rect id="ez7vw63oqkzg17" width="987.400000" height="60.100000" rx="0" ry="0" transform="matrix(1 0 0 1 544.39999999999952 517.59999999999991)" fill="rgb(36,15,51)" stroke="none" stroke-width="1"/><rect id="ez7vw63oqkzg18" width="200.300000" height="371.800000" rx="6.220000" ry="6.220000" transform="matrix(1 0 0 1 1315 589.70000000000005)" fill="rgb(52,26,71)" stroke="none" stroke-width="1"/><path id="ez7vw63oqkzg19" d="M1215.600000,1103.400000L1091.200000,1103.400000C1088,1103.400000,1085.300000,1100.800000,1085.300000,1097.500000L1085.300000,1042C1085.300000,1038.800000,1087.900000,1036.100000,1091.200000,1036.100000L1215.600000,1036.100000C1218.800000,1036.100000,1221.500000,1038.700000,1221.500000,1042L1221.500000,1097.500000C1221.500000,1100.800000,1218.900000,1103.400000,1215.600000,1103.400000Z" transform="matrix(1 0 0 1 -50 0)" fill="rgb(156,186,239)" stroke="none" stroke-width="1"/><path id="ez7vw63oqkzg20" d="M1070.200000,1104.700000L945.800000,1104.700000C942.600000,1104.700000,939.900000,1102.100000,939.900000,1098.800000L939.900000,1042C939.900000,1038.800000,942.500000,1036.100000,945.800000,1036.100000L1070.200000,1036.100000C1073.400000,1036.100000,1076.100000,1038.700000,1076.100000,1042L1076.100000,1098.800000C1076.100000,1102.100000,1073.400000,1104.700000,1070.200000,1104.700000Z" transform="matrix(1 0 0 1 -50 0)" fill="rgb(156,186,239)" stroke="none" stroke-width="1"/><path id="ez7vw63oqkzg21" d="M924.700000,1104.700000L800.300000,1104.700000C797.100000,1104.700000,794.400000,1102.100000,794.400000,1098.800000L794.400000,1042C794.400000,1038.800000,797,1036.100000,800.300000,1036.100000L924.700000,1036.100000C927.900000,1036.100000,930.600000,1038.700000,930.600000,1042L930.600000,1098.800000C930.600000,1102.100000,928,1104.700000,924.700000,1104.700000Z" transform="matrix(1 0 0 1 527.57567223254989 -0.74837918797741)" opacity="0" fill="rgb(156,186,239)" stroke="none" stroke-width="1"/><path id="ez7vw63oqkzg22" d="M924.700000,1104.700000L800.300000,1104.700000C797.100000,1104.700000,794.400000,1102.100000,794.400000,1098.800000L794.400000,1042C794.400000,1038.800000,797,1036.100000,800.300000,1036.100000L924.700000,1036.100000C927.900000,1036.100000,930.600000,1038.700000,930.600000,1042L930.600000,1098.800000C930.600000,1102.100000,928,1104.700000,924.700000,1104.700000Z" transform="matrix(1 0 0 1 -50.20444541000006 0)" fill="rgb(156,186,239)" stroke="none" stroke-width="1"/><path id="ez7vw63oqkzg23" d="M778.200000,1104.700000L653.800000,1104.700000C650.600000,1104.700000,647.900000,1102.100000,647.900000,1098.800000L647.900000,1042C647.900000,1038.800000,650.500000,1036.100000,653.800000,1036.100000L778.200000,1036.100000C781.400000,1036.100000,784.100000,1038.700000,784.100000,1042L784.100000,1098.800000C784.100000,1102.100000,781.500000,1104.700000,778.200000,1104.700000Z" transform="matrix(1 0 0 1 530.55000000000052 -0.74837918797741)" fill="rgb(156,186,239)" stroke="none" stroke-width="1"/><path id="ez7vw63oqkzg24" d="M778.200000,1104.700000L653.800000,1104.700000C650.600000,1104.700000,647.900000,1102.100000,647.900000,1098.800000L647.900000,1042C647.900000,1038.800000,650.500000,1036.100000,653.800000,1036.100000L778.200000,1036.100000C781.400000,1036.100000,784.100000,1038.700000,784.100000,1042L784.100000,1098.800000C784.100000,1102.100000,781.500000,1104.700000,778.200000,1104.700000Z" transform="matrix(1 0 0 1 -50.20444541000006 0)" fill="rgb(156,186,239)" stroke="none" stroke-width="1"/><rect id="ez7vw63oqkzg25" width="139.635504" height="6.400000" rx="0" ry="0" transform="matrix(1 0 0 1 952.09659799999997 529.75111299999878)" fill="rgb(47,100,235)" stroke="none" stroke-width="1"/><rect id="ez7vw63oqkzg26" width="55.903402" height="6.400000" rx="0" ry="0" transform="matrix(1 0 0 1 1449.64659800000004 558.39999999999975)" fill="rgb(255,255,255)" stroke="none" stroke-width="1"/><g id="ez7vw63oqkzg27" transform="matrix(1 0 0 1 6.49807099999998 -47.92701415999943)"><rect id="ez7vw63oqkzg28" width="19.500000" height="6.400000" rx="0" ry="0" transform="matrix(1 0 0 1 1319.50000000000000 860.52364268000031)" fill="rgb(255,255,255)" stroke="none" stroke-width="1"/><rect id="ez7vw63oqkzg29" width="112.400000" height="6.400000" rx="0" ry="0" transform="matrix(1 0 0 1 1348 798.70337433000066)" fill="rgb(255,255,255)" stroke="none" stroke-width="1"/><rect id="ez7vw63oqkzg30" width="112.400000" height="6.400000" rx="0" ry="0" transform="matrix(1 0 0 1 1346.95000000000005 944.52701701000103)" fill="rgb(255,255,255)" stroke="none" stroke-width="1"/><rect id="ez7vw63oqkzg31" width="112.400000" height="6.400000" rx="0" ry="0" transform="matrix(1 0 0 1 1348 777.50337433000072)" fill="rgb(255,255,255)" stroke="none" stroke-width="1"/><rect id="ez7vw63oqkzg32" width="112.400000" height="6.400000" rx="0" ry="0" transform="matrix(1 0 0 1 1346.95000000000005 923.22701701000096)" fill="rgb(255,255,255)" stroke="none" stroke-width="1"/><rect id="ez7vw63oqkzg33" width="112.400000" height="6.400000" rx="0" ry="0" transform="matrix(1 0 0 1 1346.95000000000005 902.02701701000103)" fill="rgb(255,255,255)" stroke="none" stroke-width="1"/><rect id="ez7vw63oqkzg34" width="112.400000" height="6.400000" rx="0" ry="0" transform="matrix(1 0 0 1 1348 756.20337433000066)" fill="rgb(255,255,255)" stroke="none" stroke-width="1"/><rect id="ez7vw63oqkzg35" width="112.400000" height="6.400000" rx="0" ry="0" transform="matrix(1 0 0 1 1348 735.00337433000072)" fill="rgb(255,255,255)" stroke="none" stroke-width="1"/><rect id="ez7vw63oqkzg36" width="19.500000" height="6.400000" rx="0" ry="0" transform="matrix(1 0 0 1 1319.50000000000000 798.70337433000066)" fill="rgb(255,255,255)" stroke="none" stroke-width="1"/><rect id="ez7vw63oqkzg37" width="19.500000" height="6.400000" rx="0" ry="0" transform="matrix(1 0 0 1 1318.45000000000005 944.52701701000103)" fill="rgb(255,255,255)" stroke="none" stroke-width="1"/><rect id="ez7vw63oqkzg38" width="19.500000" height="6.400000" rx="0" ry="0" transform="matrix(1 0 0 1 1319.50000000000000 777.50337433000072)" fill="rgb(255,255,255)" stroke="none" stroke-width="1"/><rect id="ez7vw63oqkzg39" width="19.500000" height="6.400000" rx="0" ry="0" transform="matrix(1 0 0 1 1318.45000000000005 923.22701701000096)" fill="rgb(234,234,234)" stroke="none" stroke-width="1"/><rect id="ez7vw63oqkzg40" width="19.500000" height="6.400000" rx="0" ry="0" transform="matrix(1 0 0 1 1319.50000000000000 756.20337433000066)" fill="rgb(234,234,234)" stroke="none" stroke-width="1"/><rect id="ez7vw63oqkzg41" width="19.500000" height="6.400000" rx="0" ry="0" transform="matrix(1 0 0 1 1319.20000000000005 902.02701701000103)" fill="rgb(255,255,255)" stroke="none" stroke-width="1"/><rect id="ez7vw63oqkzg42" width="19.500000" height="6.400000" rx="0" ry="0" transform="matrix(1 0 0 1 1320.25000000000000 735.00337433000072)" fill="rgb(255,255,255)" stroke="none" stroke-width="1"/><rect id="ez7vw63oqkzg43" width="112.400000" height="6.400000" rx="0" ry="0" transform="matrix(1 0 0 1 1348 881.82364268000026)" fill="rgb(255,255,255)" stroke="none" stroke-width="1"/><rect id="ez7vw63oqkzg44" width="112.400000" height="6.400000" rx="0" ry="0" transform="matrix(1 0 0 1 1349.04999999999995 714.79999999999995)" fill="rgb(255,255,255)" stroke="none" stroke-width="1"/><rect id="ez7vw63oqkzg45" width="112.400000" height="6.400000" rx="0" ry="0" transform="matrix(1 0 0 1 1348 860.52364268000031)" fill="rgb(255,255,255)" stroke="none" stroke-width="1"/><rect id="ez7vw63oqkzg46" width="112.400000" height="6.400000" rx="0" ry="0" transform="matrix(1 0 0 1 1349.04999999999995 693.50000000000000)" fill="rgb(255,255,255)" stroke="none" stroke-width="1"/><rect id="ez7vw63oqkzg47" width="112.400000" height="6.400000" rx="0" ry="0" transform="matrix(1 0 0 1 1348 839.32364268000026)" fill="rgb(255,255,255)" stroke="none" stroke-width="1"/><rect id="ez7vw63oqkzg48" width="112.400000" height="6.400000" rx="0" ry="0" transform="matrix(1 0 0 1 1349.04999999999995 672.29999999999995)" fill="rgb(255,255,255)" stroke="none" stroke-width="1"/><rect id="ez7vw63oqkzg49" width="112.400000" height="6.400000" rx="0" ry="0" transform="matrix(1 0 0 1 1348 818.02364268000031)" fill="rgb(255,255,255)" stroke="none" stroke-width="1"/><rect id="ez7vw63oqkzg50" width="112.400000" height="6.400000" rx="0" ry="0" transform="matrix(1 0 0 1 1349.04999999999995 651)" fill="rgb(255,255,255)" stroke="none" stroke-width="1"/><rect id="ez7vw63oqkzg51" width="19.500000" height="6.400000" rx="0" ry="0" transform="matrix(1 0 0 1 1319.50000000000000 881.82364268000026)" fill="rgb(255,255,255)" stroke="none" stroke-width="1"/><rect id="ez7vw63oqkzg52" width="19.500000" height="6.400000" rx="0" ry="0" transform="matrix(1 0 0 1 1320.54999999999995 714.79999999999995)" fill="rgb(255,255,255)" stroke="none" stroke-width="1"/><rect id="ez7vw63oqkzg53" width="19.500000" height="6.400000" rx="0" ry="0" transform="matrix(1 0 0 1 1320.54999999999995 693.50000000000000)" fill="rgb(255,255,255)" stroke="none" stroke-width="1"/><rect id="ez7vw63oqkzg54" width="19.500000" height="6.400000" rx="0" ry="0" transform="matrix(1 0 0 1 1319.50000000000000 839.32364268000026)" fill="rgb(255,255,255)" stroke="none" stroke-width="1"/><rect id="ez7vw63oqkzg55" width="19.500000" height="6.400000" rx="0" ry="0" transform="matrix(1 0 0 1 1320.54999999999995 672.29999999999995)" fill="rgb(255,255,255)" stroke="none" stroke-width="1"/><rect id="ez7vw63oqkzg56" width="19.500000" height="6.400000" rx="0" ry="0" transform="matrix(1 0 0 1 1319.50000000000000 818.02364268000031)" fill="rgb(255,255,255)" stroke="none" stroke-width="1"/><rect id="ez7vw63oqkzg57" width="19.500000" height="6.400000" rx="0" ry="0" transform="matrix(1 0 0 1 1320.54999999999995 651)" fill="rgb(255,255,255)" stroke="none" stroke-width="1"/></g><rect id="ez7vw63oqkzg58" width="43.100000" height="6.400000" rx="0" ry="0" transform="matrix(1 0 0 1 1401.29999999999995 587.29999999999995)" fill="rgb(170,170,170)" stroke="none" stroke-width="1"/><rect id="ez7vw63oqkzg59" width="129.500000" height="6.400000" rx="0" ry="0" transform="matrix(1 0 0 1 601.09555458999989 1005.10000000000002)" fill="rgb(255,255,255)" stroke="none" stroke-width="1"/><rect id="ez7vw63oqkzg60" width="147.400000" height="15.300000" rx="0" ry="0" transform="matrix(1 0 0 1 597.69555458999992 976.20000000000005)" fill="rgb(255,255,255)" stroke="none" stroke-width="1"/><rect id="ez7vw63oqkzg61" width="175.500000" height="26.600000" rx="0" ry="0" transform="matrix(1 0 0 1 1323.99807099999998 922.90000000000100)" fill="none" stroke="rgb(255,255,255)" stroke-width="1" stroke-miterlimit="10"/><rect id="ez7vw63oqkzg62" width="1009.100000" height="28.300000" rx="0" ry="0" transform="matrix(1 0 0 1 544.39999999999998 1093.40000000000009)" fill="rgb(234,234,234)" stroke="none" stroke-width="1"/><path id="ez7vw63oqkzg63" d="M1294.600000,983.800000L1224,983.800000C1221,983.800000,1218.600000,981.400000,1218.600000,978.400000L1218.600000,971.100000C1218.600000,968.100000,1221,965.700000,1224,965.700000L1294.600000,965.700000C1297.600000,965.700000,1300,968.100000,1300,971.100000L1300,978.400000C1300,981.400000,1297.600000,983.800000,1294.600000,983.800000Z" transform="matrix(1 0 0 1 0 16)" fill="rgb(255,255,255)" stroke="none" stroke-width="1"/><rect id="ez7vw63oqkzg64" width="21.900000" height="366.200000" rx="0" ry="0" transform="matrix(1 0 0 1 1531.59999999999991 738.50000000000000)" fill="rgb(234,234,234)" stroke="none" stroke-width="1"/><rect id="ez7vw63oqkzg65" width="86.493432" height="21" rx="6.220000" ry="6.220000" transform="matrix(1 0 0 1 1336.79807099652339 546.03471238973907)" fill="none" stroke="rgb(84,131,204)" stroke-width="2"/><rect id="ez7vw63oqkzg66" width="22.529796" height="21" rx="6.220000" ry="6.220000" transform="matrix(1 0 0 1 582.19999999999982 547.65000000000032)" fill="rgb(255,255,255)" stroke="none" stroke-width="1"/><rect id="ez7vw63oqkzg67" width="683.300000" height="21" rx="6.220000" ry="6.220000" transform="matrix(1 0 0 1 616.69999999999982 547.65000000000236)" fill="rgb(255,255,255)" stroke="none" stroke-width="1"/></g></g><g id="ez7vw63oqkzg68" transform="matrix(1 0 0 1 553.71365232000051 301.45212974000009)" opacity="0"><rect id="ez7vw63oqkzg69" width="917.854458" height="496.661562" rx="0" ry="0" transform="matrix(1 0 0 1 -125.74678287499995 -71.80590056500029)" fill="rgb(36,15,51)" stroke="none" stroke-width="1"/></g><g id="ez7vw63oqkzg70" transform="matrix(1 0 0 1 448.34016269500103 163.88855458500004)" opacity="0"><line id="ez7vw63oqkzg71" x1="50" y1="20.600000" x2="50" y2="33.480000" transform="matrix(1 0 0 1 -0.00000190500003 0.85340489000001)" fill="none" stroke="rgb(2,186,185)" stroke-width="4" stroke-linecap="round" stroke-miterlimit="10"/><line id="ez7vw63oqkzg72" x1="20.800000" y1="41.820000" x2="33.040000" y2="45.800000" fill="none" stroke="rgb(2,186,185)" stroke-width="4" stroke-linecap="round" stroke-miterlimit="10"/><line id="ez7vw63oqkzg73" x1="31.950000" y1="76.150000" x2="39.520000" y2="65.730000" fill="none" stroke="rgb(2,186,185)" stroke-width="4" stroke-linecap="round" stroke-miterlimit="10"/><line id="ez7vw63oqkzg74" x1="68.050000" y1="76.150000" x2="60.480000" y2="65.730000" fill="none" stroke="rgb(2,186,185)" stroke-width="4" stroke-linecap="round" stroke-miterlimit="10"/><line id="ez7vw63oqkzg75" x1="79.200000" y1="41.820000" x2="66.960000" y2="45.800000" fill="none" stroke="rgb(2,186,185)" stroke-width="4" stroke-linecap="round" stroke-miterlimit="10"/></g><g id="ez7vw63oqkzg76" transform="matrix(1 0 0 1 1247.84610281500136 420.30212647499997)" opacity="0"/><g id="ez7vw63oqkzg77" transform="matrix(1 0 0 1 1260.08610357999805 292.32712800500002)" opacity="0"><line id="ez7vw63oqkzg78" x1="50" y1="20.600000" x2="50" y2="33.480000" fill="none" stroke="rgb(2,186,185)" stroke-width="4" stroke-linecap="round" stroke-miterlimit="10"/><line id="ez7vw63oqkzg79" x1="20.800000" y1="41.820000" x2="33.040000" y2="45.800000" fill="none" stroke="rgb(2,186,185)" stroke-width="4" stroke-linecap="round" stroke-miterlimit="10"/><line id="ez7vw63oqkzg80" x1="31.950000" y1="76.150000" x2="39.520000" y2="65.730000" fill="none" stroke="rgb(2,186,185)" stroke-width="4" stroke-linecap="round" stroke-miterlimit="10"/><line id="ez7vw63oqkzg81" x1="68.050000" y1="76.150000" x2="60.480000" y2="65.730000" fill="none" stroke="rgb(2,186,185)" stroke-width="4" stroke-linecap="round" stroke-miterlimit="10"/><line id="ez7vw63oqkzg82" x1="79.200000" y1="41.820000" x2="66.960000" y2="45.800000" fill="none" stroke="rgb(2,186,185)" stroke-width="4" stroke-linecap="round" stroke-miterlimit="10"/></g><g id="ez7vw63oqkzg83" opacity="0"><rect id="ez7vw63oqkzg84" width="919.962155" height="99.501203" rx="0" ry="0" transform="matrix(1 0 0 1 425.85917173499945 435.64942239000027)" opacity="0" fill="rgb(52,26,71)" stroke="none" stroke-width="1"/><rect id="ez7vw63oqkzg85" width="919.962155" height="99.501203" rx="0" ry="0" transform="matrix(1 0 0 1 425.85917173499945 348.42472483000000)" opacity="0" fill="rgb(52,26,71)" stroke="none" stroke-width="1"/><rect id="ez7vw63oqkzg86" width="919.962155" height="107.154057" rx="0" ry="0" transform="matrix(1 0 0 1 424.75147400499941 250.90307072000002)" opacity="0" fill="rgb(52,26,71)" stroke="none" stroke-width="1"/><rect id="ez7vw63oqkzg87" width="119.727533" height="8.892893" rx="6.220000" ry="6.220000" transform="matrix(1 0 0 1 542.10009375499658 672.18349903499973)" fill="rgb(255,255,255)" stroke="none" stroke-width="1"/><rect id="ez7vw63oqkzg88" width="200.538679" height="7.531234" rx="6.220000" ry="6.220000" transform="matrix(1 0 0 1 542.10009375999641 658.47818872499965)" fill="rgb(255,255,255)" stroke="none" stroke-width="1"/><rect id="ez7vw63oqkzg89" width="90.545371" height="4.446446" rx="6.220000" ry="6.220000" transform="matrix(1 0 0 1 542.10009375999721 644.53504765999980)" fill="rgb(255,255,255)" stroke="none" stroke-width="1"/><rect id="ez7vw63oqkzg90" width="318.445535" height="8.892893" rx="6.220000" ry="6.220000" transform="matrix(1 0 0 1 542.10009376999722 630.40530746000002)" fill="rgb(255,255,255)" stroke="none" stroke-width="1"/><rect id="ez7vw63oqkzg91" width="71.709391" height="67.075208" rx="6.220000" ry="6.220000" transform="matrix(1 0 0 1 454.95435183999808 622.20324570999935)" fill="rgb(84,131,204)" stroke="none" stroke-width="1"/><rect id="ez7vw63oqkzg92" width="71.709391" height="67.075208" rx="6.220000" ry="6.220000" transform="matrix(1 0 0 1 455.02159392999812 539.52244524499963)" fill="rgb(84,131,204)" stroke="none" stroke-width="1"/><rect id="ez7vw63oqkzg93" width="119.727533" height="8.892893" rx="6.220000" ry="6.220000" transform="matrix(1 0 0 1 542.10009378999769 593.76381493499991)" fill="rgb(255,255,255)" stroke="none" stroke-width="1"/><g id="ez7vw63oqkzg94" transform="matrix(1 0 0 1 919.73245408500077 424.17129293499988)" opacity="0"><line id="ez7vw63oqkzg95" x1="50" y1="20.600000" x2="50" y2="33.480000" transform="matrix(1 0 0 1 -0.00000190500003 0.85340489000001)" fill="none" stroke="rgb(2,186,185)" stroke-width="4" stroke-linecap="round" stroke-miterlimit="10"/><line id="ez7vw63oqkzg96" x1="20.800000" y1="41.820000" x2="33.040000" y2="45.800000" fill="none" stroke="rgb(2,186,185)" stroke-width="4" stroke-linecap="round" stroke-miterlimit="10"/><line id="ez7vw63oqkzg97" x1="31.950000" y1="76.150000" x2="39.520000" y2="65.730000" fill="none" stroke="rgb(2,186,185)" stroke-width="4" stroke-linecap="round" stroke-miterlimit="10"/><line id="ez7vw63oqkzg98" x1="68.050000" y1="76.150000" x2="60.480000" y2="65.730000" fill="none" stroke="rgb(2,186,185)" stroke-width="4" stroke-linecap="round" stroke-miterlimit="10"/><line id="ez7vw63oqkzg99" x1="79.200000" y1="41.820000" x2="66.960000" y2="45.800000" fill="none" stroke="rgb(2,186,185)" stroke-width="4" stroke-linecap="round" stroke-miterlimit="10"/></g><rect id="ez7vw63oqkzg100" width="200.538679" height="7.531234" rx="6.220000" ry="6.220000" transform="matrix(1 0 0 1 542.10009379499752 580.05850462499984)" fill="rgb(255,255,255)" stroke="none" stroke-width="1"/><rect id="ez7vw63oqkzg101" width="90.545371" height="4.446446" rx="6.220000" ry="6.220000" transform="matrix(1 0 0 1 542.10009379499832 566.11536355999999)" fill="rgb(255,255,255)" stroke="none" stroke-width="1"/><rect id="ez7vw63oqkzg102" width="318.445535" height="8.892893" rx="6.220000" ry="6.220000" transform="matrix(1 0 0 1 542.10009380499832 551.98562336000020)" fill="rgb(255,255,255)" stroke="none" stroke-width="1"/><rect id="ez7vw63oqkzg103" width="71.709391" height="67.075208" rx="6.220000" ry="6.220000" transform="matrix(1 0 0 1 455.02159392999812 453.78212648499976)" fill="rgb(84,131,204)" stroke="none" stroke-width="1"/><rect id="ez7vw63oqkzg104" width="119.727533" height="8.892893" rx="6.220000" ry="6.220000" transform="matrix(1 0 0 1 542.10009379999769 500.62144680999990)" fill="rgb(255,255,255)" stroke="none" stroke-width="1"/><rect id="ez7vw63oqkzg105" width="200.538679" height="7.531234" rx="6.220000" ry="6.220000" transform="matrix(1 0 0 1 542.10009380499764 485.40002398499990)" fill="rgb(255,255,255)" stroke="none" stroke-width="1"/><rect id="ez7vw63oqkzg106" width="90.545371" height="4.446446" rx="6.220000" ry="6.220000" transform="matrix(1 0 0 1 542.10009379499843 472.97299542999997)" fill="rgb(255,255,255)" stroke="none" stroke-width="1"/><rect id="ez7vw63oqkzg107" width="318.445535" height="8.892893" rx="6.220000" ry="6.220000" transform="matrix(1 0 0 1 542.10009379999838 458.88815295000018)" fill="rgb(255,255,255)" stroke="none" stroke-width="1"/><rect id="ez7vw63oqkzg108" width="71.709391" height="67.075208" rx="6.220000" ry="6.220000" transform="matrix(1 0 0 1 456.66709021999799 361.03031753000005)" fill="rgb(84,131,204)" stroke="none" stroke-width="1"/><rect id="ez7vw63oqkzg109" width="119.727533" height="8.892893" rx="6.220000" ry="6.220000" transform="matrix(1 0 0 1 542.10009377999768 412.35312855999990)" fill="rgb(255,255,255)" stroke="none" stroke-width="1"/><rect id="ez7vw63oqkzg110" width="200.538679" height="7.531234" rx="6.220000" ry="6.220000" transform="matrix(1 0 0 1 542.10009379499752 398.64781824499988)" fill="rgb(255,255,255)" stroke="none" stroke-width="1"/><rect id="ez7vw63oqkzg111" width="90.545371" height="4.446446" rx="6.220000" ry="6.220000" transform="matrix(1 0 0 1 542.10009379499832 384.70467717999998)" fill="rgb(255,255,255)" stroke="none" stroke-width="1"/><rect id="ez7vw63oqkzg112" width="318.445535" height="8.892893" rx="6.220000" ry="6.220000" transform="matrix(1 0 0 1 542.10009379499832 370.57493698000019)" fill="rgb(255,255,255)" stroke="none" stroke-width="1"/><rect id="ez7vw63oqkzg113" width="119.727533" height="8.892893" rx="6.220000" ry="6.220000" transform="matrix(1 0 0 1 542.10009378999769 319.21076042999994)" fill="rgb(255,255,255)" stroke="none" stroke-width="1"/><rect id="ez7vw63oqkzg114" width="200.538679" height="7.531234" rx="6.220000" ry="6.220000" transform="matrix(1 0 0 1 542.10009379499763 303.98933760499995)" fill="rgb(255,255,255)" stroke="none" stroke-width="1"/><rect id="ez7vw63oqkzg115" width="90.545371" height="4.446446" rx="6.220000" ry="6.220000" transform="matrix(1 0 0 1 542.10009378499842 291.56230905000001)" fill="rgb(255,255,255)" stroke="none" stroke-width="1"/><rect id="ez7vw63oqkzg116" width="318.445535" height="8.892893" rx="6.220000" ry="6.220000" transform="matrix(1 0 0 1 542.10009378999837 277.47746657000022)" fill="rgb(255,255,255)" stroke="none" stroke-width="1"/><rect id="ez7vw63oqkzg117" width="71.709391" height="67.075208" rx="6.220000" ry="6.220000" transform="matrix(1 0 0 1 456.66709022499884 271.66626024000027)" fill="rgb(84,131,204)" stroke="none" stroke-width="1"/></g><g id="ez7vw63oqkzg118"><rect id="ez7vw63oqkzg119" width="10.151974" height="17.004956" rx="0" ry="0" transform="matrix(1 0 0 1 518.22450705000062 206.55384894000034)" opacity="0" fill="rgb(16,16,16)" stroke="none" stroke-width="1"/><rect id="ez7vw63oqkzg120" width="10.151974" height="17.004956" rx="0" ry="0" transform="matrix(1 0 0 1 464.06417565500050 206.55384894000034)" opacity="0" fill="rgb(16,16,16)" stroke="none" stroke-width="1"/><rect id="ez7vw63oqkzg121" width="10.151974" height="17.004956" rx="0" ry="0" transform="matrix(1 0 0 1 504.10593828000020 206.55384894000008)" opacity="0" fill="rgb(16,16,16)" stroke="none" stroke-width="1"/><rect id="ez7vw63oqkzg122" width="10.151974" height="17.004956" rx="0" ry="0" transform="matrix(1 0 0 1 449.94560688500007 206.55384894000008)" opacity="0" fill="rgb(16,16,16)" stroke="none" stroke-width="1"/><rect id="ez7vw63oqkzg123" width="10.151974" height="17.004956" rx="0" ry="0" transform="matrix(1 0 0 1 436.59949991500025 206.55384894000008)" opacity="0" fill="rgb(16,16,16)" stroke="none" stroke-width="1"/><rect id="ez7vw63oqkzg124" width="10.151974" height="17.004956" rx="0" ry="0" transform="matrix(1 0 0 1 490.75983131000038 206.55384894000008)" opacity="0" fill="rgb(16,16,16)" stroke="none" stroke-width="1"/><rect id="ez7vw63oqkzg125" width="10.151974" height="17.004956" rx="0" ry="0" transform="matrix(1 0 0 1 477.70818861500027 206.55384894000034)" opacity="0" fill="rgb(16,16,16)" stroke="none" stroke-width="1"/></g><g id="ez7vw63oqkzg126" transform="matrix(1 0 0 1 1241.36610662999942 764.39627235500063)" opacity="0"><line id="ez7vw63oqkzg127" x1="50" y1="20.600000" x2="50" y2="33.480000" transform="matrix(1 0 0 1 -0.00000190500003 0.85340489000001)" fill="none" stroke="rgb(2,186,185)" stroke-width="4" stroke-linecap="round" stroke-miterlimit="10"/><line id="ez7vw63oqkzg128" x1="20.800000" y1="41.820000" x2="33.040000" y2="45.800000" fill="none" stroke="rgb(2,186,185)" stroke-width="4" stroke-linecap="round" stroke-miterlimit="10"/><line id="ez7vw63oqkzg129" x1="31.950000" y1="76.150000" x2="39.520000" y2="65.730000" fill="none" stroke="rgb(2,186,185)" stroke-width="4" stroke-linecap="round" stroke-miterlimit="10"/><line id="ez7vw63oqkzg130" x1="68.050000" y1="76.150000" x2="60.480000" y2="65.730000" fill="none" stroke="rgb(2,186,185)" stroke-width="4" stroke-linecap="round" stroke-miterlimit="10"/><line id="ez7vw63oqkzg131" x1="79.200000" y1="41.820000" x2="66.960000" y2="45.800000" fill="none" stroke="rgb(2,186,185)" stroke-width="4" stroke-linecap="round" stroke-miterlimit="10"/></g><path id="ez7vw63oqkzg132" d="M50,58.510000L58.380000,78.250000L49.380000,82.050000L41,62.310000L27.700000,80.700000L27.500000,17.950000L72.500000,61.690000Z" transform="matrix(1 0 0 1 1098.40147146000004 484.20611287499889)" fill="rgb(7,7,7)" stroke="rgb(251,251,251)" stroke-width="1"/><rect id="ez7vw63oqkzg133" width="106.375316" height="12.105452" rx="6.220000" ry="6.220000" transform="matrix(0.97711169160811 0 0 1 2535.46005299499893 1220.83655273499835)" fill="rgb(84,131,204)" stroke="none" stroke-width="1"/><rect id="ez7vw63oqkzg134" width="3006.882094" height="19.155471" rx="6.220000" ry="6.220000" transform="matrix(0.97711169160811 0 0 1 -517.34368913319008 1217.54698496999936)" fill="rgb(84,131,204)" stroke="none" stroke-width="1"/><circle id="ez7vw63oqkzg135" r="8.927405" transform="matrix(1 0 0 1 2553.50750458287939 1227.75768614034359)" fill="rgb(246,248,251)" stroke="none" stroke-width="1"/><circle id="ez7vw63oqkzg136" r="27.500000" transform="matrix(1 0 0 1 -476.51232513000002 1225.54158442499943)" fill="rgb(246,248,251)" stroke="none" stroke-width="1"/><path id="ez7vw63oqkzg137" d="M44.920000,26.920000L21.660000,67.220000C20.618756,69.031710,20.621031,71.260804,21.665971,73.070385C22.710911,74.879965,24.640391,75.996197,26.730000,76L73.270000,76C75.367583,76.003896,77.307275,74.886340,78.355963,73.069715C79.404651,71.253090,79.402377,69.014490,78.350000,67.200000L55.080000,26.920000C54.034552,25.101932,52.097220,23.981164,50,23.981164C47.902780,23.981164,45.965448,25.101932,44.920000,26.920000Z" transform="matrix(0.02433601356773 0.99970383536507 -0.99970383536507 0.02433601356773 -556.63171533851130 1174.93986447491261)" fill="rgb(249,251,255)" stroke="none" stroke-width="1"/><g id="ez7vw63oqkzg138" transform="matrix(1 0 0 1 2439.59115500000007 1512.49064107999993)"><rect id="ez7vw63oqkzg139" width="21.490000" height="27.010000" rx="2.460000" ry="2.460000" transform="matrix(1 0 0 1 17.12999999499960 -300.45405665500078)" fill="rgb(254,254,255)" stroke="rgb(255,255,255)" stroke-width="1"/><path id="ez7vw63oqkzg140" d="M55.360000,78.300000L36.170000,63.510000L36.170000,36.510000L55.360000,21.700000C56.580000,20.760000,58.210000,21.780000,58.210000,23.480000L58.210000,76.480000C58.210000,78.230000,56.580000,79.240000,55.360000,78.300000Z" transform="matrix(1 0 0 1 2.44999999499942 -337.43445705500079)" fill="rgb(254,254,255)" stroke="rgb(255,255,255)" stroke-width="1"/><path id="ez7vw63oqkzg141" d="M64.510000,31.150000C74.649948,31.150000,82.870000,39.370052,82.870000,49.510000C82.870000,59.649948,74.649948,67.870000,64.510000,67.870000" transform="matrix(1 0 0 1 -0.00000000500040 -336.94405665500079)" fill="none" stroke="rgb(255,255,255)" stroke-width="7" stroke-linecap="round" stroke-linejoin="round"/><path id="ez7vw63oqkzg142" d="M65.850000,43.820000C68.995262,43.820000,71.545000,46.369738,71.545000,49.515000C71.545000,52.660262,68.995262,55.210000,65.850000,55.210000" transform="matrix(1 0 0 1 -0.00000000500040 -336.94405665500079)" fill="none" stroke="rgb(255,255,255)" stroke-width="7" stroke-linecap="round" stroke-linejoin="round"/></g><path id="ez7vw63oqkzg143" d="M55.674185,55.129472C55.594752,54.660026,55.185206,54.343556,54.748962,54.414521L50.170915,55.148971C49.752566,54.087029,49.224516,53.079694,48.596836,52.146178L51.474637,48.246447C51.748500,47.874052,51.700699,47.333943,51.366494,47.024531L47.761732,43.735758C47.421219,43.430446,46.917966,43.473655,46.626232,43.833251L43.556177,47.576993C42.599925,47.058221,41.592085,46.659168,40.552209,46.387575L40.426042,41.382920C40.413120,40.907428,40.054677,40.528272,39.614971,40.524979L34.814629,40.524979C34.374924,40.528272,34.016480,40.907428,34.003558,41.382920L33.877391,46.387575C32.837500,46.659114,31.829655,47.058169,30.873423,47.576993L27.803368,43.833251C27.511634,43.473655,27.008381,43.430446,26.667868,43.735758L23.063106,47.024531C22.728901,47.333943,22.681100,47.874052,22.954963,48.246447L25.832765,52.146178C25.194627,53.078130,24.656467,54.085526,24.228646,55.148971L19.650598,54.414521C19.214355,54.343556,18.804809,54.660026,18.725376,55.129472L17.902289,60.173124C17.828619,60.643377,18.113089,61.092056,18.545138,61.187054L23.081130,62.194485C23.144706,63.353090,23.330146,64.500081,23.633860,65.613249L19.692654,68.213070C19.317771,68.462555,19.192921,68.988450,19.410281,69.402488L21.777408,73.835182C21.999768,74.246390,22.483354,74.392989,22.870852,74.166659L26.944233,71.781324C27.672335,72.629451,28.486552,73.386016,29.371439,74.036668L27.911511,78.787840C27.770502,79.241508,27.988885,79.734181,28.404161,79.899264L32.850034,81.647643C33.264475,81.807125,33.721242,81.583037,33.883399,81.140678L35.583645,76.486999C36.649472,76.620995,37.726057,76.620995,38.791883,76.486999L40.492129,81.140678C40.654287,81.583037,41.111053,81.807125,41.525494,81.647643L45.971367,79.899264C46.386644,79.734181,46.605027,79.241508,46.464018,78.787840L44.992074,74.036668C45.884105,73.395723,46.706392,72.647871,47.443312,71.807322L51.516693,74.192657C51.904190,74.418987,52.387777,74.272388,52.610137,73.861180L54.977264,69.428486C55.192900,69.019237,55.073988,68.498949,54.706907,68.245567L50.765701,65.645747C51.069414,64.532579,51.254854,63.385588,51.318431,62.226983L55.854423,61.219552C56.286471,61.124553,56.570941,60.675875,56.497272,60.205622ZM37.181756,69.785961C32.828420,69.785961,29.299344,65.968109,29.299344,61.258549C29.299344,56.548990,32.828420,52.731137,37.181756,52.731137C41.535093,52.731137,45.064169,56.548990,45.064169,61.258549C45.064169,65.968109,41.535093,69.785961,37.181756,69.785961Z" transform="matrix(1 0 0 1 2634.57999599499908 1163.94460961500135)" fill="rgb(247,247,248)" stroke="none" stroke-width="1"/><g id="ez7vw63oqkzg144" transform="matrix(1 0 0 1 27.69660387500016 -633.52258099999995)"><g id="ez7vw63oqkzg145" transform="matrix(1 0 0 1 111.97990646000005 9.35016800000000)"><path id="ez7vw63oqkzg146" d="M56.950000,170.170000L129.170000,170.170000L129.170000,188.390000L104.430000,188.390000L104.430000,263.530000L81.680000,263.530000L81.680000,188.390000L56.950000,188.390000L56.950000,170.170000Z" transform="matrix(1 0 0 1 -120 0)" fill="rgb(255,255,255)" stroke="none" stroke-width="1"/><path id="ez7vw63oqkzg147" d="M140.600000,165.110000L163.340000,165.110000L163.340000,199.290000C167.860000,192.910000,175.970000,188.520000,186.220000,188.520000C203.110000,188.520000,214.410000,200.220000,214.410000,220.170000L214.410000,263.530000L191.800000,263.530000L191.800000,223.230000C191.800000,213.120000,186.210000,207.540000,177.570000,207.540000C168.920000,207.540000,163.340000,213.130000,163.340000,223.230000L163.340000,263.530000L140.600000,263.530000L140.600000,165.110000Z" transform="matrix(1 0 0 1 -120 0)" fill="rgb(255,255,255)" stroke="none" stroke-width="1"/><path id="ez7vw63oqkzg148" d="M263.230000,264.590000C241.420000,264.590000,225.730000,249.960000,225.730000,226.420000C225.730000,202.880000,241.160000,188.250000,263.230000,188.250000C284.910000,188.250000,300.200000,202.610000,300.200000,225.220000C300.200000,227.350000,300.070000,229.610000,299.800000,231.870000L248.330000,231.870000C249.130000,241.580000,255.110000,246.100000,262.430000,246.100000C268.810000,246.100000,272.400000,242.910000,274.270000,238.920000L298.480000,238.920000C294.880000,253.420000,281.710000,264.590000,263.230000,264.590000ZM248.460000,219.240000L276.920000,219.240000C276.920000,211.130000,270.540000,206.470000,262.960000,206.470000C255.510000,206.480000,249.790000,211,248.460000,219.240000Z" transform="matrix(1 0 0 1 -120 0)" fill="rgb(255,255,255)" stroke="none" stroke-width="1"/><path id="ez7vw63oqkzg149" d="M334.910000,263.530000L312.170000,263.530000L312.170000,189.320000L334.910000,189.320000L334.910000,201.690000C340.100000,193.840000,348.210000,188.520000,358.180000,188.520000L358.180000,212.590000L351.930000,212.590000C341.160000,212.590000,334.910000,216.310000,334.910000,229.080000L334.910000,263.530000Z" transform="matrix(1 0 0 1 -120 0)" fill="rgb(255,255,255)" stroke="none" stroke-width="1"/><path id="ez7vw63oqkzg150" d="M402.080000,264.590000C380.270000,264.590000,364.580000,249.960000,364.580000,226.420000C364.580000,202.880000,380.010000,188.250000,402.080000,188.250000C423.760000,188.250000,439.050000,202.610000,439.050000,225.220000C439.050000,227.350000,438.920000,229.610000,438.650000,231.870000L387.180000,231.870000C387.980000,241.580000,393.960000,246.100000,401.280000,246.100000C407.660000,246.100000,411.250000,242.910000,413.120000,238.920000L437.330000,238.920000C433.730000,253.420000,420.560000,264.590000,402.080000,264.590000ZM387.320000,219.240000L415.780000,219.240000C415.780000,211.130000,409.400000,206.470000,401.820000,206.470000C394.360000,206.480000,388.650000,211,387.320000,219.240000Z" transform="matrix(1 0 0 1 -120 0)" fill="rgb(255,255,255)" stroke="none" stroke-width="1"/><path id="ez7vw63oqkzg151" d="M448.100000,157.130000L466.850000,157.130000L465.120000,186.520000L449.830000,186.520000L448.100000,157.130000Z" transform="matrix(1 0 0 1 -120 0)" fill="rgb(255,255,255)" stroke="none" stroke-width="1"/><path id="ez7vw63oqkzg152" d="M510.600000,264.590000C490.780000,264.590000,477.480000,253.550000,476.420000,239.190000L498.900000,239.190000C499.430000,244.380000,504.090000,247.830000,510.340000,247.830000C516.190000,247.830000,519.250000,245.170000,519.250000,241.840000C519.250000,229.870000,478.820000,238.520000,478.820000,211.250000C478.820000,198.620000,489.590000,188.240000,509.010000,188.240000C528.160000,188.240000,538.800000,198.880000,540.260000,213.510000L519.250000,213.510000C518.580000,208.460000,514.730000,205.130000,508.340000,205.130000C503.020000,205.130000,500.090000,207.260000,500.090000,210.850000C500.090000,222.690000,540.250000,214.310000,540.650000,241.970000C540.660000,254.890000,529.220000,264.590000,510.600000,264.590000Z" transform="matrix(1 0 0 1 -120 0)" fill="rgb(255,255,255)" stroke="none" stroke-width="1"/><path id="ez7vw63oqkzg153" d="M634.030000,223.230000C634.030000,213.120000,628.440000,207.540000,619.800000,207.540000C611.160000,207.540000,605.570000,213.130000,605.570000,223.230000L605.570000,263.530000L582.830000,263.530000L582.830000,189.320000L605.570000,189.320000L605.570000,199.160000C610.090000,192.910000,618.070000,188.520000,628.050000,188.520000C645.210000,188.520000,656.640000,200.220000,656.640000,220.170000L656.640000,263.530000L634.030000,263.530000L634.030000,223.230000Z" transform="matrix(1 0 0 1 -120 0)" fill="rgb(255,255,255)" stroke="none" stroke-width="1"/><path id="ez7vw63oqkzg154" d="M706.250000,264.590000C684.440000,264.590000,667.950000,249.960000,667.950000,226.420000C667.950000,202.880000,684.840000,188.250000,706.520000,188.250000C728.330000,188.250000,745.090000,202.880000,745.090000,226.420000C745.090000,249.960000,728.060000,264.590000,706.250000,264.590000ZM706.250000,244.910000C714.360000,244.910000,721.940000,238.920000,721.940000,226.420000C721.940000,213.790000,714.490000,207.930000,706.510000,207.930000C698.260000,207.930000,691.080000,213.780000,691.080000,226.420000C691.080000,238.930000,698,244.910000,706.250000,244.910000Z" transform="matrix(1 0 0 1 -120 0)" fill="rgb(255,255,255)" stroke="none" stroke-width="1"/><path id="ez7vw63oqkzg155" d="M802.670000,189.320000L818.760000,242.250000L834.850000,189.320000L859.060000,189.320000L832.730000,263.530000L804.670000,263.530000L778.340000,189.320000L802.670000,189.320000Z" transform="matrix(1 0 0 1 -120 0)" fill="rgb(255,255,255)" stroke="none" stroke-width="1"/><path id="ez7vw63oqkzg156" d="M866.510000,169.370000C866.510000,162.450000,871.960000,157,880.080000,157C888.060000,157,893.510000,162.450000,893.510000,169.370000C893.510000,176.150000,888.060000,181.610000,880.080000,181.610000C871.960000,181.600000,866.510000,176.150000,866.510000,169.370000ZM868.640000,189.320000L891.380000,189.320000L891.380000,263.530000L868.640000,263.530000L868.640000,189.320000Z" transform="matrix(1 0 0 1 -120 0)" fill="rgb(255,255,255)" stroke="none" stroke-width="1"/><path id="ez7vw63oqkzg157" d="M936.070000,188.250000C945.910000,188.250000,954.420000,192.770000,958.950000,199.550000L958.950000,165.100000L981.690000,165.100000L981.690000,263.520000L958.950000,263.520000L958.950000,252.880000C954.830000,259.660000,946.980000,264.580000,936.070000,264.580000C917.850000,264.580000,903.350000,249.690000,903.350000,226.280000C903.350000,202.880000,917.850000,188.250000,936.070000,188.250000ZM942.720000,208.070000C934.210000,208.070000,926.490000,214.450000,926.490000,226.290000C926.490000,238.130000,934.200000,244.780000,942.720000,244.780000C951.360000,244.780000,958.950000,238.260000,958.950000,226.430000C958.940000,214.590000,951.360000,208.070000,942.720000,208.070000Z" transform="matrix(1 0 0 1 -120 0)" fill="rgb(255,255,255)" stroke="none" stroke-width="1"/><path id="ez7vw63oqkzg158" d="M1031.160000,264.590000C1009.350000,264.590000,993.660000,249.960000,993.660000,226.420000C993.660000,202.880000,1009.090000,188.250000,1031.160000,188.250000C1052.840000,188.250000,1068.130000,202.610000,1068.130000,225.220000C1068.130000,227.350000,1068,229.610000,1067.730000,231.870000L1016.260000,231.870000C1017.060000,241.580000,1023.040000,246.100000,1030.360000,246.100000C1036.740000,246.100000,1040.330000,242.910000,1042.200000,238.920000L1066.410000,238.920000C1062.810000,253.420000,1049.650000,264.590000,1031.160000,264.590000ZM1016.400000,219.240000L1044.860000,219.240000C1044.860000,211.130000,1038.480000,206.470000,1030.900000,206.470000C1023.450000,206.480000,1017.730000,211,1016.400000,219.240000Z" transform="matrix(1 0 0 1 -120 0)" fill="rgb(255,255,255)" stroke="none" stroke-width="1"/><path id="ez7vw63oqkzg159" d="M1113.890000,264.590000C1092.080000,264.590000,1075.590000,249.960000,1075.590000,226.420000C1075.590000,202.880000,1092.480000,188.250000,1114.160000,188.250000C1135.970000,188.250000,1152.730000,202.880000,1152.730000,226.420000C1152.730000,249.960000,1135.700000,264.590000,1113.890000,264.590000ZM1113.890000,244.910000C1122,244.910000,1129.580000,238.920000,1129.580000,226.420000C1129.580000,213.790000,1122.130000,207.930000,1114.150000,207.930000C1105.900000,207.930000,1098.720000,213.780000,1098.720000,226.420000C1098.720000,238.930000,1105.640000,244.910000,1113.890000,244.910000Z" transform="matrix(1 0 0 1 -120 0)" fill="rgb(255,255,255)" stroke="none" stroke-width="1"/><path id="ez7vw63oqkzg160" d="M1190.890000,169.370000C1190.890000,162.450000,1196.340000,157,1204.460000,157C1212.440000,157,1217.890000,162.450000,1217.890000,169.370000C1217.890000,176.150000,1212.440000,181.610000,1204.460000,181.610000C1196.340000,181.600000,1190.890000,176.150000,1190.890000,169.370000ZM1193.020000,189.320000L1215.760000,189.320000L1215.760000,263.530000L1193.020000,263.530000L1193.020000,189.320000Z" transform="matrix(1 0 0 1 -120 0)" fill="rgb(255,255,255)" stroke="none" stroke-width="1"/><path id="ez7vw63oqkzg161" d="M1283.460000,223.230000C1283.460000,213.120000,1277.870000,207.540000,1269.230000,207.540000C1260.580000,207.540000,1255,213.130000,1255,223.230000L1255,263.530000L1232.260000,263.530000L1232.260000,189.320000L1255,189.320000L1255,199.160000C1259.520000,192.910000,1267.500000,188.520000,1277.480000,188.520000C1294.640000,188.520000,1306.070000,200.220000,1306.070000,220.170000L1306.070000,263.530000L1283.460000,263.530000L1283.460000,223.230000Z" transform="matrix(1 0 0 1 -120 0)" fill="rgb(255,255,255)" stroke="none" stroke-width="1"/><path id="ez7vw63oqkzg162" d="M1379.480000,188.520000C1389.190000,188.520000,1396.640000,192.240000,1401.160000,197.830000L1401.160000,189.320000L1423.900000,189.320000L1423.900000,298.910000L1401.160000,298.910000L1401.160000,254.220000C1396.370000,260.070000,1389.060000,264.460000,1379.220000,264.460000C1361,264.460000,1345.570000,249.170000,1345.570000,226.560000C1345.570000,203.950000,1361,188.520000,1379.480000,188.520000ZM1384.940000,208.200000C1377.360000,208.200000,1368.710000,214.050000,1368.710000,226.550000C1368.710000,239.050000,1377.350000,244.770000,1384.940000,244.770000C1392.650000,244.770000,1401.170000,238.920000,1401.170000,226.420000C1401.160000,213.920000,1392.650000,208.200000,1384.940000,208.200000Z" transform="matrix(1 0 0 1 -120 0)" fill="rgb(255,255,255)" stroke="none" stroke-width="1"/><path id="ez7vw63oqkzg163" d="M1513.680000,263.530000L1490.940000,263.530000L1490.940000,253.420000C1486.420000,259.800000,1478.440000,264.330000,1468.460000,264.330000C1451.300000,264.330000,1439.730000,252.490000,1439.730000,232.680000L1439.730000,189.320000L1462.340000,189.320000L1462.340000,229.620000C1462.340000,239.730000,1468.060000,245.310000,1476.570000,245.310000C1485.350000,245.310000,1490.930000,239.720000,1490.930000,229.620000L1490.930000,189.320000L1513.670000,189.320000L1513.670000,263.530000Z" transform="matrix(1 0 0 1 -120 0)" fill="rgb(255,255,255)" stroke="none" stroke-width="1"/><path id="ez7vw63oqkzg164" d="M1563.020000,264.590000C1541.210000,264.590000,1525.520000,249.960000,1525.520000,226.420000C1525.520000,202.880000,1540.950000,188.250000,1563.020000,188.250000C1584.700000,188.250000,1599.990000,202.610000,1599.990000,225.220000C1599.990000,227.350000,1599.860000,229.610000,1599.590000,231.870000L1548.120000,231.870000C1548.920000,241.580000,1554.900000,246.100000,1562.220000,246.100000C1568.600000,246.100000,1572.190000,242.910000,1574.060000,238.920000L1598.270000,238.920000C1594.670000,253.420000,1581.510000,264.590000,1563.020000,264.590000ZM1548.260000,219.240000L1576.720000,219.240000C1576.720000,211.130000,1570.340000,206.470000,1562.760000,206.470000C1555.310000,206.480000,1549.590000,211,1548.260000,219.240000Z" transform="matrix(1 0 0 1 -120 0)" fill="rgb(255,255,255)" stroke="none" stroke-width="1"/><path id="ez7vw63oqkzg165" d="M1685.250000,263.530000L1662.510000,263.530000L1662.510000,253.420000C1657.990000,259.800000,1650.010000,264.330000,1640.030000,264.330000C1622.870000,264.330000,1611.300000,252.490000,1611.300000,232.680000L1611.300000,189.320000L1633.910000,189.320000L1633.910000,229.620000C1633.910000,239.730000,1639.630000,245.310000,1648.140000,245.310000C1656.920000,245.310000,1662.500000,239.720000,1662.500000,229.620000L1662.500000,189.320000L1685.240000,189.320000L1685.240000,263.530000Z" transform="matrix(1 0 0 1 -120 0)" fill="rgb(255,255,255)" stroke="none" stroke-width="1"/><path id="ez7vw63oqkzg166" d="M1734.590000,264.590000C1712.780000,264.590000,1697.090000,249.960000,1697.090000,226.420000C1697.090000,202.880000,1712.520000,188.250000,1734.590000,188.250000C1756.270000,188.250000,1771.560000,202.610000,1771.560000,225.220000C1771.560000,227.350000,1771.430000,229.610000,1771.160000,231.870000L1719.690000,231.870000C1720.490000,241.580000,1726.470000,246.100000,1733.790000,246.100000C1740.170000,246.100000,1743.760000,242.910000,1745.630000,238.920000L1769.840000,238.920000C1766.240000,253.420000,1753.080000,264.590000,1734.590000,264.590000ZM1719.830000,219.240000L1748.290000,219.240000C1748.290000,211.130000,1741.910000,206.470000,1734.330000,206.470000C1726.880000,206.480000,1721.160000,211,1719.830000,219.240000Z" transform="matrix(1 0 0 1 -120 0)" fill="rgb(255,255,255)" stroke="none" stroke-width="1"/><path id="ez7vw63oqkzg167" d="M1801.490000,264.590000C1793.380000,264.590000,1787.920000,259.140000,1787.920000,252.350000C1787.920000,245.300000,1793.370000,239.850000,1801.490000,239.850000C1809.470000,239.850000,1814.920000,245.300000,1814.920000,252.350000C1814.920000,259.140000,1809.470000,264.590000,1801.490000,264.590000ZM1788.850000,166.840000L1813.450000,166.840000L1810.790000,230.540000L1791.510000,230.540000L1788.850000,166.840000Z" transform="matrix(1 0 0 1 -120 0)" fill="rgb(255,255,255)" stroke="none" stroke-width="1"/></g><path id="ez7vw63oqkzg168" d="M54.690000,329.770000L80.490000,329.770000L98.580000,368.870000L116.530000,329.770000L142.070000,329.770000L109.750000,392.280000L109.750000,423.130000L87,423.130000L87,392.280000L54.690000,329.770000Z" transform="matrix(1 0 0 1 -120 0)" fill="rgb(255,255,255)" stroke="none" stroke-width="1"/><path id="ez7vw63oqkzg169" d="M185.020000,424.190000C163.210000,424.190000,146.720000,409.560000,146.720000,386.020000C146.720000,362.480000,163.610000,347.850000,185.290000,347.850000C207.100000,347.850000,223.860000,362.480000,223.860000,386.020000C223.860000,409.560000,206.830000,424.190000,185.020000,424.190000ZM185.020000,404.510000C193.130000,404.510000,200.710000,398.520000,200.710000,386.020000C200.710000,373.390000,193.260000,367.530000,185.280000,367.530000C177.030000,367.530000,169.850000,373.380000,169.850000,386.020000C169.860000,398.520000,176.780000,404.510000,185.020000,404.510000Z" transform="matrix(1 0 0 1 -120 0)" fill="rgb(255,255,255)" stroke="none" stroke-width="1"/><path id="ez7vw63oqkzg170" d="M309.240000,423.130000L286.500000,423.130000L286.500000,413.020000C281.980000,419.400000,274,423.930000,264.020000,423.930000C246.860000,423.930000,235.290000,412.090000,235.290000,392.280000L235.290000,348.920000L257.900000,348.920000L257.900000,389.220000C257.900000,399.330000,263.620000,404.910000,272.130000,404.910000C280.910000,404.910000,286.490000,399.320000,286.490000,389.220000L286.490000,348.920000L309.230000,348.920000L309.230000,423.130000Z" transform="matrix(1 0 0 1 -120 0)" fill="rgb(255,255,255)" stroke="none" stroke-width="1"/><path id="ez7vw63oqkzg171" d="M386.520000,347.850000C405.140000,347.850000,418.310000,358.090000,422.160000,375.780000L397.950000,375.780000C396.090000,370.590000,392.360000,367.270000,386.110000,367.270000C378,367.270000,372.410000,373.650000,372.410000,386.020000C372.410000,398.390000,378,404.770000,386.110000,404.770000C392.360000,404.770000,395.950000,401.710000,397.950000,396.260000L422.160000,396.260000C418.300000,413.420000,405.140000,424.190000,386.520000,424.190000C364.710000,424.190000,349.280000,409.560000,349.280000,386.020000C349.280000,362.620000,364.700000,347.850000,386.520000,347.850000Z" transform="matrix(1 0 0 1 -120 0)" fill="rgb(255,255,255)" stroke="none" stroke-width="1"/><path id="ez7vw63oqkzg172" d="M462.460000,347.850000C473.500000,347.850000,481.350000,352.900000,485.340000,359.420000L485.340000,348.910000L508.080000,348.910000L508.080000,423.120000L485.340000,423.120000L485.340000,412.610000C481.220000,419.130000,473.370000,424.180000,462.330000,424.180000C444.240000,424.180000,429.750000,409.290000,429.750000,385.880000C429.740000,362.480000,444.240000,347.850000,462.460000,347.850000ZM469.110000,367.670000C460.600000,367.670000,452.880000,374.050000,452.880000,385.890000C452.880000,397.730000,460.590000,404.380000,469.110000,404.380000C477.750000,404.380000,485.340000,397.860000,485.340000,386.030000C485.330000,374.190000,477.750000,367.670000,469.110000,367.670000Z" transform="matrix(1 0 0 1 -120 0)" fill="rgb(255,255,255)" stroke="none" stroke-width="1"/><path id="ez7vw63oqkzg173" d="M575.770000,382.830000C575.770000,372.720000,570.180000,367.140000,561.540000,367.140000C552.900000,367.140000,547.310000,372.730000,547.310000,382.830000L547.310000,423.130000L524.570000,423.130000L524.570000,348.920000L547.310000,348.920000L547.310000,358.760000C551.830000,352.510000,559.810000,348.120000,569.790000,348.120000C586.950000,348.120000,598.380000,359.820000,598.380000,379.770000L598.380000,423.130000L575.770000,423.130000L575.770000,382.830000Z" transform="matrix(1 0 0 1 -120 0)" fill="rgb(255,255,255)" stroke="none" stroke-width="1"/><path id="ez7vw63oqkzg174" d="M670.600000,347.850000C681.640000,347.850000,689.490000,352.900000,693.480000,359.420000L693.480000,348.910000L716.220000,348.910000L716.220000,423.120000L693.480000,423.120000L693.480000,412.610000C689.360000,419.130000,681.510000,424.180000,670.470000,424.180000C652.380000,424.180000,637.890000,409.290000,637.890000,385.880000C637.880000,362.480000,652.380000,347.850000,670.600000,347.850000ZM677.250000,367.670000C668.740000,367.670000,661.020000,374.050000,661.020000,385.890000C661.020000,397.730000,668.730000,404.380000,677.250000,404.380000C685.890000,404.380000,693.480000,397.860000,693.480000,386.030000C693.480000,374.190000,685.890000,367.670000,677.250000,367.670000Z" transform="matrix(1 0 0 1 -120 0)" fill="rgb(255,255,255)" stroke="none" stroke-width="1"/><path id="ez7vw63oqkzg175" d="M760.910000,347.850000C770.750000,347.850000,779.260000,352.370000,783.790000,359.150000L783.790000,324.700000L806.530000,324.700000L806.530000,423.120000L783.790000,423.120000L783.790000,412.480000C779.670000,419.260000,771.820000,424.180000,760.910000,424.180000C742.690000,424.180000,728.190000,409.290000,728.190000,385.880000C728.190000,362.480000,742.680000,347.850000,760.910000,347.850000ZM767.550000,367.670000C759.040000,367.670000,751.320000,374.050000,751.320000,385.890000C751.320000,397.730000,759.030000,404.380000,767.550000,404.380000C776.200000,404.380000,783.780000,397.860000,783.780000,386.030000C783.780000,374.190000,776.200000,367.670000,767.550000,367.670000Z" transform="matrix(1 0 0 1 -120 0)" fill="rgb(255,255,255)" stroke="none" stroke-width="1"/><path id="ez7vw63oqkzg176" d="M851.210000,347.850000C861.050000,347.850000,869.560000,352.370000,874.090000,359.150000L874.090000,324.700000L896.830000,324.700000L896.830000,423.120000L874.090000,423.120000L874.090000,412.480000C869.970000,419.260000,862.120000,424.180000,851.210000,424.180000C832.990000,424.180000,818.490000,409.290000,818.490000,385.880000C818.490000,362.480000,832.990000,347.850000,851.210000,347.850000ZM857.860000,367.670000C849.350000,367.670000,841.630000,374.050000,841.630000,385.890000C841.630000,397.730000,849.340000,404.380000,857.860000,404.380000C866.500000,404.380000,874.090000,397.860000,874.090000,386.030000C874.090000,374.190000,866.510000,367.670000,857.860000,367.670000Z" transform="matrix(1 0 0 1 -120 0)" fill="rgb(255,255,255)" stroke="none" stroke-width="1"/><path id="ez7vw63oqkzg177" d="M975.300000,424.190000C953.490000,424.190000,937,409.560000,937,386.020000C937,362.480000,953.890000,347.850000,975.570000,347.850000C997.380000,347.850000,1014.140000,362.480000,1014.140000,386.020000C1014.140000,409.560000,997.110000,424.190000,975.300000,424.190000ZM975.300000,404.510000C983.410000,404.510000,990.990000,398.520000,990.990000,386.020000C990.990000,373.390000,983.540000,367.530000,975.560000,367.530000C967.310000,367.530000,960.130000,373.380000,960.130000,386.020000C960.130000,398.520000,967.050000,404.510000,975.300000,404.510000Z" transform="matrix(1 0 0 1 -120 0)" fill="rgb(255,255,255)" stroke="none" stroke-width="1"/><path id="ez7vw63oqkzg178" d="M1077.440000,382.830000C1077.440000,372.720000,1071.850000,367.140000,1063.210000,367.140000C1054.570000,367.140000,1048.980000,372.730000,1048.980000,382.830000L1048.980000,423.130000L1026.240000,423.130000L1026.240000,348.920000L1048.980000,348.920000L1048.980000,358.760000C1053.500000,352.510000,1061.480000,348.120000,1071.460000,348.120000C1088.620000,348.120000,1100.050000,359.820000,1100.050000,379.770000L1100.050000,423.130000L1077.440000,423.130000L1077.440000,382.830000Z" transform="matrix(1 0 0 1 -120 0)" fill="rgb(255,255,255)" stroke="none" stroke-width="1"/><path id="ez7vw63oqkzg179" d="M1148.860000,424.190000C1127.050000,424.190000,1111.360000,409.560000,1111.360000,386.020000C1111.360000,362.480000,1126.790000,347.850000,1148.860000,347.850000C1170.540000,347.850000,1185.830000,362.210000,1185.830000,384.820000C1185.830000,386.950000,1185.700000,389.210000,1185.430000,391.470000L1133.960000,391.470000C1134.760000,401.180000,1140.740000,405.700000,1148.060000,405.700000C1154.440000,405.700000,1158.030000,402.510000,1159.900000,398.520000L1184.110000,398.520000C1180.510000,413.020000,1167.350000,424.190000,1148.860000,424.190000ZM1134.100000,378.840000L1162.560000,378.840000C1162.560000,370.730000,1156.180000,366.070000,1148.600000,366.070000C1141.150000,366.070000,1135.430000,370.600000,1134.100000,378.840000Z" transform="matrix(1 0 0 1 -120 0)" fill="rgb(255,255,255)" stroke="none" stroke-width="1"/><path id="ez7vw63oqkzg180" d="M1271.620000,347.850000C1289.970000,347.850000,1304.340000,362.480000,1304.340000,385.890000C1304.340000,409.300000,1289.840000,424.190000,1271.620000,424.190000C1260.710000,424.190000,1252.870000,419.270000,1248.740000,412.750000L1248.740000,423.120000L1226,423.120000L1226,324.700000L1248.740000,324.700000L1248.740000,359.410000C1252.860000,352.770000,1260.980000,347.850000,1271.620000,347.850000ZM1264.830000,367.670000C1256.320000,367.670000,1248.600000,374.190000,1248.600000,386.020000C1248.600000,397.860000,1256.310000,404.370000,1264.830000,404.370000C1273.470000,404.370000,1281.190000,397.720000,1281.190000,385.880000C1281.190000,374.050000,1273.480000,367.670000,1264.830000,367.670000Z" transform="matrix(1 0 0 1 -120 0)" fill="rgb(255,255,255)" stroke="none" stroke-width="1"/><path id="ez7vw63oqkzg181" d="M1367.510000,348.920000L1392.110000,348.920000L1345.560000,458.380000L1321.090000,458.380000L1338.110000,420.610000L1307.920000,348.930000L1333.320000,348.930000L1350.480000,395.350000L1367.510000,348.920000Z" transform="matrix(1 0 0 1 -120 0)" fill="rgb(255,255,255)" stroke="none" stroke-width="1"/><path id="ez7vw63oqkzg182" d="M1458.740000,424.190000C1438.920000,424.190000,1425.620000,413.150000,1424.560000,398.790000L1447.040000,398.790000C1447.570000,403.980000,1452.230000,407.430000,1458.480000,407.430000C1464.330000,407.430000,1467.390000,404.770000,1467.390000,401.440000C1467.390000,389.470000,1426.960000,398.120000,1426.960000,370.850000C1426.960000,358.220000,1437.730000,347.840000,1457.150000,347.840000C1476.300000,347.840000,1486.940000,358.480000,1488.400000,373.110000L1467.390000,373.110000C1466.720000,368.060000,1462.870000,364.730000,1456.480000,364.730000C1451.160000,364.730000,1448.230000,366.860000,1448.230000,370.450000C1448.230000,382.290000,1488.390000,373.910000,1488.790000,401.570000C1488.800000,414.480000,1477.360000,424.190000,1458.740000,424.190000Z" transform="matrix(1 0 0 1 -120 0)" fill="rgb(255,255,255)" stroke="none" stroke-width="1"/><path id="ez7vw63oqkzg183" d="M1535.750000,424.190000C1513.940000,424.190000,1498.250000,409.560000,1498.250000,386.020000C1498.250000,362.480000,1513.680000,347.850000,1535.750000,347.850000C1557.430000,347.850000,1572.720000,362.210000,1572.720000,384.820000C1572.720000,386.950000,1572.590000,389.210000,1572.320000,391.470000L1520.850000,391.470000C1521.650000,401.180000,1527.630000,405.700000,1534.950000,405.700000C1541.330000,405.700000,1544.920000,402.510000,1546.790000,398.520000L1571,398.520000C1567.400000,413.020000,1554.240000,424.190000,1535.750000,424.190000ZM1520.990000,378.840000L1549.450000,378.840000C1549.450000,370.730000,1543.070000,366.070000,1535.490000,366.070000C1528.040000,366.070000,1522.320000,370.600000,1520.990000,378.840000Z" transform="matrix(1 0 0 1 -120 0)" fill="rgb(255,255,255)" stroke="none" stroke-width="1"/><path id="ez7vw63oqkzg184" d="M1612.890000,347.850000C1623.930000,347.850000,1631.780000,352.900000,1635.770000,359.420000L1635.770000,348.910000L1658.510000,348.910000L1658.510000,423.120000L1635.770000,423.120000L1635.770000,412.610000C1631.650000,419.130000,1623.800000,424.180000,1612.760000,424.180000C1594.670000,424.180000,1580.180000,409.290000,1580.180000,385.880000C1580.170000,362.480000,1594.670000,347.850000,1612.890000,347.850000ZM1619.540000,367.670000C1611.030000,367.670000,1603.310000,374.050000,1603.310000,385.890000C1603.310000,397.730000,1611.020000,404.380000,1619.540000,404.380000C1628.180000,404.380000,1635.770000,397.860000,1635.770000,386.030000C1635.770000,374.190000,1628.190000,367.670000,1619.540000,367.670000Z" transform="matrix(1 0 0 1 -120 0)" fill="rgb(255,255,255)" stroke="none" stroke-width="1"/><path id="ez7vw63oqkzg185" d="M1697.740000,423.130000L1675,423.130000L1675,348.920000L1697.740000,348.920000L1697.740000,361.290000C1702.930000,353.440000,1711.040000,348.120000,1721.010000,348.120000L1721.010000,372.190000L1714.760000,372.190000C1703.990000,372.190000,1697.740000,375.910000,1697.740000,388.680000L1697.740000,423.130000Z" transform="matrix(1 0 0 1 -120 0)" fill="rgb(255,255,255)" stroke="none" stroke-width="1"/><path id="ez7vw63oqkzg186" d="M1764.640000,347.850000C1783.260000,347.850000,1796.430000,358.090000,1800.280000,375.780000L1776.070000,375.780000C1774.210000,370.590000,1770.480000,367.270000,1764.230000,367.270000C1756.120000,367.270000,1750.530000,373.650000,1750.530000,386.020000C1750.530000,398.390000,1756.120000,404.770000,1764.230000,404.770000C1770.480000,404.770000,1774.070000,401.710000,1776.070000,396.260000L1800.280000,396.260000C1796.420000,413.420000,1783.260000,424.190000,1764.640000,424.190000C1742.830000,424.190000,1727.400000,409.560000,1727.400000,386.020000C1727.400000,362.620000,1742.830000,347.850000,1764.640000,347.850000Z" transform="matrix(1 0 0 1 -120 0)" fill="rgb(255,255,255)" stroke="none" stroke-width="1"/><path id="ez7vw63oqkzg187" d="M1812.390000,324.710000L1835.130000,324.710000L1835.130000,358.890000C1839.650000,352.510000,1847.760000,348.120000,1858.010000,348.120000C1874.900000,348.120000,1886.200000,359.820000,1886.200000,379.770000L1886.200000,423.130000L1863.590000,423.130000L1863.590000,382.830000C1863.590000,372.720000,1858,367.140000,1849.360000,367.140000C1840.720000,367.140000,1835.130000,372.730000,1835.130000,382.830000L1835.130000,423.130000L1812.390000,423.130000L1812.390000,324.710000Z" transform="matrix(1 0 0 1 -120 0)" fill="rgb(255,255,255)" stroke="none" stroke-width="1"/><path id="ez7vw63oqkzg188" d="M1899.900000,328.970000C1899.900000,322.050000,1905.350000,316.600000,1913.470000,316.600000C1921.450000,316.600000,1926.900000,322.050000,1926.900000,328.970000C1926.900000,335.750000,1921.450000,341.210000,1913.470000,341.210000C1905.360000,341.200000,1899.900000,335.750000,1899.900000,328.970000ZM1902.030000,348.920000L1924.770000,348.920000L1924.770000,423.130000L1902.030000,423.130000L1902.030000,348.920000Z" transform="matrix(1 0 0 1 -120 0)" fill="rgb(255,255,255)" stroke="none" stroke-width="1"/><path id="ez7vw63oqkzg189" d="M1992.470000,382.830000C1992.470000,372.720000,1986.880000,367.140000,1978.240000,367.140000C1969.590000,367.140000,1964.010000,372.730000,1964.010000,382.830000L1964.010000,423.130000L1941.270000,423.130000L1941.270000,348.920000L1964.010000,348.920000L1964.010000,358.760000C1968.530000,352.510000,1976.510000,348.120000,1986.490000,348.120000C2003.650000,348.120000,2015.080000,359.820000,2015.080000,379.770000L2015.080000,423.130000L1992.470000,423.130000L1992.470000,382.830000Z" transform="matrix(1 0 0 1 -120 0)" fill="rgb(255,255,255)" stroke="none" stroke-width="1"/><path id="ez7vw63oqkzg190" d="M2059.100000,347.850000C2070.010000,347.850000,2077.990000,352.770000,2081.980000,359.420000L2081.980000,348.910000L2104.720000,348.910000L2104.720000,423C2104.720000,442.820000,2093.280000,459.710000,2067.610000,459.710000C2045.530000,459.710000,2031.170000,448.540000,2029.170000,430.850000L2051.650000,430.850000C2053.110000,436.440000,2058.700000,440.030000,2066.550000,440.030000C2075.190000,440.030000,2081.980000,435.510000,2081.980000,423.010000L2081.980000,412.500000C2077.860000,419.020000,2070.010000,424.200000,2059.100000,424.200000C2040.880000,424.200000,2026.380000,409.310000,2026.380000,385.900000C2026.390000,362.480000,2040.880000,347.850000,2059.100000,347.850000ZM2065.750000,367.670000C2057.240000,367.670000,2049.520000,374.050000,2049.520000,385.890000C2049.520000,397.730000,2057.230000,404.380000,2065.750000,404.380000C2074.390000,404.380000,2081.980000,397.860000,2081.980000,386.030000C2081.980000,374.190000,2074.400000,367.670000,2065.750000,367.670000Z" transform="matrix(1 0 0 1 -120 0)" fill="rgb(255,255,255)" stroke="none" stroke-width="1"/><g id="ez7vw63oqkzg191" transform="matrix(1 0 0 1 257.03341481499990 -9.35016800000000)"><path id="ez7vw63oqkzg192" d="M95.780000,583.790000C73.970000,583.790000,57.480000,569.160000,57.480000,545.620000C57.480000,522.080000,74.370000,507.450000,96.050000,507.450000C117.860000,507.450000,134.620000,522.080000,134.620000,545.620000C134.620000,569.160000,117.590000,583.790000,95.780000,583.790000ZM95.780000,564.110000C103.890000,564.110000,111.470000,558.120000,111.470000,545.620000C111.470000,532.990000,104.020000,527.130000,96.040000,527.130000C87.790000,527.130000,80.610000,532.980000,80.610000,545.620000C80.620000,558.130000,87.540000,564.110000,95.780000,564.110000Z" transform="matrix(1 0 0 1 -120 0)" fill="rgb(255,255,255)" stroke="none" stroke-width="1"/><path id="ez7vw63oqkzg193" d="M169.460000,582.730000L146.720000,582.730000L146.720000,508.520000L169.460000,508.520000L169.460000,520.890000C174.650000,513.040000,182.760000,507.720000,192.730000,507.720000L192.730000,531.790000L186.480000,531.790000C175.710000,531.790000,169.460000,535.510000,169.460000,548.280000L169.460000,582.730000Z" transform="matrix(1 0 0 1 -120 0)" fill="rgb(255,255,255)" stroke="none" stroke-width="1"/><path id="ez7vw63oqkzg194" d="M277.460000,507.450000C295.680000,507.450000,310.180000,522.080000,310.180000,545.490000C310.180000,568.900000,295.680000,583.790000,277.460000,583.790000C266.550000,583.790000,258.710000,578.600000,254.580000,572.350000L254.580000,618.100000L231.840000,618.100000L231.840000,508.520000L254.580000,508.520000L254.580000,519.030000C258.700000,512.510000,266.550000,507.450000,277.460000,507.450000ZM270.670000,527.270000C262.160000,527.270000,254.440000,533.790000,254.440000,545.620000C254.440000,557.460000,262.150000,563.970000,270.670000,563.970000C279.310000,563.970000,287.030000,557.320000,287.030000,545.480000C287.030000,533.650000,279.320000,527.270000,270.670000,527.270000Z" transform="matrix(1 0 0 1 -120 0)" fill="rgb(255,255,255)" stroke="none" stroke-width="1"/><path id="ez7vw63oqkzg195" d="M350.340000,507.450000C361.380000,507.450000,369.230000,512.500000,373.220000,519.020000L373.220000,508.510000L395.960000,508.510000L395.960000,582.720000L373.220000,582.720000L373.220000,572.210000C369.100000,578.730000,361.250000,583.780000,350.210000,583.780000C332.120000,583.780000,317.630000,568.880000,317.630000,545.480000C317.620000,522.080000,332.120000,507.450000,350.340000,507.450000ZM356.990000,527.270000C348.480000,527.270000,340.760000,533.650000,340.760000,545.490000C340.760000,557.330000,348.470000,563.980000,356.990000,563.980000C365.630000,563.980000,373.220000,557.460000,373.220000,545.630000C373.210000,533.790000,365.630000,527.270000,356.990000,527.270000Z" transform="matrix(1 0 0 1 -120 0)" fill="rgb(255,255,255)" stroke="none" stroke-width="1"/><path id="ez7vw63oqkzg196" d="M442.640000,583.790000C422.820000,583.790000,409.520000,572.750000,408.460000,558.390000L430.940000,558.390000C431.470000,563.580000,436.130000,567.030000,442.380000,567.030000C448.230000,567.030000,451.290000,564.370000,451.290000,561.040000C451.290000,549.070000,410.860000,557.720000,410.860000,530.450000C410.860000,517.820000,421.630000,507.440000,441.050000,507.440000C460.200000,507.440000,470.840000,518.080000,472.300000,532.710000L451.290000,532.710000C450.620000,527.660000,446.770000,524.330000,440.380000,524.330000C435.060000,524.330000,432.130000,526.460000,432.130000,530.050000C432.130000,541.890000,472.290000,533.510000,472.690000,561.170000C472.700000,574.090000,461.260000,583.790000,442.640000,583.790000Z" transform="matrix(1 0 0 1 -120 0)" fill="rgb(255,255,255)" stroke="none" stroke-width="1"/><path id="ez7vw63oqkzg197" d="M490.250000,527.400000L481.210000,527.400000L481.210000,508.510000L490.250000,508.510000L490.250000,490.420000L513,490.420000L513,508.510000L527.900000,508.510000L527.900000,527.400000L513,527.400000L513,557.190000C513,561.580000,514.860000,563.440000,519.920000,563.440000L528.030000,563.440000L528.030000,582.720000L516.460000,582.720000C501.030000,582.720000,490.260000,576.200000,490.260000,556.920000L490.260000,527.400000Z" transform="matrix(1 0 0 1 -120 0)" fill="rgb(255,255,255)" stroke="none" stroke-width="1"/><path id="ez7vw63oqkzg198" d="M538.530000,488.570000C538.530000,481.650000,543.980000,476.200000,552.100000,476.200000C560.080000,476.200000,565.530000,481.650000,565.530000,488.570000C565.530000,495.350000,560.080000,500.810000,552.100000,500.810000C543.990000,500.800000,538.530000,495.350000,538.530000,488.570000ZM540.660000,508.520000L563.400000,508.520000L563.400000,582.730000L540.660000,582.730000L540.660000,508.520000Z" transform="matrix(1 0 0 1 -120 0)" fill="rgb(255,255,255)" stroke="none" stroke-width="1"/><path id="ez7vw63oqkzg199" d="M631.100000,542.430000C631.100000,532.320000,625.510000,526.740000,616.870000,526.740000C608.230000,526.740000,602.640000,532.330000,602.640000,542.430000L602.640000,582.730000L579.900000,582.730000L579.900000,508.520000L602.640000,508.520000L602.640000,518.360000C607.160000,512.110000,615.140000,507.720000,625.120000,507.720000C642.280000,507.720000,653.710000,519.420000,653.710000,539.370000L653.710000,582.730000L631.100000,582.730000L631.100000,542.430000Z" transform="matrix(1 0 0 1 -120 0)" fill="rgb(255,255,255)" stroke="none" stroke-width="1"/><path id="ez7vw63oqkzg200" d="M697.730000,507.450000C708.640000,507.450000,716.620000,512.370000,720.610000,519.020000L720.610000,508.510000L743.350000,508.510000L743.350000,582.590000C743.350000,602.410000,731.910000,619.300000,706.240000,619.300000C684.160000,619.300000,669.800000,608.130000,667.800000,590.440000L690.280000,590.440000C691.740000,596.030000,697.330000,599.620000,705.180000,599.620000C713.820000,599.620000,720.610000,595.100000,720.610000,582.600000L720.610000,572.090000C716.490000,578.610000,708.640000,583.790000,697.730000,583.790000C679.510000,583.790000,665.010000,568.890000,665.010000,545.490000C665.010000,522.080000,679.510000,507.450000,697.730000,507.450000ZM704.380000,527.270000C695.870000,527.270000,688.150000,533.650000,688.150000,545.490000C688.150000,557.330000,695.860000,563.980000,704.380000,563.980000C713.030000,563.980000,720.610000,557.460000,720.610000,545.630000C720.610000,533.790000,713.030000,527.270000,704.380000,527.270000Z" transform="matrix(1 0 0 1 -120 0)" fill="rgb(255,255,255)" stroke="none" stroke-width="1"/><path id="ez7vw63oqkzg201" d="M816.230000,507.450000C827.270000,507.450000,835.120000,512.500000,839.110000,519.020000L839.110000,508.510000L861.850000,508.510000L861.850000,582.720000L839.110000,582.720000L839.110000,572.210000C834.990000,578.730000,827.140000,583.780000,816.100000,583.780000C798.010000,583.780000,783.520000,568.880000,783.520000,545.480000C783.510000,522.080000,798.010000,507.450000,816.230000,507.450000ZM822.880000,527.270000C814.370000,527.270000,806.650000,533.650000,806.650000,545.490000C806.650000,557.330000,814.360000,563.980000,822.880000,563.980000C831.530000,563.980000,839.110000,557.460000,839.110000,545.630000C839.110000,533.790000,831.530000,527.270000,822.880000,527.270000Z" transform="matrix(1 0 0 1 -120 0)" fill="rgb(255,255,255)" stroke="none" stroke-width="1"/><path id="ez7vw63oqkzg202" d="M923.830000,508.520000L939.920000,561.450000L956.010000,508.520000L980.220000,508.520000L953.890000,582.730000L925.830000,582.730000L899.500000,508.520000L923.830000,508.520000Z" transform="matrix(1 0 0 1 -120 0)" fill="rgb(255,255,255)" stroke="none" stroke-width="1"/><path id="ez7vw63oqkzg203" d="M987.670000,488.570000C987.670000,481.650000,993.120000,476.200000,1001.240000,476.200000C1009.220000,476.200000,1014.670000,481.650000,1014.670000,488.570000C1014.670000,495.350000,1009.220000,500.810000,1001.240000,500.810000C993.120000,500.800000,987.670000,495.350000,987.670000,488.570000ZM989.790000,508.520000L1012.530000,508.520000L1012.530000,582.730000L989.790000,582.730000L989.790000,508.520000Z" transform="matrix(1 0 0 1 -120 0)" fill="rgb(255,255,255)" stroke="none" stroke-width="1"/><path id="ez7vw63oqkzg204" d="M1057.220000,507.450000C1067.060000,507.450000,1075.570000,511.970000,1080.100000,518.750000L1080.100000,484.300000L1102.840000,484.300000L1102.840000,582.720000L1080.100000,582.720000L1080.100000,572.080000C1075.980000,578.860000,1068.130000,583.780000,1057.220000,583.780000C1039,583.780000,1024.500000,568.880000,1024.500000,545.480000C1024.510000,522.080000,1039,507.450000,1057.220000,507.450000ZM1063.870000,527.270000C1055.360000,527.270000,1047.640000,533.650000,1047.640000,545.490000C1047.640000,557.330000,1055.350000,563.980000,1063.870000,563.980000C1072.510000,563.980000,1080.100000,557.460000,1080.100000,545.630000C1080.100000,533.790000,1072.520000,527.270000,1063.870000,527.270000Z" transform="matrix(1 0 0 1 -120 0)" fill="rgb(255,255,255)" stroke="none" stroke-width="1"/><path id="ez7vw63oqkzg205" d="M1152.320000,583.790000C1130.510000,583.790000,1114.820000,569.160000,1114.820000,545.620000C1114.820000,522.080000,1130.250000,507.450000,1152.320000,507.450000C1174,507.450000,1189.290000,521.810000,1189.290000,544.420000C1189.290000,546.550000,1189.160000,548.810000,1188.890000,551.070000L1137.420000,551.070000C1138.220000,560.780000,1144.200000,565.300000,1151.520000,565.300000C1157.900000,565.300000,1161.490000,562.110000,1163.360000,558.120000L1187.570000,558.120000C1183.970000,572.620000,1170.800000,583.790000,1152.320000,583.790000ZM1137.550000,538.440000L1166.010000,538.440000C1166.010000,530.330000,1159.630000,525.670000,1152.050000,525.670000C1144.600000,525.680000,1138.880000,530.200000,1137.550000,538.440000Z" transform="matrix(1 0 0 1 -120 0)" fill="rgb(255,255,255)" stroke="none" stroke-width="1"/><path id="ez7vw63oqkzg206" d="M1235.040000,583.790000C1213.230000,583.790000,1196.740000,569.160000,1196.740000,545.620000C1196.740000,522.080000,1213.630000,507.450000,1235.310000,507.450000C1257.120000,507.450000,1273.880000,522.080000,1273.880000,545.620000C1273.880000,569.160000,1256.850000,583.790000,1235.040000,583.790000ZM1235.040000,564.110000C1243.150000,564.110000,1250.730000,558.120000,1250.730000,545.620000C1250.730000,532.990000,1243.280000,527.130000,1235.300000,527.130000C1227.050000,527.130000,1219.870000,532.980000,1219.870000,545.620000C1219.880000,558.130000,1226.800000,564.110000,1235.040000,564.110000Z" transform="matrix(1 0 0 1 -120 0)" fill="rgb(255,255,255)" stroke="none" stroke-width="1"/><path id="ez7vw63oqkzg207" d="M1314.180000,484.310000L1336.920000,484.310000L1336.920000,582.730000L1314.180000,582.730000L1314.180000,484.310000Z" transform="matrix(1 0 0 1 -120 0)" fill="rgb(255,255,255)" stroke="none" stroke-width="1"/><path id="ez7vw63oqkzg208" d="M1351.280000,488.570000C1351.280000,481.650000,1356.730000,476.200000,1364.850000,476.200000C1372.830000,476.200000,1378.280000,481.650000,1378.280000,488.570000C1378.280000,495.350000,1372.830000,500.810000,1364.850000,500.810000C1356.740000,500.800000,1351.280000,495.350000,1351.280000,488.570000ZM1353.410000,508.520000L1376.150000,508.520000L1376.150000,582.730000L1353.410000,582.730000L1353.410000,508.520000Z" transform="matrix(1 0 0 1 -120 0)" fill="rgb(255,255,255)" stroke="none" stroke-width="1"/><path id="ez7vw63oqkzg209" d="M1443.850000,542.430000C1443.850000,532.320000,1438.260000,526.740000,1429.620000,526.740000C1420.980000,526.740000,1415.390000,532.330000,1415.390000,542.430000L1415.390000,582.730000L1392.650000,582.730000L1392.650000,508.520000L1415.390000,508.520000L1415.390000,518.360000C1419.910000,512.110000,1427.890000,507.720000,1437.870000,507.720000C1455.030000,507.720000,1466.460000,519.420000,1466.460000,539.370000L1466.460000,582.730000L1443.850000,582.730000L1443.850000,542.430000Z" transform="matrix(1 0 0 1 -120 0)" fill="rgb(255,255,255)" stroke="none" stroke-width="1"/><path id="ez7vw63oqkzg210" d="M1482.290000,484.310000L1505.030000,484.310000L1505.030000,538.710000L1527.510000,508.520000L1555.570000,508.520000L1524.720000,545.760000L1555.840000,582.730000L1527.640000,582.730000L1505.030000,551.610000L1505.030000,582.730000L1482.290000,582.730000L1482.290000,484.310000Z" transform="matrix(1 0 0 1 -120 0)" fill="rgb(255,255,255)" stroke="none" stroke-width="1"/><path id="ez7vw63oqkzg211" d="M1575.120000,583.790000C1567.010000,583.790000,1561.550000,578.340000,1561.550000,571.550000C1561.550000,564.500000,1567,559.050000,1575.120000,559.050000C1583.100000,559.050000,1588.550000,564.500000,1588.550000,571.550000C1588.550000,578.340000,1583.100000,583.790000,1575.120000,583.790000Z" transform="matrix(1 0 0 1 -120 0)" fill="rgb(255,255,255)" stroke="none" stroke-width="1"/></g></g><script><![CDATA[!function(t,n){"object"==typeof exports&&"undefined"!=typeof module?module.exports=n():"function"==typeof define&&define.amd?define(n):(t=t||self).__SVGATOR_PLAYER__=n()}(this,(function(){"use strict";function t(n){return(t="function"==typeof Symbol&&"symbol"==typeof Symbol.iterator?function(t){return typeof t}:function(t){return t&&"function"==typeof Symbol&&t.constructor===Symbol&&t!==Symbol.prototype?"symbol":typeof t})(n)}function n(t,n){if(!(t instanceof n))throw new TypeError("Cannot call a class as a function")}function r(t,n){for(var r=0;r<n.length;r++){var e=n[r];e.enumerable=e.enumerable||!1,e.configurable=!0,"value"in e&&(e.writable=!0),Object.defineProperty(t,e.key,e)}}function e(t,n,e){return n&&r(t.prototype,n),e&&r(t,e),t}var i=Math.abs;function u(t){return t}function o(t,n,r){var e=1-r;return 3*r*e*(t*e+n*r)+r*r*r}function a(){var t=arguments.length>0&&void 0!==arguments[0]?arguments[0]:0,n=arguments.length>1&&void 0!==arguments[1]?arguments[1]:0,r=arguments.length>2&&void 0!==arguments[2]?arguments[2]:1,e=arguments.length>3&&void 0!==arguments[3]?arguments[3]:1;return t<0||t>1||r<0||r>1?null:i(t-n)<=1e-5&&i(r-e)<=1e-5?u:function(u){if(u<=0)return t>0?u*n/t:0===n&&r>0?u*e/r:0;if(u>=1)return r<1?1+(u-1)*(e-1)/(r-1):1===r&&t<1?1+(u-1)*(n-1)/(t-1):1;for(var a,l=0,f=1;l<f;){var s=o(t,r,a=(l+f)/2);if(i(u-s)<1e-5)break;s<u?l=a:f=a}return o(n,e,a)}}function l(){return 1}function f(t){return 1===t?1:0}function s(){var t=arguments.length>0&&void 0!==arguments[0]?arguments[0]:1,n=arguments.length>1&&void 0!==arguments[1]?arguments[1]:0;if(1===t){if(0===n)return f;if(1===n)return l}var r=1/t;return function(t){return t>=1?1:(t+=n*r)-t%r}}function c(t){var n=arguments.length>1&&void 0!==arguments[1]?arguments[1]:2;if(Number.isInteger(t))return t;var r=Math.pow(10,n);return Math.round(t*r)/r}var v=Math.PI/180;function h(t,n,r){return t>=.5?r:n}function y(t,n,r){return 0===t||n===r?n:t*(r-n)+n}function d(t,n,r){var e=y(t,n,r);return e<=0?0:e}function g(t,n,r){return 0===t?n:1===t?r:{x:y(t,n.x,r.x),y:y(t,n.y,r.y)}}function m(t,n,r){return 0===t?n:1===t?r:{x:d(t,n.x,r.x),y:d(t,n.y,r.y)}}function p(t,n,r){var e=function(t,n,r){return Math.round(y(t,n,r))}(t,n,r);return e<=0?0:e>=255?255:e}function b(t,n,r){return 0===t?n:1===t?r:{r:p(t,n.r,r.r),g:p(t,n.g,r.g),b:p(t,n.b,r.b),a:y(t,null==n.a?1:n.a,null==r.a?1:r.a)}}function w(t,n,r){if(0===t)return n;if(1===t)return r;var e=n.length;if(e!==r.length)return h(t,n,r);for(var i=[],u=0;u<e;u++)i.push(b(t,n[u],r[u]));return i}function A(t,n,r){var e=n.length;if(e!==r.length)return h(t,n,r);for(var i=new Array(e),u=0;u<e;u++)i[u]=y(t,n[u],r[u]);return i}function x(t,n){for(var r=[],e=0;e<t;e++)r.push(n);return r}function k(t,n){if(--n<=0)return t;var r=(t=Object.assign([],t)).length;do{for(var e=0;e<r;e++)t.push(t[e])}while(--n>0);return t}var S=/\.0+$/g;function _(t){return Number.isInteger(t)?t+"":t.toFixed(6).replace(S,"")}function M(t){var n=arguments.length>1&&void 0!==arguments[1]?arguments[1]:" ";return t&&t.length?t.map(_).join(n):""}function I(t){return _(t.x)+","+_(t.y)}function E(t){return t?null==t.a||t.a>=1?"rgb("+t.r+","+t.g+","+t.b+")":"rgba("+t.r+","+t.g+","+t.b+","+t.a+")":"transparent"}var F={f:null,i:m,u:function(t,n){return function(r){var e=n(r);t.setAttribute("rx",_(e.x)),t.setAttribute("ry",_(e.y))}}},B={f:null,i:function(t,n,r){return 0===t?n:1===t?r:{width:d(t,n.width,r.width),height:d(t,n.height,r.height)}},u:function(t,n){return function(r){var e=n(r);t.setAttribute("width",_(e.width)),t.setAttribute("height",_(e.height))}}},j=Math.sin,q=Math.cos,P=Math.acos,O=Math.asin,z=Math.tan,L=Math.atan2,C=Math.PI/180,R=180/Math.PI,T=Math.sqrt,V=function(){function t(){var r=arguments.length>0&&void 0!==arguments[0]?arguments[0]:1,e=arguments.length>1&&void 0!==arguments[1]?arguments[1]:0,i=arguments.length>2&&void 0!==arguments[2]?arguments[2]:0,u=arguments.length>3&&void 0!==arguments[3]?arguments[3]:1,o=arguments.length>4&&void 0!==arguments[4]?arguments[4]:0,a=arguments.length>5&&void 0!==arguments[5]?arguments[5]:0;n(this,t),this.m=[r,e,i,u,o,a],this.i=null,this.w=null,this.s=null}return e(t,[{key:"point",value:function(t,n){var r=this.m;return{x:r[0]*t+r[2]*n+r[4],y:r[1]*t+r[3]*n+r[5]}}},{key:"translateSelf",value:function(){var t=arguments.length>0&&void 0!==arguments[0]?arguments[0]:0,n=arguments.length>1&&void 0!==arguments[1]?arguments[1]:0;if(!t&&!n)return this;var r=this.m;return r[4]+=r[0]*t+r[2]*n,r[5]+=r[1]*t+r[3]*n,this.w=this.s=this.i=null,this}},{key:"rotateSelf",value:function(){var t=arguments.length>0&&void 0!==arguments[0]?arguments[0]:0;if(t%=360){var n=j(t*=C),r=q(t),e=this.m,i=e[0],u=e[1];e[0]=i*r+e[2]*n,e[1]=u*r+e[3]*n,e[2]=e[2]*r-i*n,e[3]=e[3]*r-u*n,this.w=this.s=this.i=null}return this}},{key:"scaleSelf",value:function(){var t=arguments.length>0&&void 0!==arguments[0]?arguments[0]:1,n=arguments.length>1&&void 0!==arguments[1]?arguments[1]:1;if(1!==t||1!==n){var r=this.m;r[0]*=t,r[1]*=t,r[2]*=n,r[3]*=n,this.w=this.s=this.i=null}return this}},{key:"skewSelf",value:function(t,n){if(n%=360,(t%=360)||n){var r=this.m,e=r[0],i=r[1],u=r[2],o=r[3];t&&(t=z(t*C),r[2]+=e*t,r[3]+=i*t),n&&(n=z(n*C),r[0]+=u*n,r[1]+=o*n),this.w=this.s=this.i=null}return this}},{key:"resetSelf",value:function(){var t=arguments.length>0&&void 0!==arguments[0]?arguments[0]:1,n=arguments.length>1&&void 0!==arguments[1]?arguments[1]:0,r=arguments.length>2&&void 0!==arguments[2]?arguments[2]:0,e=arguments.length>3&&void 0!==arguments[3]?arguments[3]:1,i=arguments.length>4&&void 0!==arguments[4]?arguments[4]:0,u=arguments.length>5&&void 0!==arguments[5]?arguments[5]:0,o=this.m;return o[0]=t,o[1]=n,o[2]=r,o[3]=e,o[4]=i,o[5]=u,this.w=this.s=this.i=null,this}},{key:"recomposeSelf",value:function(){var t=arguments.length>0&&void 0!==arguments[0]?arguments[0]:null,n=arguments.length>1&&void 0!==arguments[1]?arguments[1]:null,r=arguments.length>2&&void 0!==arguments[2]?arguments[2]:null,e=arguments.length>3&&void 0!==arguments[3]?arguments[3]:null,i=arguments.length>4&&void 0!==arguments[4]?arguments[4]:null;return this.isIdentity||this.resetSelf(),t&&(t.x||t.y)&&this.translateSelf(t.x,t.y),n&&this.rotateSelf(n),r&&(r.x&&this.skewSelf(r.x,0),r.y&&this.skewSelf(0,r.y)),!e||1===e.x&&1===e.y||this.scaleSelf(e.x,e.y),i&&(i.x||i.y)&&this.translateSelf(i.x,i.y),this}},{key:"decompose",value:function(){var t=arguments.length>0&&void 0!==arguments[0]?arguments[0]:0,n=arguments.length>1&&void 0!==arguments[1]?arguments[1]:0,r=this.m,e=r[0]*r[0]+r[1]*r[1],i=[[r[0],r[1]],[r[2],r[3]]],u=T(e);if(0===u)return{origin:{x:r[4],y:r[5]},translate:{x:t,y:n},scale:{x:0,y:0},skew:{x:0,y:0},rotate:0};i[0][0]/=u,i[0][1]/=u;var o=r[0]*r[3]-r[1]*r[2]<0;o&&(u=-u);var a=i[0][0]*i[1][0]+i[0][1]*i[1][1];i[1][0]-=i[0][0]*a,i[1][1]-=i[0][1]*a;var l=T(i[1][0]*i[1][0]+i[1][1]*i[1][1]);if(0===l)return{origin:{x:r[4],y:r[5]},translate:{x:t,y:n},scale:{x:u,y:0},skew:{x:0,y:0},rotate:0};i[1][0]/=l,i[1][1]/=l,a/=l;var f=0;return i[1][1]<0?(f=P(i[1][1])*R,i[0][1]<0&&(f=360-f)):f=O(i[0][1])*R,o&&(f=-f),a=L(a,T(i[0][0]*i[0][0]+i[0][1]*i[0][1]))*R,{origin:{x:r[4],y:r[5]},translate:{x:t,y:n},scale:{x:u,y:l},skew:{x:a,y:0},rotate:f}}},{key:"toString",value:function(){return null===this.s&&(this.s="matrix("+this.m.map(N).join(" ")+")"),this.s}},{key:"determinant",get:function(){var t=this.m;return t[0]*t[3]-t[1]*t[2]}},{key:"isIdentity",get:function(){if(null===this.i){var t=this.m;this.i=1===t[0]&&0===t[1]&&0===t[2]&&1===t[3]&&0===t[4]&&0===t[5]}return this.i}}]),t}(),D=/\.0+$/;function N(t){return Number.isInteger(t)?t:t.toFixed(14).replace(D,"")}Object.freeze({M:2,L:2,Z:0,H:1,V:1,C:6,Q:4,T:2,S:4,A:7});function G(t,n,r){return t+(n-t)*r}function $(t,n,r){var e=arguments.length>3&&void 0!==arguments[3]&&arguments[3],i={x:G(t.x,n.x,r),y:G(t.y,n.y,r)};return e&&(i.a=H(t,n)),i}function H(t,n){return Math.atan2(n.y-t.y,n.x-t.x)}function Q(t,n,r,e){var i=1-e;return i*i*t+2*i*e*n+e*e*r}function U(t,n,r,e){return 2*(1-e)*(n-t)+2*e*(r-n)}function Y(t,n,r,e){var i=arguments.length>4&&void 0!==arguments[4]&&arguments[4],u={x:Q(t.x,n.x,r.x,e),y:Q(t.y,n.y,r.y,e)};return i&&(u.a=Z(t,n,r,e)),u}function Z(t,n,r,e){return Math.atan2(U(t.y,n.y,r.y,e),U(t.x,n.x,r.x,e))}function J(t,n,r,e,i){var u=i*i;return i*u*(e-t+3*(n-r))+3*u*(t+r-2*n)+3*i*(n-t)+t}function K(t,n,r,e,i){var u=1-i;return 3*(u*u*(n-t)+2*u*i*(r-n)+i*i*(e-r))}function W(t,n,r,e,i){var u=arguments.length>5&&void 0!==arguments[5]&&arguments[5],o={x:J(t.x,n.x,r.x,e.x,i),y:J(t.y,n.y,r.y,e.y,i)};return u&&(o.a=X(t,n,r,e,i)),o}function X(t,n,r,e,i){return Math.atan2(K(t.y,n.y,r.y,e.y,i),K(t.x,n.x,r.x,e.x,i))}function tt(t,n,r){var e=arguments.length>3&&void 0!==arguments[3]&&arguments[3];if(rt(n)){if(et(r))return Y(n,r.start,r,t,e)}else if(rt(r)){if(n.end)return Y(n,n.end,r,t,e)}else{if(n.end)return r.start?W(n,n.end,r.start,r,t,e):Y(n,n.end,r,t,e);if(r.start)return Y(n,r.start,r,t,e)}return $(n,r,t,e)}function nt(t,n,r){var e=tt(t,n,r,!0);return e.a=function(t){var n=arguments.length>1&&void 0!==arguments[1]&&arguments[1];return n?t+Math.PI:t}(e.a)/v,e}function rt(t){return!t.type||"corner"===t.type}function et(t){return null!=t.start&&!rt(t)}var it=new V;var ut={f:function(t){return t?t.join(" "):""},i:function(n,r,e){if(0===n)return r;if(1===n)return e;var i=r.length;if(i!==e.length)return h(n,r,e);for(var u,o=new Array(i),a=0;a<i;a++){if((u=t(r[a]))!==t(e[a]))return h(n,r,e);if("number"===u)o[a]=y(n,r[a],e[a]);else{if(r[a]!==e[a])return h(n,r,e);o[a]=r[a]}}return o}},ot={f:null,i:A,u:function(t,n){return function(r){var e=n(r);t.setAttribute("x1",_(e[0])),t.setAttribute("y1",_(e[1])),t.setAttribute("x2",_(e[2])),t.setAttribute("y2",_(e[3]))}}},at={f:_,i:y},lt={f:_,i:function(t,n,r){var e=y(t,n,r);return e<=0?0:e>=1?1:e}},ft={f:M,i:function(t,n,r){var e,i,u,o=n.length,a=r.length;if(o!==a)if(0===o)n=x(o=a,0);else if(0===a)a=o,r=x(o,0);else{var l=(u=(e=o)*(i=a)/function(t,n){for(var r;n;)r=n,n=t%n,t=r;return t||1}(e,i))<0?-u:u;n=k(n,Math.floor(l/o)),r=k(r,Math.floor(l/a)),o=a=l}for(var f=[],s=0;s<o;s++)f.push(c(d(t,n[s],r[s]),6));return f}};function st(t,n,r,e,i,u,o,a){return n=function(t,n,r){for(var e,i,u,o=t.length-1,a={},l=0;l<=o;l++)(e=t[l]).e&&(e.e=n(e.e)),e.v&&"g"===(i=e.v).t&&i.r&&(u=r.getElementById(i.r))&&(a[i.r]=u.querySelectorAll("stop"));return a}(t,e,a),function(e){var i,u=r(e,t,ct);return u?"c"===u.t?E(u.v):"g"===u.t?(n[u.r]&&function(t,n){for(var r=0,e=t.length;r<e;r++)t[r].setAttribute("stop-color",E(n[r]))}(n[u.r],u.v),(i=u.r)?"url(#"+i+")":"none"):"none":"none"}}function ct(t,n,r){if(0===t)return n;if(1===t)return r;if(n&&r){var e=n.t;if(e===r.t)switch(n.t){case"c":return{t:e,v:b(t,n.v,r.v)};case"g":if(n.r===r.r)return{t:e,v:w(t,n.v,r.v),r:n.r}}}return h(t,n,r)}var vt={blur:m,brightness:d,contrast:d,"drop-shadow":function(t,n,r){return 0===t?n:1===t?r:{blur:m(t,n.blur,r.blur),offset:g(t,n.offset,r.offset),color:b(t,n.color,r.color)}},grayscale:d,"hue-rotate":y,invert:d,opacity:d,saturate:d,sepia:d};function ht(t,n,r){if(0===t)return n;if(1===t)return r;var e=n.length;if(e!==r.length)return h(t,n,r);for(var i,u=[],o=0;o<e;o++){if(n[o].type!==r[o].type)return n;if(!(i=vt[n[o].type]))return h(t,n,r);u.push({type:n.type,value:i(t,n[o].value,r[o].value)})}return u}var yt={blur:function(t){return t?function(n){t.setAttribute("stdDeviation",I(n))}:null},brightness:function(t,n,r){return(t=gt(r,n))?function(n){n=_(n),t.map((function(t){return t.setAttribute("slope",n)}))}:null},contrast:function(t,n,r){return(t=gt(r,n))?function(n){var r=_((1-n)/2);n=_(n),t.map((function(t){t.setAttribute("slope",n),t.setAttribute("intercept",r)}))}:null},"drop-shadow":function(t,n,r){var e=r.getElementById(n+"-blur");if(!e)return null;var i=r.getElementById(n+"-offset");if(!i)return null;var u=r.getElementById(n+"-flood");return u?function(t){e.setAttribute("stdDeviation",I(t.blur)),i.setAttribute("dx",_(t.offset.x)),i.setAttribute("dy",_(t.offset.y)),u.setAttribute("flood-color",E(t.color))}:null},grayscale:function(t){return t?function(n){t.setAttribute("values",M(function(t){return[.2126+.7874*(t=1-t),.7152-.7152*t,.0722-.0722*t,0,0,.2126-.2126*t,.7152+.2848*t,.0722-.0722*t,0,0,.2126-.2126*t,.7152-.7152*t,.0722+.9278*t,0,0,0,0,0,1,0]}(n)))}:null},"hue-rotate":function(t){return t?function(n){return t.setAttribute("values",_(n))}:null},invert:function(t,n,r){return(t=gt(r,n))?function(n){n=_(n)+" "+_(1-n),t.map((function(t){return t.setAttribute("tableValues",n)}))}:null},opacity:function(t,n,r){return(t=r.getElementById(n+"-A"))?function(n){return t.setAttribute("tableValues","0 "+_(n))}:null},saturate:function(t){return t?function(n){return t.setAttribute("values",_(n))}:null},sepia:function(t){return t?function(n){return t.setAttribute("values",M(function(t){return[.393+.607*(t=1-t),.769-.769*t,.189-.189*t,0,0,.349-.349*t,.686+.314*t,.168-.168*t,0,0,.272-.272*t,.534-.534*t,.131+.869*t,0,0,0,0,0,1,0]}(n)))}:null}};var dt=["R","G","B"];function gt(t,n){var r=dt.map((function(r){return t.getElementById(n+"-"+r)||null}));return-1!==r.indexOf(null)?null:r}var mt={fill:st,"fill-opacity":lt,stroke:st,"stroke-opacity":lt,"stroke-width":at,"stroke-dashoffset":{f:_,i:y},"stroke-dasharray":ft,opacity:lt,transform:function(n,r,e,i){if(!(n=function(n,r){if(!n||"object"!==t(n))return null;var e=!1;for(var i in n)n.hasOwnProperty(i)&&(n[i]&&n[i].length?(n[i].forEach((function(t){t.e&&(t.e=r(t.e))})),e=!0):delete n[i]);return e?n:null}(n,i)))return null;var u=function(t,i,u){var o=arguments.length>3&&void 0!==arguments[3]?arguments[3]:null;return n[t]?e(i,n[t],u):r&&r[t]?r[t]:o};return r&&r.a&&n.o?function(t){var r=e(t,n.o,nt);return it.recomposeSelf(r,u("r",t,y,0)+r.a,u("k",t,g),u("s",t,g),u("t",t,g)).toString()}:function(t){return it.recomposeSelf(u("o",t,tt,null),u("r",t,y,0),u("k",t,g),u("s",t,g),u("t",t,g)).toString()}},"#filter":function(t,n,r,e,i,u,o,a){if(!n.items||!t||!t.length)return null;var l=function(t,n){var r=(t=t.map((function(t){return t&&yt[t[0]]?(n.getElementById(t[1]),yt[t[0]](n.getElementById(t[1]),t[1],n)):null}))).length;return function(n){for(var e=0;e<r;e++)t[e]&&t[e](n[e].value)}}(n.items,a);return l?(t=function(t,n){return t.map((function(t){return t.e=n(t.e),t}))}(t,e),function(n){l(r(n,t,ht))}):null},"#line":ot,points:{f:M,i:A},d:ut,r:at,"#size":B,"#radius":F,_:function(t,n){if(Array.isArray(t))for(var r=0;r<t.length;r++)this[t[r]]=n;else this[t]=n}},pt=function(){function t(r){n(this,t),this.list=r,this.length=r.length}return e(t,[{key:"setAttribute",value:function(t,n){for(var r=this.list,e=0;e<this.length;e++)r[e].setAttribute(t,n)}},{key:"removeAttribute",value:function(t){for(var n=this.list,r=0;r<this.length;r++)n[r].removeAttribute(t)}},{key:"style",value:function(t,n){for(var r=this.list,e=0;e<this.length;e++)r[e].style[t]=n}}]),t}(),bt=/-./g,wt=function(t,n){return n.toUpperCase()};function At(t){return"function"==typeof t?t:h}function xt(t){return t?"function"==typeof t?t:Array.isArray(t)?function(t){var n=arguments.length>1&&void 0!==arguments[1]?arguments[1]:u;if(!Array.isArray(t))return n;switch(t.length){case 1:return s(t[0])||n;case 2:return s(t[0],t[1])||n;case 4:return a(t[0],t[1],t[2],t[3])||n}return n}(t,null):function(t,n){var r=arguments.length>2&&void 0!==arguments[2]?arguments[2]:u;switch(t){case"linear":return u;case"steps":return s(n.steps||1,n.jump||0)||r;case"bezier":case"cubic-bezier":return a(n.x1||0,n.y1||0,n.x2||0,n.y2||0)||r}return r}(t.type,t.value,null):null}function kt(t,n,r){var e=arguments.length>3&&void 0!==arguments[3]&&arguments[3],i=n.length-1;if(t<=n[0].t)return e?[0,0,n[0].v]:n[0].v;if(t>=n[i].t)return e?[i,1,n[i].v]:n[i].v;var u,o=n[0],a=null;for(u=1;u<=i;u++){if(!(t>n[u].t)){a=n[u];break}o=n[u]}return null==a?e?[i,1,n[i].v]:n[i].v:o.t===a.t?e?[u,1,a.v]:a.v:(t=(t-o.t)/(a.t-o.t),o.e&&(t=o.e(t)),e?[u,t,r(t,o.v,a.v)]:r(t,o.v,a.v))}function St(t,n){var r=arguments.length>2&&void 0!==arguments[2]?arguments[2]:null;return t&&t.length?"function"!=typeof n?null:("function"!=typeof r&&(r=null),function(e){var i=kt(e,t,n);return null!=i&&r&&(i=r(i)),i}):null}function _t(t,n){return t.t-n.t}function Mt(n,r,e,i,u){var o,a="@"===e[0],l="#"===e[0],f=mt[e],s=h;switch(a?(o=e.substr(1),e=o.replace(bt,wt)):l&&(e=e.substr(1)),t(f)){case"function":if(s=f(i,u,kt,xt,e,a,r,n),l)return s;break;case"string":s=St(i,At(f));break;case"object":if((s=St(i,At(f.i),f.f))&&"function"==typeof f.u)return f.u(r,s,e,a,n)}return s?function(t,n,r){var e=arguments.length>3&&void 0!==arguments[3]&&arguments[3];if(e)return t instanceof pt?function(e){return t.style(n,r(e))}:function(e){return t.style[n]=r(e)};if(Array.isArray(n)){var i=n.length;return function(e){var u=r(e);if(null==u)for(var o=0;o<i;o++)t[o].removeAttribute(n);else for(var a=0;a<i;a++)t[a].setAttribute(n,u)}}return function(e){var i=r(e);null==i?t.removeAttribute(n):t.setAttribute(n,i)}}(r,e,s,a):null}function It(n,r,e,i){if(!i||"object"!==t(i))return null;var u=null,o=null;return Array.isArray(i)?o=function(t){if(!t||!t.length)return null;for(var n=0;n<t.length;n++)t[n].e&&(t[n].e=xt(t[n].e));return t.sort(_t)}(i):(o=i.keys,u=i.data||null),o?Mt(n,r,e,o,u):null}function Et(t,n,r){if(!r)return null;var e=[];for(var i in r)if(r.hasOwnProperty(i)){var u=It(t,n,i,r[i]);u&&e.push(u)}return e.length?e:null}function Ft(t,n){if(!n.duration||n.duration<0)return null;var r=function(t,n){if(!n)return null;var r=[];if(Array.isArray(n))for(var e=n.length,i=0;i<e;i++){var u=n[i];if(2===u.length){var o=null;if("string"==typeof u[0])o=t.getElementById(u[0]);else if(Array.isArray(u[0])){o=[];for(var a=0;a<u[0].length;a++)if("string"==typeof u[0][a]){var l=t.getElementById(u[0][a]);l&&o.push(l)}o=o.length?1===o.length?o[0]:new pt(o):null}if(o){var f=Et(t,o,u[1]);f&&(r=r.concat(f))}}}else for(var s in n)if(n.hasOwnProperty(s)){var c=t.getElementById(s);if(c){var v=Et(t,c,n[s]);v&&(r=r.concat(v))}}return r.length?r:null}(t,n.elements);return r?function(t,n){var r=arguments.length>2&&void 0!==arguments[2]?arguments[2]:1/0,e=arguments.length>3&&void 0!==arguments[3]?arguments[3]:1,i=arguments.length>4&&void 0!==arguments[4]&&arguments[4],u=arguments.length>5&&void 0!==arguments[5]?arguments[5]:1,o=t.length,a=e>0?n:0;i&&r%2==0&&(a=n-a);var l=null;return function(f,s){var c=f%n,v=1+(f-c)/n;s*=e,i&&v%2==0&&(s=-s);var h=!1;if(v>r)c=a,h=!0,-1===u&&(c=e>0?0:n);else if(s<0&&(c=n-c),c===l)return!1;l=c;for(var y=0;y<o;y++)t[y](c);return h}}(r,n.duration,n.iterations||1/0,n.direction||1,!!n.alternate,n.fill||1):null}var Bt=function(){function t(r){var e=arguments.length>1&&void 0!==arguments[1]?arguments[1]:{};n(this,t),this._id=0,this._running=!1,this._animations=r,this.direction=e.direction||1,this.speed=e.speed||1,this.fps=e.fps||100,this.offset=e.offset||0}return e(t,[{key:"_start",value:function(){var t=this,n=arguments.length>0&&void 0!==arguments[0]?arguments[0]:0,r=-1/0,e=null,i={},u=function u(o){t._running=!0,null==e&&(e=o);var a=Math.round((o-e+n)*t.speed),l=t.fps?1e3/t.fps:0;if(a>r+l){t.offset=a,r=a;for(var f=t._animations,s=f.length,c=0,v=0;v<s;v++)i[v]?c++:(i[v]=f[v](a,t.direction),i[v]&&c++);if(c===s)return void t._stop()}t._id=window.requestAnimationFrame(u)};this._id=window.requestAnimationFrame(u)}},{key:"_stop",value:function(){this._id&&window.cancelAnimationFrame(this._id),this._running=!1}},{key:"play",value:function(){this._running||this._start(this.offset)}},{key:"stop",value:function(){this._stop(),this.offset=0;var t=this.direction,n=this._animations;requestAnimationFrame((function(){for(var r=0;r<n.length;r++)n[r](0,t)}))}},{key:"restart",value:function(){this._stop(),this.offset=0,this._start()}},{key:"pause",value:function(){this._stop()}},{key:"reverse",value:function(){this.direction=-this.direction}}],[{key:"build",value:function(n){if(!(n=function(t){if(!t||!t.root||!Array.isArray(t.animations))return null;var n=window.document.getElementById(t.root);if(!n)return null;var r=t.animations.map((function(t){return Ft(n,t)})).filter((function(t){return!!t}));return r.length?{element:n,animations:r,options:t.options||void 0}:null}(n)))return null;var r=n.element,e=n.options||{},i=new t(n.animations,n.options);return function(t,n,r){var e=arguments.length>3&&void 0!==arguments[3]?arguments[3]:null;if("click"===r){var i=function r(){n.removeEventListener("click",r),t.play()};return void n.addEventListener("click",i)}if("hover"===r)return n.addEventListener("mouseenter",(function(){return t.play()})),void n.addEventListener("mouseleave","freeze"===e?function(){return t.pause()}:function(){return t.stop()});t.play()}(i,r,e.start,e.hover),i}}]),t}();return function(){for(var t=0,n=["ms","moz","webkit","o"],r=0;r<n.length&&!window.requestAnimationFrame;++r)window.requestAnimationFrame=window[n[r]+"RequestAnimationFrame"],window.cancelAnimationFrame=window[n[r]+"CancelAnimationFrame"]||window[n[r]+"CancelRequestAnimationFrame"];window.requestAnimationFrame||(window.requestAnimationFrame=function(n){var r=Date.now(),e=Math.max(0,16-(r-t)),i=window.setTimeout((function(){n(r+e)}),e);return t=r+e,i},window.cancelAnimationFrame=window.clearTimeout)}(),Bt}));
__SVGATOR_PLAYER__.build({"root":"ez7vw63oqkzg1","animations":[{"duration":7000,"direction":1,"iterations":0,"fill":1,"alternate":false,"elements":{"ez7vw63oqkzg16":{"fill":[{"t":600,"v":{"t":"c","v":{"r":0,"g":204,"b":194,"a":1}}},{"t":5500,"v":{"t":"c","v":{"r":0,"g":204,"b":194,"a":1}}},{"t":5600,"v":{"t":"c","v":{"r":156,"g":186,"b":239,"a":1}}}]},"ez7vw63oqkzg21":{"opacity":[{"t":2800,"v":0},{"t":3000,"v":1},{"t":5400,"v":1},{"t":5600,"v":0}]},"ez7vw63oqkzg68":{"opacity":[{"t":600,"v":0},{"t":1800,"v":0},{"t":1900,"v":1},{"t":2900,"v":1},{"t":3000,"v":0}]},"ez7vw63oqkzg70":{"opacity":[{"t":1100,"v":0},{"t":1200,"v":1},{"t":1300,"v":0}]},"ez7vw63oqkzg76":{"opacity":[{"t":2200,"v":0},{"t":2300,"v":1},{"t":2400,"v":0}]},"ez7vw63oqkzg83":{"opacity":[{"t":1800,"v":0},{"t":1900,"v":1},{"t":2900,"v":1},{"t":3000,"v":0}]},"ez7vw63oqkzg84":{"opacity":[{"t":2500,"v":0},{"t":2600,"v":1},{"t":2900,"v":1},{"t":3000,"v":0}]},"ez7vw63oqkzg85":{"opacity":[{"t":2300,"v":0},{"t":2400,"v":1},{"t":2500,"v":1},{"t":2600,"v":0}]},"ez7vw63oqkzg86":{"opacity":[{"t":2100,"v":0},{"t":2200,"v":1},{"t":2300,"v":1},{"t":2400,"v":0}]},"ez7vw63oqkzg94":{"opacity":[{"t":2800,"v":0},{"t":2900,"v":1},{"t":3000,"v":0}]},"ez7vw63oqkzg118":{"opacity":[{"t":2900,"v":1},{"t":3000,"v":0}]},"ez7vw63oqkzg119":{"opacity":[{"t":1800,"v":0},{"t":1900,"v":1}]},"ez7vw63oqkzg120":{"opacity":[{"t":1400,"v":0},{"t":1500,"v":1}]},"ez7vw63oqkzg121":{"opacity":[{"t":1700,"v":0},{"t":1800,"v":1}]},"ez7vw63oqkzg122":{"opacity":[{"t":1300,"v":0},{"t":1400,"v":1}]},"ez7vw63oqkzg123":{"opacity":[{"t":1200,"v":0},{"t":1300,"v":1}]},"ez7vw63oqkzg124":{"opacity":[{"t":1600,"v":0},{"t":1700,"v":1}]},"ez7vw63oqkzg125":{"opacity":[{"t":1500,"v":0},{"t":1600,"v":1}]},"ez7vw63oqkzg126":{"opacity":[{"t":5300,"v":0},{"t":5400,"v":1},{"t":5500,"v":0}]},"ez7vw63oqkzg132":{"transform":{"keys":{"o":[{"t":600,"v":{"x":1098.40147146,"y":484.2061128749989,"type":"corner"}},{"t":1100,"v":{"x":469.60009375499976,"y":187.01133181999919,"type":"corner"}},{"t":1200,"v":{"x":471.4201627049997,"y":211.66855458999908,"type":"corner"}},{"t":2100,"v":{"x":471.4201627049997,"y":211.66855458999908,"type":"corner"}},{"t":2500,"v":{"x":937.7340324349996,"y":455.02299543499896,"type":"corner"}},{"t":3400,"v":{"x":937.7340324349996,"y":455.02299543499896,"type":"corner"}},{"t":4700,"v":{"x":937.7340324349996,"y":455.02299543499896,"type":"corner"}},{"t":5300,"v":{"x":1260.666103579999,"y":790.5462719849993,"type":"corner"}},{"t":5800,"v":{"x":1260.666103579999,"y":790.5462719849993,"type":"corner"}},{"t":6400,"v":{"x":1098.40147146,"y":484.2061128749989,"type":"corner"}}]}}},"ez7vw63oqkzg136":{"transform":{"data":{"t":{"x":50,"y":50}},"keys":{"o":[{"t":0,"v":{"x":-526.51232513,"y":1175.5415844249994,"type":"corner"}},{"t":7000,"v":{"x":2343.215960594999,"y":1176.1362034549988,"type":"corner"}}]}}}}}],"options":{"start":"load","hover":"freeze"}})]]></script></svg>