<svg id="eodtle4g6s491" 
   xmlns="http://www.w3.org/2000/svg" 
   xmlns:xlink="http://www.w3.org/1999/xlink" viewBox="0 0 1143 1069" shape-rendering="geometricPrecision" text-rendering="geometricPrecision">
   <style><![CDATA[#eodtle4g6s491{pointer-events: all}#eodtle4g6s491:hover #eodtle4g6s492 {animation: eodtle4g6s492_c_o 3000ms linear 1 normal forwards}@keyframes eodtle4g6s492_c_o { 0% {opacity: 0} 13.333333% {opacity: 1} 56.666667% {opacity: 1} 70% {opacity: 0} 100% {opacity: 0} }#eodtle4g6s491:hover #eodtle4g6s493 {animation: eodtle4g6s493_c_o 3000ms linear 1 normal forwards}@keyframes eodtle4g6s493_c_o { 0% {opacity: 0} 13.333333% {opacity: 1} 56.666667% {opacity: 1} 70% {opacity: 0} 100% {opacity: 0} }#eodtle4g6s491:hover #eodtle4g6s4911 {animation: eodtle4g6s4911_c_o 3000ms linear 1 normal forwards}@keyframes eodtle4g6s4911_c_o { 0% {opacity: 0} 13.333333% {opacity: 1} 56.666667% {opacity: 1} 70% {opacity: 0} 100% {opacity: 0} }#eodtle4g6s491:hover #eodtle4g6s4912 {animation: eodtle4g6s4912_c_o 3000ms linear 1 normal forwards}@keyframes eodtle4g6s4912_c_o { 0% {opacity: 0} 13.333333% {opacity: 1} 56.666667% {opacity: 1} 70% {opacity: 0} 100% {opacity: 0} }#eodtle4g6s491:hover #eodtle4g6s4914 {animation: eodtle4g6s4914_c_o 3000ms linear 1 normal forwards}@keyframes eodtle4g6s4914_c_o { 0% {opacity: 0} 13.333333% {opacity: 1} 56.666667% {opacity: 1} 70% {opacity: 0} 100% {opacity: 0} }#eodtle4g6s491:hover #eodtle4g6s4915 {animation: eodtle4g6s4915_c_o 3000ms linear 1 normal forwards}@keyframes eodtle4g6s4915_c_o { 0% {opacity: 0} 13.333333% {opacity: 1} 56.666667% {opacity: 1} 70% {opacity: 0} 100% {opacity: 0} }#eodtle4g6s491:hover #eodtle4g6s4916 {animation: eodtle4g6s4916_c_o 3000ms linear 1 normal forwards}@keyframes eodtle4g6s4916_c_o { 0% {opacity: 0} 13.333333% {opacity: 1} 56.666667% {opacity: 1} 70% {opacity: 0} 100% {opacity: 0} }#eodtle4g6s491:hover #eodtle4g6s4918 {animation: eodtle4g6s4918_c_o 3000ms linear 1 normal forwards}@keyframes eodtle4g6s4918_c_o { 0% {opacity: 0} 13.333333% {opacity: 1} 56.666667% {opacity: 1} 70% {opacity: 0} 100% {opacity: 0} }#eodtle4g6s491:hover #eodtle4g6s4919 {animation: eodtle4g6s4919_c_o 3000ms linear 1 normal forwards}@keyframes eodtle4g6s4919_c_o { 0% {opacity: 0} 13.333333% {opacity: 1} 56.666667% {opacity: 1} 70% {opacity: 0} 100% {opacity: 0} }#eodtle4g6s491:hover #eodtle4g6s4926 {animation: eodtle4g6s4926_c_o 3000ms linear 1 normal forwards}@keyframes eodtle4g6s4926_c_o { 0% {opacity: 0} 13.333333% {opacity: 1} 56.666667% {opacity: 1} 70% {opacity: 0} 100% {opacity: 0} }#eodtle4g6s491:hover #eodtle4g6s4927 {animation: eodtle4g6s4927__sz 3000ms linear 1 normal forwards}@keyframes eodtle4g6s4927__sz { 0% {width: 97.501602px;height: 23.790115px} 33.333333% {width: 97.501602px;height: 23.790115px;animation-timing-function: cubic-bezier(0.420000,0,0.580000,1)} 36% {width: 97.501602px;height: 71.550021px;animation-timing-function: cubic-bezier(0.420000,0,0.580000,1)} 46.666667% {width: 97.501602px;height: 71.550021px;animation-timing-function: cubic-bezier(0.420000,0,0.580000,1)} 49.333333% {width: 97.501602px;height: 23.790115px} 100% {width: 97.501602px;height: 23.790115px} }#eodtle4g6s491:hover #eodtle4g6s4928 {
           animation-name: eodtle4g6s4928__sz, eodtle4g6s4928_c_o;
           animation-duration: 3000ms;
           animation-fill-mode: forwards;
           animation-timing-function: linear;
           animation-direction: normal;
           animation-iteration-count: 1;  
        }@keyframes eodtle4g6s4928__sz { 0% {width: 97.501602px;height: 23.790115px} 33.333333% {width: 97.501602px;height: 23.790115px;animation-timing-function: cubic-bezier(0.420000,0,1,1)} 36% {width: 97.501602px;height: 71.550021px;animation-timing-function: cubic-bezier(0.420000,0,1,1)} 46.666667% {width: 97.501602px;height: 71.550021px;animation-timing-function: cubic-bezier(0,0,0.580000,1)} 49.333333% {width: 97.501602px;height: 23.790115px;animation-timing-function: cubic-bezier(0,0,0.580000,1)} 50% {width: 97.501602px;height: 16.970424px} 100% {width: 97.501602px;height: 16.970424px} }@keyframes eodtle4g6s4928_c_o { 0% {opacity: 0} 30% {opacity: 0} 33.333333% {opacity: 1} 100% {opacity: 1} }#eodtle4g6s491:hover #eodtle4g6s4930_to {animation: eodtle4g6s4930_to__to 3000ms linear 1 normal forwards}@keyframes eodtle4g6s4930_to__to { 0% {transform: translate(699.504135px,472.245000px)} 33.333333% {transform: translate(699.504135px,472.245000px)} 50% {transform: translate(723.620448px,421.570403px)} 100% {transform: translate(723.620448px,421.570403px)} }#eodtle4g6s491:hover #eodtle4g6s4930 {animation: eodtle4g6s4930_c_o 3000ms linear 1 normal forwards}@keyframes eodtle4g6s4930_c_o { 0% {opacity: 0} 33.333333% {opacity: 0} 36.666667% {opacity: 1} 46.666667% {opacity: 1} 50% {opacity: 0} 100% {opacity: 0} }#eodtle4g6s491:hover #eodtle4g6s4931 {animation: eodtle4g6s4931_c_o 3000ms linear 1 normal forwards}@keyframes eodtle4g6s4931_c_o { 0% {opacity: 0} 13.333333% {opacity: 1} 56.666667% {opacity: 1} 70% {opacity: 0} 100% {opacity: 0} }#eodtle4g6s491:hover #eodtle4g6s4932 {animation: eodtle4g6s4932_c_o 3000ms linear 1 normal forwards}@keyframes eodtle4g6s4932_c_o { 0% {opacity: 0} 13.333333% {opacity: 1} 56.666667% {opacity: 1} 70% {opacity: 0} 100% {opacity: 0} }]]></style>
   <circle id="eodtle4g6s492" r="63.624251" transform="matrix(1 0 0 1 480.00000000250049 559.09500000249966)" opacity="0" fill="rgb(109,68,150)" stroke="none" stroke-width="1"/>
   <circle id="eodtle4g6s493" r="63.624251" transform="matrix(1 0 0 1 681.99999999750048 562.40481165249980)" opacity="0" fill="rgb(109,68,150)" stroke="none" stroke-width="1"/>
   <g id="eodtle4g6s494">
      <g id="eodtle4g6s495">
         <path id="eodtle4g6s496" display="none" d="M573.800000,1034C506.900000,1034,441.900000,1020.900000,380.800000,995C321.800000,970,268.700000,934.300000,223.200000,888.700000C177.700000,843.200000,141.900000,790.100000,116.900000,731.100000C91,670,77.900000,605,77.900000,538.100000C77.900000,471.200000,91,406.200000,116.900000,345.100000C141.900000,286.100000,177.600000,233,223.200000,187.500000C268.700000,142,321.800000,106.200000,380.800000,81.200000C441.900000,55.300000,506.900000,42.200000,573.800000,42.200000C640.700000,42.200000,705.700000,55.300000,766.800000,81.200000C825.800000,106.200000,878.900000,141.900000,924.400000,187.500000C969.900000,233.100000,1005.700000,286.100000,1030.700000,345.100000C1056.600000,406.200000,1069.700000,471.200000,1069.700000,538.100000C1069.700000,605,1056.600000,670,1030.700000,731.100000C1005.700000,790.100000,970,843.200000,924.400000,888.700000C878.900000,934.300000,825.900000,970,766.800000,995C705.700000,1020.800000,640.700000,1034,573.800000,1034Z" transform="matrix(1 0 0 1 -0.00000000000011 0.24999999999989)" fill="rgb(109,68,150)" stroke="none" stroke-width="1"/>
         <path id="eodtle4g6s497" display="none" d="M573.800000,42.300000C640.700000,42.300000,705.600000,55.400000,766.800000,81.300000C825.800000,106.300000,878.900000,142,924.400000,187.500000C969.900000,233,1005.700000,286,1030.600000,345.100000C1056.500000,406.200000,1069.600000,471.100000,1069.600000,538.100000C1069.600000,605,1056.500000,669.900000,1030.600000,731.100000C1005.600000,790.100000,969.900000,843.200000,924.400000,888.700000C878.900000,934.200000,825.900000,970,766.800000,994.900000C705.700000,1020.800000,640.800000,1033.900000,573.800000,1033.900000C506.900000,1033.900000,442,1020.800000,380.800000,994.900000C321.800000,969.900000,268.700000,934.200000,223.200000,888.700000C177.700000,843.100000,142,790.100000,117,731.100000C91.100000,670,78,605.100000,78,538.100000C78,471.200000,91.100000,406.300000,117,345.100000C142,286.100000,177.700000,233,223.200000,187.500000C268.700000,142,321.700000,106.200000,380.800000,81.300000C442,55.400000,506.900000,42.300000,573.800000,42.300000M573.800000,42.100000C299.900000,42.100000,77.800000,264.200000,77.800000,538.100000C77.800000,812,299.900000,1034.100000,573.800000,1034.100000C847.700000,1034.100000,1069.800000,812,1069.800000,538.100000C1069.800000,264.200000,847.700000,42.100000,573.800000,42.100000L573.800000,42.100000Z" fill="rgb(0,0,0)" stroke="none" stroke-width="1"/>
      </g>
      <g id="eodtle4g6s498">
         <circle id="eodtle4g6s499" display="none" r="73.400000" transform="matrix(1 0 0 1 474.99999999999994 566.50000000000000)" fill="rgb(109,68,150)" stroke="none" stroke-width="1"/>
         <path id="eodtle4g6s4910" d="M476.500000,493.200000C516.900000,493.200000,549.700000,526.100000,549.700000,566.400000C549.700000,606.700000,516.800000,639.600000,476.500000,639.600000C436.200000,639.600000,403.300000,606.700000,403.300000,566.400000C403.300000,526.100000,436.100000,493.200000,476.500000,493.200000M476.500000,493C435.900000,493,403,525.900000,403,566.500000C403,607.100000,435.900000,640,476.500000,640C517.100000,640,550,607.100000,550,566.500000C550,525.900000,517.100000,493,476.500000,493L476.500000,493Z" fill="rgb(0,0,0)" stroke="none" stroke-width="1"/>
      </g>
      <ellipse id="eodtle4g6s4911" rx="33" ry="16" transform="matrix(1 0 0 1 480 598)" opacity="0" fill="rgb(163,138,191)" stroke="none" stroke-width="1"/>
      <ellipse id="eodtle4g6s4912" rx="33" ry="16" transform="matrix(1 0 0 1 686 598)" opacity="0" fill="rgb(163,138,191)" stroke="none" stroke-width="1"/>
      <g id="eodtle4g6s4913">
         <ellipse id="eodtle4g6s4914" rx="15" ry="25.500000" transform="matrix(1 0 0 1 686 561.50000000000000)" opacity="0" fill="rgb(49,19,91)" stroke="none" stroke-width="1"/>
      </g>
      <ellipse id="eodtle4g6s4915" rx="16.500000" ry="16" transform="matrix(1 0 0 1 665.50000000000000 538)" opacity="0" fill="rgb(255,255,255)" stroke="none" stroke-width="1"/>
      <ellipse id="eodtle4g6s4916" rx="2" ry="3.500000" transform="matrix(0.63700000000000 -0.77090000000000 0.77090000000000 0.63700000000000 697.02465000000007 578.49619999999993)" opacity="0" fill="rgb(255,255,255)" stroke="none" stroke-width="1"/>
      <g id="eodtle4g6s4917">
         <ellipse id="eodtle4g6s4918" rx="15" ry="25.500000" transform="matrix(1 0 0 1 479 561.50000000000000)" opacity="0" fill="rgb(49,19,91)" stroke="none" stroke-width="1"/>
      </g>
      <ellipse id="eodtle4g6s4919" rx="2" ry="3.500000" transform="matrix(0.63700000000000 -0.77090000000000 0.77090000000000 0.63700000000000 492.02165000000008 578.50070000000005)" opacity="0" fill="rgb(255,255,255)" stroke="none" stroke-width="1"/>
      <g id="eodtle4g6s4920">
         <path id="eodtle4g6s4921" d="M157.500000,413L298.400000,413C304.100000,413,308.700000,417.600000,308.700000,423.300000L308.700000,451.100000C308.700000,456.800000,304.100000,461.400000,298.400000,461.400000L217.900000,461.400000C212.200000,461.400000,207.600000,466,207.600000,471.700000L207.600000,503.400000C207.600000,509.100000,212.200000,513.700000,217.900000,513.700000L272.900000,513.700000C278.600000,513.700000,283.200000,518.300000,283.200000,524L283.200000,550.400000C283.200000,556.100000,278.600000,560.700000,272.900000,560.700000L217.900000,560.700000C212.200000,560.700000,207.600000,565.300000,207.600000,571L207.600000,650.800000C207.600000,656.500000,203,661.100000,197.300000,661.100000L157.500000,661.100000C151.800000,661.100000,147.200000,656.500000,147.200000,650.800000L147.200000,423.200000C147.200000,417.600000,151.800000,413,157.500000,413Z" transform="matrix(1 0 0 1 -1.00000000000006 -0.00000000000045)" fill="rgb(255,255,255)" stroke="none" stroke-width="1"/>
         <path id="eodtle4g6s4922" d="M329,412.300000L355.800000,412.300000C365.100000,412.300000,372.600000,419.500000,372.600000,428.300000L372.600000,645.100000C372.600000,653.900000,365.100000,661.100000,355.800000,661.100000L329,661.100000C319.700000,661.100000,312.200000,653.900000,312.200000,645.100000L312.200000,428.300000C312.200000,419.500000,319.700000,412.300000,329,412.300000Z" fill="rgb(255,255,255)" stroke="none" stroke-width="1"/>
         <path id="eodtle4g6s4923" d="M477.900000,663.800000C420,663.800000,376.100000,624.900000,376.100000,562.400000C376.100000,499.900000,421,461,478.600000,461C536.500000,461,581.100000,499.900000,581.100000,562.400000C581.100000,624.900000,535.800000,663.800000,477.900000,663.800000ZM477.900000,611.500000C499.500000,611.500000,519.600000,595.600000,519.600000,562.400000C519.600000,528.800000,499.800000,513.300000,478.600000,513.300000C456.700000,513.300000,437.600000,528.800000,437.600000,562.400000C437.600000,595.600000,456,611.500000,477.900000,611.500000Z" fill="rgb(255,255,255)" stroke="none" stroke-width="1"/>
         <path id="eodtle4g6s4924" d="M686.200000,663.800000C628.300000,664.300000,584.100000,625.800000,583.600000,563.300000C583.100000,500.800000,627.600000,461.500000,685.200000,461C743.100000,460.500000,788,499,788.500000,561.500000C789,624,744.100000,663.300000,686.200000,663.800000ZM685.700000,611.500000C707.300000,611.300000,727.300000,595.200000,727,562C726.700000,528.400000,706.800000,513.100000,685.600000,513.200000C663.700000,513.400000,644.700000,529.100000,645,562.700000C645.300000,596,663.800000,611.700000,685.700000,611.500000Z" transform="matrix(1 0 0 1 0.00000000499995 0.00481164999997)" fill="rgb(255,255,255)" stroke="none" stroke-width="1"/>
         <path id="eodtle4g6s4925" d="M913.500000,471.300000C962.300000,471.300000,1000.400000,508.200000,1000.400000,567.200000C1000.400000,626.200000,961.900000,663.800000,913.500000,663.800000C893.200000,663.800000,876.800000,657.700000,865.100000,648.400000C860.200000,644.500000,852.700000,647.800000,852.700000,653.900000L852.700000,653.900000C852.700000,657.900000,849.300000,661.100000,845.100000,661.100000L799.900000,661.100000C795.700000,661.100000,792.300000,657.900000,792.300000,653.900000L792.300000,420.100000C792.300000,416.100000,795.700000,412.900000,799.900000,412.900000L845.100000,412.900000C849.300000,412.900000,852.700000,416.100000,852.700000,420.100000L852.700000,481.400000C852.700000,487.500000,860.200000,490.900000,865.100000,486.900000C877,477.400000,893.600000,471.300000,913.500000,471.300000ZM895.500000,521.300000C872.900000,521.300000,852.400000,537.700000,852.400000,567.600000C852.400000,597.500000,872.900000,613.900000,895.500000,613.900000C918.500000,613.900000,939,597.100000,939,567.300000C939,537.400000,918.500000,521.300000,895.500000,521.300000Z" fill="rgb(255,255,255)" stroke="none" stroke-width="1"/>
      </g>
      <ellipse id="eodtle4g6s4926" rx="16.500000" ry="16" transform="matrix(1 0 0 1 458.50000000000000 536)" opacity="0" fill="rgb(255,255,255)" stroke="none" stroke-width="1"/>
   </g>
   <rect id="eodtle4g6s4927" width="97.501602" height="23.790115" rx="0" ry="0" transform="matrix(-0.99997945639457 -0.00640989772319 0.00640989772319 -0.99997945639457 734.62044753922908 637.36209357771133)" fill="rgb(255,255,255)" stroke="none" stroke-width="1"/>
   <rect id="eodtle4g6s4928" width="97.501602" height="23.790115" rx="0" ry="0" transform="matrix(1 0 0 1 637.29918061999945 491.44997949999896)" opacity="0" fill="rgb(255,255,255)" stroke="none" stroke-width="1"/>
   <rect id="eodtle4g6s4929" width="184.500000" height="275.179677" rx="0" ry="0" transform="matrix(1 0 0 1 134.69999999999993 399.11016150000012)" opacity="0" fill="rgb(109,68,150)" stroke="none" stroke-width="1"/>
   <g id="eodtle4g6s4930_to" transform="translate(699.504135,472.245000)">
      <polygon id="eodtle4g6s4930" points="50,12.660000 59.210000,41 89,41 64.900000,58.510000 74.100000,86.850000 50,69.330000 25.900000,86.850000 35.100000,58.510000 11,41 40.790000,41 50,12.660000" transform="translate(0,0)" opacity="0" fill="rgb(7,227,244)" stroke="none" stroke-width="1"/>
   </g>
   <path id="eodtle4g6s4931" d="M12.790000,40C31.400000,40,31.400000,46.376165,50,46.376165C68.600000,46.376165,68.600000,40,87.210000,40" transform="matrix(1 0 0 1 635.87064805500108 566.40899351500025)" opacity="0" fill="none" stroke="rgb(255,255,255)" stroke-width="6" stroke-linecap="round" stroke-linejoin="round"/>
   <path id="eodtle4g6s4932" d="M12.790000,40C31.400000,40,31.400000,46.376165,50,46.376165C68.600000,46.376165,68.600000,40,87.210000,40" transform="matrix(1 0 0 1 428.60000000000150 566.40899351500002)" opacity="0" fill="none" stroke="rgb(255,255,255)" stroke-width="6" stroke-linecap="round" stroke-linejoin="round"/>
</svg>