<?xml version="1.0" encoding="utf-8"?>
<!-- Generator: Adobe Illustrator 24.1.3, SVG Export Plug-In . SVG Version: 6.00 Build 0)  -->
<svg version="1.1" xmlns="http://www.w3.org/2000/svg" xmlns:xlink="http://www.w3.org/1999/xlink" x="0px" y="0px"
	 viewBox="0 0 1543 476" style="enable-background:new 0 0 1543 476;" xml:space="preserve">
<style type="text/css">
	.st0{fill:#091E33;}
	.st1{fill:#111111;}
	.st2{fill:#634FD6;}
	.st3{fill:#4A40A8;}
	.st4{fill:#333077;}
	.st5{fill:#1A1A3F;}
	.st6{fill:#CCC7FF;}
	.st7{fill:#A19AE2;}
	.st8{fill:#8379DB;}
	.st9{fill:#2F64EB;}
	.st10{fill:#8E8E8E;}
	.st11{fill:#BB67F5;}
	.st12{fill:#00CCC2;}
	.st13{fill:#2B59C1;}
	.st14{fill:#686868;}
	.st15{fill:#9859C9;}
	.st16{fill:#04A397;}
	.st17{fill:#21488E;}
	.st18{fill:#3F3F3F;}
	.st19{fill:#6D4496;}
	.st20{fill:#036D63;}
	.st21{fill:#163259;}
	.st22{fill:#432B5E;}
	.st23{fill:#01352F;}
	.st24{fill:#D2E1FF;}
	.st25{fill:#FCFCFC;}
	.st26{fill:#DAC0FF;}
	.st27{fill:#D4FFFB;}
	.st28{fill:#9CBAEF;}
	.st29{fill:#D1D1D1;}
	.st30{fill:#D1B1EF;}
	.st31{fill:#AFF9EA;}
	.st32{fill:#6A93EF;}
	.st33{fill:#B1B1B2;}
	.st34{fill:#C58FEF;}
	.st35{fill:#6AE5DC;}
	.st36{fill:none;stroke:#808080;stroke-width:2;stroke-miterlimit:10;}
	.st37{fill:#D4CEDD;}
	.st38{opacity:0.41;}
	.st39{fill:#E6E7E8;}
	.st40{display:none;}
	.st41{fill:#0F0B16;}
	.st42{fill:#0E2D47;}
	.st43{fill:#5872F4;}
	.st44{fill:#666666;}
	.st45{fill:#1D1A23;}
	.st46{display:none;fill:#FFFFFF;stroke:#000000;stroke-width:2;stroke-miterlimit:10;}
	.st47{opacity:0.23;}
	.st48{clip-path:url(#SVGID_30_);}
	.st49{fill:url(#SVGID_31_);}
	.st50{fill:#FFFFFF;stroke:#000000;stroke-width:2;stroke-miterlimit:10;}
	.st51{fill:#5B8CEA;}
	.st52{fill:#73BABD;}
	.st53{fill:#37364B;}
	.st54{fill:#F4B3AF;}
	.st55{fill:#C8C6DA;}
	.st56{fill:#292938;}
	.st57{fill:#5E5BF7;}
	.st58{fill:none;stroke:#C8C6DA;stroke-width:2;stroke-miterlimit:10;}
	.st59{fill:#FFFFFF;fill-opacity:0;}
	.st60{fill:#8D5A5F;}
	.st61{fill:#FFFFFF;}
	.st62{display:inline;fill:#102041;}
	.st63{display:inline;fill:#222C37;}
	.st64{display:inline;fill:#49C0B9;}
	.st65{display:inline;fill:#151756;}
	.st66{display:inline;fill:#A763ED;}
	.st67{display:inline;fill:#3059E1;}
	.st68{display:inline;fill:#5448CA;}
	.st69{display:inline;fill:#FFFFFF;}
	.st70{display:inline;fill:#E6E6E6;}
	.st71{fill:#222C37;}
	.st72{fill:#3059E1;}
	.st73{fill:#14294D;}
	.st74{fill:#151756;}
	.st75{fill:#A763ED;}
	.st76{fill:#5448CA;}
	.st77{fill:#E6E6E6;}
	.st78{fill:#9F9F9F;}
	.st79{fill:none;stroke:#FFFFFF;stroke-width:0.3;stroke-miterlimit:3;}
	.st80{display:inline;fill:#CACAD9;}
	.st81{display:none;fill:none;}
	.st82{display:none;opacity:0;}
	.st83{opacity:0.1;fill:#5E5BF7;enable-background:new    ;}
	.st84{fill:url(#SVGID_32_);}
	.st85{fill:#F1B8B6;}
	.st86{fill:#3D3B48;}
	.st87{opacity:0.1;enable-background:new    ;}
	.st88{fill:#9659C7;}
	.st89{opacity:5.000000e-02;enable-background:new    ;}
	.st90{opacity:0.1;}
	.st91{fill:none;stroke:#37364B;stroke-width:3;stroke-miterlimit:10;}
	.st92{fill:#2F64E9;}
	.st93{fill:#4DCAC0;}
	.st94{fill:#2F64E9;stroke:#000000;stroke-width:0.25;stroke-miterlimit:10;}
	.st95{fill:#EFEFEF;}
	.st96{fill:#4DCAC0;stroke:#000000;stroke-width:0.25;stroke-miterlimit:10;}
	.st97{fill:#D8BDFB;}
	.st98{fill:#D2FCF9;}
	.st99{fill:none;stroke:#37364B;stroke-width:2;stroke-miterlimit:10;}
	.st100{fill:#8C5A5F;}
	.st101{fill:#F9F9F9;}
	.st102{fill:#32405A;}
	.st103{fill:#F4B4B0;}
	.st104{fill:#4D507C;}
	.st105{fill:#CFDEFC;}
	.st106{fill:#3E303C;}
	.st107{fill:#B56E7A;}
	.st108{fill:#CFAFED;}
	.st109{fill:#C7CBD9;}
	.st110{fill:#764153;}
	.st111{fill:#DC8691;}
	.st112{fill:#E8EEF3;}
	.st113{opacity:0.23;fill:#D2E1FF;stroke:#000000;stroke-width:0.25;stroke-miterlimit:10;}
	.st114{clip-path:url(#SVGID_34_);}
	.st115{fill:url(#e414iveyabnh3_2_);}
	.st116{fill:url(#e414iveyabnh4_2_);}
	.st117{fill:url(#e414iveyabnh5_2_);}
	.st118{fill:#E4B0B0;}
	.st119{fill:url(#e414iveyabnh9_2_);}
	.st120{fill:#49C0B9;}
	.st121{fill:#E1E1E1;}
	.st122{fill:#102041;}
	.st123{fill:none;stroke:#FFFFFF;stroke-miterlimit:10;}
	.st124{fill:none;}
	.st125{opacity:0.2;enable-background:new    ;}
	.st126{fill:url(#e414iveyabnh92_2_);}
	.st127{fill:#595770;}
	.st128{fill:#215651;}
	.st129{fill:#ED677A;}
	.st130{fill:url(#e414iveyabnh182_2_);}
	.st131{fill:#E6E8EC;}
	.st132{fill:#32315B;}
	.st133{fill:#E6C0C5;}
	.st134{fill:#C4828F;}
	.st135{fill:#DAE1F1;}
	.st136{opacity:0.15;enable-background:new    ;}
	.st137{fill:#43434B;}
	.st138{fill:#CBD2E7;}
	.st139{fill:url(#e414iveyabnh200_2_);}
	.st140{fill:#C3807A;}
	.st141{fill:#905D5E;}
	.st142{fill:#3B3848;}
	.st143{fill:#5B5971;}
	.st144{fill:url(#e414iveyabnh254_2_);}
	.st145{fill:#3D394E;}
	.st146{fill:#B6B3C6;}
	.st147{fill:#E4E6ED;}
	.st148{fill:#D2E1F6;}
	.st149{fill:#534B63;}
	.st150{fill:#F7C9D2;}
	.st151{fill:#9D6E6F;}
	.st152{fill:#BB8890;}
	.st153{opacity:0.1;fill:#FFFFFF;enable-background:new    ;}
	.st154{fill:none;stroke:#49C0B9;stroke-miterlimit:10;}
	.st155{fill:url(#e414iveyabnh427_2_);}
	.st156{fill:#CDD3DB;}
	.st157{fill:#D0DBF0;}
	.st158{fill:#CACAD9;}
	.st159{display:inline;fill:none;stroke:#000000;stroke-width:3;stroke-miterlimit:10;}
	.st160{clip-path:url(#SVGID_36_);}
	.st161{fill:url(#SVGID_37_);}
	.st162{fill:url(#SVGID_38_);}
	.st163{clip-path:url(#SVGID_40_);}
	.st164{fill:url(#e414iveyabnh3_3_);}
	.st165{fill:url(#e414iveyabnh4_3_);}
	.st166{fill:url(#e414iveyabnh5_3_);}
	.st167{fill:url(#e414iveyabnh9_3_);}
	.st168{fill:url(#e414iveyabnh92_3_);}
	.st169{fill:url(#e414iveyabnh182_3_);}
	.st170{fill:url(#e414iveyabnh200_3_);}
	.st171{fill:url(#e414iveyabnh254_3_);}
	.st172{fill:url(#e414iveyabnh427_3_);}
</style>
<g id="Layer_1">
</g>
<g id="Layer_2">
	<g>
		<path class="st61" d="M29.4,17.1h251.3c10.1,0,18.4,8.2,18.4,18.4v49.6c0,10.1-8.2,18.4-18.4,18.4H137.1
			c-10.1,0-18.4,8.2-18.4,18.4v56.6c0,10.1,8.2,18.4,18.4,18.4h98.2c10.1,0,18.4,8.2,18.4,18.4v47.1c0,10.1-8.2,18.4-18.4,18.4
			h-98.2c-10.1,0-18.4,8.2-18.4,18.4v142.3c0,10.1-8.2,18.4-18.4,18.4H29.4c-10.1,0-18.4-8.2-18.4-18.4V35.4
			C11,25.3,19.2,17.1,29.4,17.1z"/>
		<path class="st61" d="M335.3,16h47.9c16.5,0,29.9,12.8,29.9,28.5v386.8c0,15.7-13.4,28.5-29.9,28.5h-47.9
			c-16.5,0-29.9-12.8-29.9-28.5V44.5C305.3,28.8,318.7,16,335.3,16z"/>
		<path class="st61" d="M600.9,464.6c-103.4,0-181.5-69.3-181.5-180.9s80-180.9,182.8-180.9c103.4,0,182.8,69.3,182.8,180.9
			S704.3,464.6,600.9,464.6z M600.9,371.3c38.4,0,74.4-28.4,74.4-87.6c0-59.9-35.3-87.6-73.1-87.6c-39.1,0-73.1,27.7-73.1,87.6
			C529,342.9,561.8,371.3,600.9,371.3z"/>
		<path class="st61" d="M972.4,464.6c-103.4,0.9-182.1-67.7-183.1-179.3c-1-111.6,78.5-181.6,181.2-182.5
			c103.4-0.9,183.4,67.7,184.3,179.3S1075.8,463.7,972.4,464.6z M971.6,371.3c38.4-0.3,74.1-29,73.6-88.2
			c-0.5-59.9-36.1-87.3-73.9-87c-39.1,0.3-72.9,28.4-72.3,88.2C899.5,343.6,932.5,371.6,971.6,371.3z"/>
		<path class="st61" d="M1378,121.1c87,0,155,65.8,155,171.1c0,105.3-68.7,172.3-155,172.3c-36.3,0-65.4-10.9-86.3-27.5
			c-8.8-7-22.1-1-22.1,9.9v0c0,7.1-6.1,12.9-13.5,12.9h-80.7c-7.5,0-13.5-5.8-13.5-12.9V29.9c0-7.1,6.1-12.9,13.5-12.9h80.7
			c7.5,0,13.5,5.8,13.5,12.9l0,109.3c0,10.9,13.4,16.9,22.1,9.9C1312.9,132.1,1342.4,121.1,1378,121.1z M1345.8,210.3
			c-40.3,0-76.9,29.3-76.9,82.6s36.6,82.6,76.9,82.6c41,0,77.5-29.9,77.5-83.2S1386.8,210.3,1345.8,210.3z"/>
	</g>
</g>
</svg>
