<svg id="ez9htsgyecy1" xmlns="http://www.w3.org/2000/svg" xmlns:xlink="http://www.w3.org/1999/xlink" viewBox="0 0 961.800000 436.800000" shape-rendering="geometricPrecision" text-rendering="geometricPrecision"><rect id="ez9htsgyecy2" width="2.707370" height="80.712506" rx="6.220000" ry="6.220000" transform="matrix(0.63730151950056 0 0 5.38830670668961 487.33458878201566 -0.99646197106995)" fill="rgb(156,186,239)" fill-opacity="0.51" stroke="none" stroke-width="1"/><rect id="ez9htsgyecy3" display="none" width="492.119868" height="439" rx="0" ry="0" transform="matrix(1 0 0 1 -1 0)" fill="rgb(109,198,198)" stroke="none" stroke-width="1"/><path id="ez9htsgyecy4" d="M470.800000,363.100000C485.200000,378.500000,485.900000,401.200000,485.900000,401.200000C485.900000,401.200000,463.300000,398.900000,449,383.400000C434.700000,367.900000,433.900000,345.300000,433.900000,345.300000C433.900000,345.300000,456.400000,347.700000,470.800000,363.100000Z" transform="matrix(1 0 0 1 4 0)" fill="rgb(92,153,242)" stroke="none" stroke-width="1"/><path id="ez9htsgyecy5" d="M516,387.200000C500.600000,401.600000,477.900000,402.300000,477.900000,402.300000C477.900000,402.300000,480.200000,379.700000,495.700000,365.400000C511.200000,351.100000,533.800000,350.300000,533.800000,350.300000C533.800000,350.300000,531.500000,372.800000,516,387.200000Z" transform="matrix(1 0 0 1 12 0)" fill="rgb(109,198,198)" stroke="none" stroke-width="1"/><path id="ez9htsgyecy6" d="M512.200000,433L455.500000,433C453.300000,433,451.300000,431.700000,450.300000,429.700000L437.900000,404.300000C436.500000,401.400000,437.700000,397.900000,440.600000,396.500000C441.400000,396.100000,442.300000,395.900000,443.100000,395.900000L524.500000,395.900000C527.700000,395.900000,530.300000,398.500000,530.300000,401.700000C530.300000,402.600000,530.100000,403.400000,529.700000,404.200000L517.300000,429.600000C516.500000,431.700000,514.400000,433,512.200000,433Z" transform="matrix(1 0 0 1 10 0)" fill="rgb(63,61,86)" stroke="none" stroke-width="1"/><circle id="ez9htsgyecy7" r="47.200000" transform="matrix(1 0 0 1 767 76.09999999999999)" fill="rgb(255,184,184)" stroke="none" stroke-width="1"/><path id="ez9htsgyecy8" d="M731.800000,99.700000C731.800000,99.700000,740.700000,166.800000,727,174.300000C713.300000,181.800000,808.500000,182.500000,808.500000,182.500000C808.500000,182.500000,787.300000,124.300000,796.900000,106.500000L731.800000,99.700000Z" fill="rgb(255,184,184)" stroke="none" stroke-width="1"/><path id="ez9htsgyecy9" d="M877.900000,182.900000L870,218.900000L853.300000,295.200000L852.800000,299.400000L847,347.700000L843.200000,379.800000L840.600000,401.400000C824.900000,409.400000,813.600000,415,813.600000,415C813.600000,415,812.600000,410.100000,811,403.800000C800,407.100000,779.700000,412.600000,762.400000,413.700000C768.700000,420.700000,771.600000,427.300000,767.600000,432.100000C755.800000,446.700000,707,416.100000,690,404.700000C689.600000,407.400000,689.500000,410.200000,689.600000,413L676.600000,403L677.900000,379.900000L680.100000,340.800000L682.800000,291.800000C681.900000,289.700000,681.200000,287.500000,680.600000,285.400000C676.600000,271.200000,671.800000,242.800000,668,219C665,199.800000,662.800000,183.700000,662.300000,180.200000C662.200000,179.800000,662.200000,179.500000,662.200000,179.500000L734.400000,147.600000C739.500000,159.500000,763.500000,163.100000,763.500000,163.100000C783.400000,161.700000,798.900000,151.300000,798.900000,151.300000L877.900000,182.900000Z" fill="rgb(92,153,242)" stroke="none" stroke-width="1"/><path id="ez9htsgyecy10" d="M819.100000,401.300000C819.100000,401.300000,816,402.300000,811.100000,403.800000C800.100000,407.100000,779.800000,412.600000,762.500000,413.700000C747.700000,414.700000,735.100000,412.400000,732.800000,402.700000C731.800000,398.500000,733.200000,395.100000,736.300000,392.300000C745.400000,383.900000,769.100000,380.900000,787.900000,379.800000C793.200000,379.500000,798.100000,379.400000,802.200000,379.300000C809.100000,379.200000,813.700000,379.400000,813.700000,379.400000L813.800000,379.800000L819.100000,401.300000Z" fill="rgb(255,184,184)" stroke="none" stroke-width="1"/><path id="ez9htsgyecy11" d="M727.700000,31.400000L718.900000,27.900000C718.900000,27.900000,737.400000,7.600000,763.100000,9.300000L755.900000,1.300000C755.900000,1.300000,773.600000,-5.800000,789.600000,12.800000C798,22.600000,807.800000,34,813.900000,47L823.400000,47L819.500000,55.700000L833.300000,64.400000L819,62.800000C819.800000,67.600000,820,72.400000,819.400000,77.200000C818.800000,82,816.300000,86.400000,812.600000,89.400000L812.600000,89.400000C812.600000,89.400000,801.600000,66.700000,801.600000,63.200000L801.600000,72C801.600000,72,792.800000,64,792.800000,58.700000L788,65L785.600000,55.300000L755.800000,65L760.600000,57L742.100000,59.700000L749.300000,50C749.300000,50,728.400000,61.500000,727.600000,71.200000C726.800000,80.900000,720.700000,90.100000,720.700000,90.100000C720.700000,90.100000,704.400000,44.600000,727.700000,31.400000Z" fill="rgb(47,46,65)" stroke="none" stroke-width="1"/><path id="ez9htsgyecy12" d="M929.300000,348.600000C924.500000,353.800000,912.600000,361.700000,898.100000,370.200000C892.700000,373.400000,887,376.600000,881.200000,379.900000C867.300000,387.600000,852.700000,395.300000,840.600000,401.500000C824.900000,409.500000,813.600000,415.100000,813.600000,415.100000C813.600000,415.100000,812.600000,410.200000,811,403.900000C808.900000,395.500000,805.700000,384.700000,802.400000,379.900000C802.300000,379.700000,802.200000,379.600000,802.100000,379.400000C801.100000,378.100000,800.200000,377.400000,799.200000,377.400000L847,347.800000L867.700000,335L852.800000,299.500000L834.100000,254.900000L845.400000,219L856.700000,183L877.900000,183C877.900000,183,884.900000,198.300000,893.900000,219.700000C895.200000,222.900000,896.600000,226.200000,898,229.700000C916.600000,274.600000,939.600000,337.400000,929.300000,348.600000Z" fill="rgb(92,153,242)" stroke="none" stroke-width="1"/><path id="ez9htsgyecy13" d="M767.700000,432.100000C755.900000,446.700000,707.100000,416.100000,690.100000,404.700000C686.400000,402.200000,684.200000,400.600000,684.200000,400.600000L699.800000,379.800000L704.700000,373.200000C704.700000,373.200000,709.100000,375.500000,715.700000,379.400000C715.900000,379.500000,716.200000,379.700000,716.400000,379.800000C722,383.100000,729.100000,387.400000,736.200000,392.300000C746,399,756,406.600000,762.400000,413.700000C768.700000,420.700000,771.600000,427.300000,767.700000,432.100000Z" fill="rgb(255,184,184)" stroke="none" stroke-width="1"/><path id="ez9htsgyecy14" d="M715.700000,379.400000C714,379.400000,712.200000,379.500000,710.500000,379.800000C695.700000,382.300000,691.400000,395.700000,690.100000,404.700000C689.700000,407.400000,689.600000,410.200000,689.700000,413L676.700000,403L671.900000,399.300000C660.500000,395.300000,650.300000,388.200000,641.400000,379.900000C633.700000,372.500000,626.900000,364.400000,620.900000,355.600000C614.900000,346.900000,609.600000,337.800000,605,328.400000C602.400000,323.100000,602.300000,316.800000,604.700000,311.400000L620.900000,275.400000L644.500000,222.800000C644.700000,221.500000,644.900000,220.300000,645.100000,219.100000C649.800000,192.200000,662.300000,180.300000,662.300000,180.300000L671.900000,180.300000L678.300000,219.100000L686.300000,267.300000L680.700000,285.500000L667.800000,327.500000L680.100000,340.900000L715.700000,379.400000Z" fill="rgb(92,153,242)" stroke="none" stroke-width="1"/><path id="ez9htsgyecy15" d="M726.500000,267.100000L734.700000,276.700000C737.700000,276.100000,740.900000,275.400000,744.200000,274.700000L741.800000,267.200000L747.600000,273.900000C782.300000,265.400000,825.300000,248.800000,825.300000,248.800000C825.300000,248.800000,778.900000,252.200000,744.200000,244.600000C728.900000,241.200000,713.100000,248.900000,706.800000,263.200000C703.100000,271.600000,703.700000,278.800000,716.700000,278.800000C721.100000,278.700000,725.500000,278.300000,729.800000,277.600000L726.500000,267.100000Z" fill="rgb(108,99,255)" stroke="none" stroke-width="1"/><path id="ez9htsgyecy16" d="M913.300000,424.300000L913.300000,428.200000C913.300000,429.300000,913.100000,430.300000,912.700000,431.300000C912.500000,431.700000,912.300000,432.200000,912.100000,432.600000C910.500000,435.200000,907.700000,436.800000,904.700000,436.800000L617.800000,436.800000C614.800000,436.800000,611.900000,435.200000,610.400000,432.600000C610.200000,432.200000,609.900000,431.800000,609.800000,431.300000C609.400000,430.300000,609.200000,429.200000,609.200000,428.200000L609.200000,424.300000C609.200000,419.500000,613.100000,415.700000,617.800000,415.700000C617.800000,415.700000,617.800000,415.700000,617.800000,415.700000L634.300000,415.700000L634.300000,413.900000C634.300000,413.700000,634.500000,413.500000,634.700000,413.500000C634.700000,413.500000,634.700000,413.500000,634.700000,413.500000L643.300000,413.500000C643.500000,413.500000,643.700000,413.700000,643.700000,413.900000C643.700000,413.900000,643.700000,413.900000,643.700000,413.900000L643.700000,415.700000L649.100000,415.700000L649.100000,413.900000C649.100000,413.700000,649.300000,413.500000,649.500000,413.500000C649.500000,413.500000,649.500000,413.500000,649.500000,413.500000L658.100000,413.500000C658.300000,413.500000,658.500000,413.700000,658.500000,413.900000C658.500000,413.900000,658.500000,413.900000,658.500000,413.900000L658.500000,415.700000L663.900000,415.700000L663.900000,413.900000C663.900000,413.700000,664.100000,413.500000,664.300000,413.500000C664.300000,413.500000,664.300000,413.500000,664.300000,413.500000L672.900000,413.500000C673.100000,413.500000,673.300000,413.700000,673.300000,413.900000C673.300000,413.900000,673.300000,413.900000,673.300000,413.900000L673.300000,415.700000L678.700000,415.700000L678.700000,413.900000C678.700000,413.700000,678.900000,413.500000,679.100000,413.500000C679.100000,413.500000,679.100000,413.500000,679.100000,413.500000L687.700000,413.500000C687.900000,413.500000,688.100000,413.700000,688.100000,413.900000C688.100000,413.900000,688.100000,413.900000,688.100000,413.900000L688.100000,415.700000L693.500000,415.700000L693.500000,413.900000C693.500000,413.700000,693.700000,413.500000,693.900000,413.500000C693.900000,413.500000,693.900000,413.500000,693.900000,413.500000L702.500000,413.500000C702.700000,413.500000,702.900000,413.700000,702.900000,413.900000C702.900000,413.900000,702.900000,413.900000,702.900000,413.900000L702.900000,415.700000L708.300000,415.700000L708.300000,413.900000C708.300000,413.700000,708.500000,413.500000,708.700000,413.500000C708.700000,413.500000,708.700000,413.500000,708.700000,413.500000L717.300000,413.500000C717.500000,413.500000,717.700000,413.700000,717.700000,413.900000C717.700000,413.900000,717.700000,413.900000,717.700000,413.900000L717.700000,415.700000L723.100000,415.700000L723.100000,413.900000C723.100000,413.700000,723.300000,413.500000,723.500000,413.500000C723.500000,413.500000,723.500000,413.500000,723.500000,413.500000L791.100000,413.500000C791.300000,413.500000,791.500000,413.700000,791.500000,413.900000C791.500000,413.900000,791.500000,413.900000,791.500000,413.900000L791.500000,415.700000L796.900000,415.700000L796.900000,413.900000C796.900000,413.700000,797.100000,413.500000,797.300000,413.500000C797.300000,413.500000,797.300000,413.500000,797.300000,413.500000L805.900000,413.500000C806.100000,413.500000,806.300000,413.700000,806.300000,413.900000L806.300000,415.700000L811.700000,415.700000L811.700000,413.900000C811.700000,413.700000,811.900000,413.500000,812.100000,413.500000C812.100000,413.500000,812.100000,413.500000,812.100000,413.500000L820.700000,413.500000C820.900000,413.500000,821.100000,413.700000,821.100000,413.900000C821.100000,413.900000,821.100000,413.900000,821.100000,413.900000L821.100000,415.700000L826.500000,415.700000L826.500000,413.900000C826.500000,413.700000,826.700000,413.500000,826.900000,413.500000C826.900000,413.500000,826.900000,413.500000,826.900000,413.500000L835.500000,413.500000C835.700000,413.500000,835.900000,413.700000,835.900000,413.900000C835.900000,413.900000,835.900000,413.900000,835.900000,413.900000L835.900000,415.700000L841.300000,415.700000L841.300000,413.900000C841.300000,413.700000,841.500000,413.500000,841.700000,413.500000C841.700000,413.500000,841.700000,413.500000,841.700000,413.500000L850.300000,413.500000C850.500000,413.500000,850.700000,413.700000,850.700000,413.900000L850.700000,415.700000L856.100000,415.700000L856.100000,413.900000C856.100000,413.700000,856.300000,413.500000,856.500000,413.500000C856.500000,413.500000,856.500000,413.500000,856.500000,413.500000L865.100000,413.500000C865.300000,413.500000,865.500000,413.700000,865.500000,413.900000C865.500000,413.900000,865.500000,413.900000,865.500000,413.900000L865.500000,415.700000L870.900000,415.700000L870.900000,413.900000C870.900000,413.700000,871.100000,413.500000,871.300000,413.500000C871.300000,413.500000,871.300000,413.500000,871.300000,413.500000L879.900000,413.500000C880.100000,413.500000,880.300000,413.700000,880.300000,413.900000C880.300000,413.900000,880.300000,413.900000,880.300000,413.900000L880.300000,415.700000L905.500000,415.700000C909.500000,415.600000,913.300000,419.500000,913.300000,424.300000C913.300000,424.300000,913.300000,424.300000,913.300000,424.300000Z" fill="rgb(213,213,213)" stroke="none" stroke-width="1"/><path id="ez9htsgyecy17" d="M890.200000,260L783.300000,260L783.300000,257.800000L734.800000,257.800000L734.800000,260L627.400000,260C623.400000,260,620.200000,263.200000,620.200000,267.200000C620.200000,267.200000,620.200000,267.200000,620.200000,267.200000L620.200000,413.600000C620.200000,417.600000,623.400000,420.800000,627.400000,420.800000L627.400000,420.800000L890.200000,420.800000C894.200000,420.800000,897.400000,417.600000,897.400000,413.600000L897.400000,413.600000L897.400000,267.300000C897.500000,263.300000,894.200000,260,890.200000,260L890.200000,260Z" transform="matrix(1 0 0 1 0.19889272000000 -3.00000000000006)" fill="rgb(250,250,250)" stroke="none" stroke-width="1"/><circle id="ez9htsgyecy18" r="16.100000" transform="matrix(1 0 0 1 759 311.19999999999999)" fill="none" stroke="rgb(208,205,225)" stroke-width="2" stroke-miterlimit="10"/><circle id="ez9htsgyecy19" r="16.100000" transform="matrix(1 0 0 1 753.89999999999998 316.89999999999998)" fill="rgb(47,100,235)" stroke="none" stroke-width="1"/><circle id="ez9htsgyecy20" r="23.400000" transform="matrix(1 0 0 1 282.30000000000001 165.69999999999999)" fill="rgb(47,46,65)" stroke="none" stroke-width="1"/><circle id="ez9htsgyecy21" r="27.500000" transform="matrix(0.12568504725652 0.09510523315753 -0.19114567725872 0.25260601001152 409.36343899989129 196.09637349845198)" fill="rgb(255,255,255)" fill-opacity="0" stroke="none" stroke-width="1"/><path id="ez9htsgyecy22" d="M288.800000,143C301.700000,143,312.200000,153.500000,312.200000,166.400000C312.200000,170.300000,311.200000,174.100000,309.400000,177.500000C317.500000,167.400000,315.800000,152.700000,305.700000,144.600000C295.600000,136.500000,280.900000,138.200000,272.800000,148.300000C271.900000,149.400000,271.100000,150.600000,270.500000,151.800000C275,146.200000,281.700000,143,288.800000,143Z" fill="rgb(47,46,65)" stroke="none" stroke-width="1"/><circle id="ez9htsgyecy23" r="68.700000" transform="matrix(1 0 0 1 238.59999999999999 97)" fill="rgb(47,46,65)" stroke="none" stroke-width="1"/><path id="ez9htsgyecy24" d="M184.700000,54.400000C209.300000,26.700000,251.400000,23.500000,279.900000,47.200000C279.300000,46.700000,278.800000,46.100000,278.200000,45.600000C249.800000,20.400000,206.400000,22.900000,181.200000,51.300000C156,79.700000,158.500000,123.100000,186.900000,148.300000C187.500000,148.800000,188.100000,149.300000,188.700000,149.800000C161.900000,124.200000,160.100000,82,184.700000,54.400000Z" fill="rgb(47,46,65)" stroke="none" stroke-width="1"/><circle id="ez9htsgyecy25" r="44.200000" transform="matrix(1 0 0 1 238 120.80000000000000)" fill="rgb(160,97,106)" stroke="none" stroke-width="1"/><path id="ez9htsgyecy26" d="M206.600000,134.800000C206.600000,134.800000,212.400000,188.400000,203.100000,194.200000C193.800000,200,256.700000,208.200000,256.700000,208.200000C256.700000,208.200000,247.400000,150,270.700000,134.900000L206.600000,134.800000Z" fill="rgb(160,97,106)" stroke="none" stroke-width="1"/><path id="ez9htsgyecy27" d="M262.500000,184.900000C262.500000,184.900000,279.800000,176.800000,254.900000,179.700000C230,182.600000,208.400000,171.500000,208.400000,171.500000C208.400000,171.500000,200.800000,163.900000,199.700000,172.100000C198.600000,180.300000,203.200000,195.400000,177.600000,197.700000C152,200,128.700000,193,119.400000,210.500000C110.100000,228,114.700000,303.600000,114.700000,303.600000C114.700000,303.600000,132.200000,366.500000,146.100000,375.800000C160,385.100000,282.300000,372.300000,282.300000,372.300000L317.200000,309.400000L317.200000,236.100000C317.200000,236.100000,312.500000,210.500000,279.900000,217.500000C279.900000,217.500000,258.900000,212.800000,260.100000,202.400000C261.300000,191.800000,262.500000,184.900000,262.500000,184.900000Z" transform="matrix(1 0 0 1 -1.18119941499998 0.96459787000001)" fill="rgb(109,198,198)" stroke="none" stroke-width="1"/><path id="ez9htsgyecy28" d="M150.700000,420.300000C151.400000,417.200000,151.900000,415.400000,151.900000,415.400000L151.500000,412.800000L147.700000,386.800000L146.100000,375.800000C160.100000,370,163.600000,343.200000,163.600000,343.200000L164.100000,342.900000L166.500000,341.500000L166.500000,341.500000L175.100000,336.400000L175.300000,336.300000L178.800000,338.600000L185.800000,343.300000C204.400000,357.200000,228,362.600000,250.800000,358.200000C256,357.300000,261.200000,355.800000,266.100000,353.800000L283,348.200000L283.500000,348L284,348.100000L293.900000,349.600000L294.100000,349.600000L294.900000,349.700000L292.600000,365.600000L289.300000,388.700000C298.100000,393.400000,305.900000,402.100000,312.800000,412.900000C314.300000,415.300000,315.800000,417.800000,317.200000,420.400000C319.100000,423.700000,320.800000,427.200000,322.500000,430.800000C322.700000,431.200000,322.900000,431.700000,323.100000,432.100000C323.700000,433.500000,324.400000,434.900000,325,436.300000L147.600000,436.300000C147.800000,434.900000,148.100000,433.500000,148.300000,432.200000C148.300000,432.200000,148.300000,432.100000,148.300000,432.100000C148.400000,431.700000,148.500000,431.200000,148.500000,430.800000C149.300000,426.400000,150.100000,422.900000,150.700000,420.300000Z" fill="rgb(47,46,65)" stroke="none" stroke-width="1"/><path id="ez9htsgyecy29" d="M143.700000,196.500000C143.700000,196.500000,156.500000,219.800000,151.800000,248.900000C147.100000,278,165.800000,350.200000,165.800000,350.200000L179.800000,346.700000C179.800000,346.700000,170.500000,286.200000,172.800000,272.200000C175.100000,258.200000,175.100000,203.500000,163.500000,196.500000C151.900000,189.500000,143.700000,196.500000,143.700000,196.500000Z" fill="rgb(47,46,65)" stroke="none" stroke-width="1"/><path id="ez9htsgyecy30" d="M279.100000,220.700000L284,349.600000L293.300000,355.400000C293.300000,355.400000,306.700000,214,299.700000,214L285.500000,214C282,214,279.100000,216.900000,279.100000,220.400000C279.100000,220.500000,279.100000,220.600000,279.100000,220.700000Z" fill="rgb(47,46,65)" stroke="none" stroke-width="1"/><circle id="ez9htsgyecy31" r="5.800000" transform="matrix(1 0 0 1 172.30000000000001 341.39999999999998)" fill="rgb(108,99,255)" stroke="none" stroke-width="1"/><circle id="ez9htsgyecy32" r="5.800000" transform="matrix(1 0 0 1 288.69999999999999 347.30000000000001)" fill="rgb(108,99,255)" stroke="none" stroke-width="1"/><polygon id="ez9htsgyecy33" points="200.200000,65.500000 200.200000,109.800000 210.400000,109.800000 223.500000,95.800000 221.700000,109.800000 267,109.800000 264.200000,95.800000 269.800000,109.800000 277,109.800000 277,65.500000" fill="rgb(47,46,65)" stroke="none" stroke-width="1"/><ellipse id="ez9htsgyecy34" rx="3.500000" ry="6.400000" transform="matrix(1 0 0 1 193.19999999999999 111.50000000000000)" fill="rgb(160,97,106)" stroke="none" stroke-width="1"/><ellipse id="ez9htsgyecy35" rx="3.500000" ry="6.400000" transform="matrix(1 0 0 1 282.89999999999998 111.50000000000000)" fill="rgb(160,97,106)" stroke="none" stroke-width="1"/><path id="ez9htsgyecy36" d="M306.700000,346.700000C306.700000,346.700000,253.700000,336.800000,250.200000,354.300000C246.700000,371.800000,309,364.200000,309,364.200000L306.700000,346.700000Z" fill="rgb(160,97,106)" stroke="none" stroke-width="1"/><path id="ez9htsgyecy37" d="M305.600000,226.800000C305.600000,226.800000,432.500000,328.100000,409.200000,352.500000C385.900000,376.900000,297.400000,370,297.400000,370L303.200000,340.900000L354.400000,335.100000L328.800000,309.500000L305.500000,311.800000L305.600000,226.800000Z" fill="rgb(109,198,198)" stroke="none" stroke-width="1"/><path id="ez9htsgyecy38" d="M118.100000,395.600000L134.400000,408.400000C134.400000,408.400000,146,444.500000,163.500000,434C181,423.500000,147.200000,386.300000,147.200000,386.300000L127.400000,379.300000L118.100000,395.600000Z" fill="rgb(160,97,106)" stroke="none" stroke-width="1"/><path id="ez9htsgyecy39" d="M134.400000,208.100000L118.100000,213C118.100000,213,5.100000,296.600000,0.500000,319.900000C-4.100000,343.200000,22.700000,356,22.700000,356L124,403.700000L134.500000,375.800000L86.800000,351.400000C86.800000,351.400000,90.300000,344.400000,76.300000,343.300000C62.300000,342.200000,60,327,60,327C60,327,87.900000,283.900000,103.100000,293.200000C118.300000,302.500000,122.900000,309.500000,122.900000,309.500000L134.400000,208.100000Z" fill="rgb(109,198,198)" stroke="none" stroke-width="1"/><path id="ez9htsgyecy40" d="M366.300000,424.300000L366.300000,428.200000C366.300000,429.300000,366.100000,430.300000,365.700000,431.300000C365.500000,431.700000,365.300000,432.200000,365.100000,432.600000C363.500000,435.200000,360.700000,436.800000,357.700000,436.800000L70.700000,436.800000C67.700000,436.800000,64.800000,435.200000,63.300000,432.600000C63.100000,432.200000,62.800000,431.800000,62.700000,431.300000C62.300000,430.300000,62.100000,429.200000,62.100000,428.200000L62.100000,424.300000C62.100000,419.500000,66,415.700000,70.700000,415.700000C70.700000,415.700000,70.700000,415.700000,70.700000,415.700000L87.200000,415.700000L87.200000,413.900000C87.200000,413.700000,87.400000,413.500000,87.600000,413.500000C87.600000,413.500000,87.600000,413.500000,87.600000,413.500000L96.200000,413.500000C96.400000,413.500000,96.600000,413.700000,96.600000,413.900000C96.600000,413.900000,96.600000,413.900000,96.600000,413.900000L96.600000,415.700000L102,415.700000L102,413.900000C102,413.700000,102.200000,413.500000,102.400000,413.500000C102.400000,413.500000,102.400000,413.500000,102.400000,413.500000L111,413.500000C111.200000,413.500000,111.400000,413.700000,111.400000,413.900000C111.400000,413.900000,111.400000,413.900000,111.400000,413.900000L111.400000,415.700000L116.800000,415.700000L116.800000,413.900000C116.800000,413.700000,117,413.500000,117.200000,413.500000C117.200000,413.500000,117.200000,413.500000,117.200000,413.500000L125.800000,413.500000C126,413.500000,126.200000,413.700000,126.200000,413.900000C126.200000,413.900000,126.200000,413.900000,126.200000,413.900000L126.200000,415.700000L131.600000,415.700000L131.600000,413.900000C131.600000,413.700000,131.800000,413.500000,132,413.500000C132,413.500000,132,413.500000,132,413.500000L140.600000,413.500000C140.800000,413.500000,141,413.700000,141,413.900000C141,413.900000,141,413.900000,141,413.900000L141,415.700000L146.400000,415.700000L146.400000,413.900000C146.400000,413.700000,146.600000,413.500000,146.800000,413.500000C146.800000,413.500000,146.800000,413.500000,146.800000,413.500000L155.400000,413.500000C155.600000,413.500000,155.800000,413.700000,155.800000,413.900000C155.800000,413.900000,155.800000,413.900000,155.800000,413.900000L155.800000,415.700000L161.200000,415.700000L161.200000,413.900000C161.200000,413.700000,161.400000,413.500000,161.600000,413.500000C161.600000,413.500000,161.600000,413.500000,161.600000,413.500000L170.200000,413.500000C170.400000,413.500000,170.600000,413.700000,170.600000,413.900000C170.600000,413.900000,170.600000,413.900000,170.600000,413.900000L170.600000,415.700000L176,415.700000L176,413.900000C176,413.700000,176.200000,413.500000,176.400000,413.500000C176.400000,413.500000,176.400000,413.500000,176.400000,413.500000L244,413.500000C244.200000,413.500000,244.400000,413.700000,244.400000,413.900000C244.400000,413.900000,244.400000,413.900000,244.400000,413.900000L244.400000,415.700000L249.800000,415.700000L249.800000,413.900000C249.800000,413.700000,250,413.500000,250.200000,413.500000C250.200000,413.500000,250.200000,413.500000,250.200000,413.500000L258.800000,413.500000C259,413.500000,259.200000,413.700000,259.200000,413.900000L259.200000,415.700000L264.600000,415.700000L264.600000,413.900000C264.600000,413.700000,264.800000,413.500000,265,413.500000C265,413.500000,265,413.500000,265,413.500000L273.600000,413.500000C273.800000,413.500000,274,413.700000,274,413.900000C274,413.900000,274,413.900000,274,413.900000L274,415.700000L279.400000,415.700000L279.400000,413.900000C279.400000,413.700000,279.600000,413.500000,279.800000,413.500000C279.800000,413.500000,279.800000,413.500000,279.800000,413.500000L288.400000,413.500000C288.600000,413.500000,288.800000,413.700000,288.800000,413.900000C288.800000,413.900000,288.800000,413.900000,288.800000,413.900000L288.800000,415.700000L294.200000,415.700000L294.200000,413.900000C294.200000,413.700000,294.400000,413.500000,294.600000,413.500000C294.600000,413.500000,294.600000,413.500000,294.600000,413.500000L303.200000,413.500000C303.400000,413.500000,303.600000,413.700000,303.600000,413.900000L303.600000,415.700000L309,415.700000L309,413.900000C309,413.700000,309.200000,413.500000,309.400000,413.500000C309.400000,413.500000,309.400000,413.500000,309.400000,413.500000L318,413.500000C318.200000,413.500000,318.400000,413.700000,318.400000,413.900000C318.400000,413.900000,318.400000,413.900000,318.400000,413.900000L318.400000,415.700000L323.800000,415.700000L323.800000,413.900000C323.800000,413.700000,324,413.500000,324.200000,413.500000C324.200000,413.500000,324.200000,413.500000,324.200000,413.500000L332.800000,413.500000C333,413.500000,333.200000,413.700000,333.200000,413.900000C333.200000,413.900000,333.200000,413.900000,333.200000,413.900000L333.200000,415.700000L358.400000,415.700000C362.400000,415.600000,366.300000,419.500000,366.300000,424.300000C366.300000,424.300000,366.300000,424.300000,366.300000,424.300000Z" fill="rgb(213,213,213)" stroke="none" stroke-width="1"/><path id="ez9htsgyecy41" d="M343.200000,260L236.200000,260L236.200000,257.800000L187.700000,257.800000L187.700000,260L80.400000,260C76.400000,260,73.200000,263.200000,73.200000,267.200000L73.200000,413.600000C73.200000,417.600000,76.400000,420.800000,80.400000,420.800000L343.200000,420.800000C347.200000,420.800000,350.400000,417.600000,350.400000,413.600000L350.400000,267.300000C350.400000,263.300000,347.200000,260,343.200000,260Z" fill="rgb(252,252,253)" stroke="none" stroke-width="1"/><circle id="ez9htsgyecy42" r="16.100000" transform="matrix(1 0 0 1 212 311.19999999999999)" fill="none" stroke="rgb(208,205,225)" stroke-width="2" stroke-miterlimit="10"/><circle id="ez9htsgyecy43" r="16.100000" transform="matrix(1 0 0 1 206.80000000000001 316.89999999999998)" fill="rgb(47,100,235)" stroke="none" stroke-width="1"/><rect id="ez9htsgyecy44" width="950" height="2" rx="0" ry="0" transform="matrix(1 0 0 1 11.80000000000000 432)" fill="rgb(63,61,86)" stroke="none" stroke-width="1"/><g id="ez9htsgyecy45" transform="matrix(0.25331565751920 -0.96738367655011 0.96738367655011 0.25331565751920 227.18771839839701 710.06097530094246)"><circle id="ez9htsgyecy46" r="27.500000" transform="matrix(0.12568504725652 0.09510523315753 -0.19114567725872 0.25260601001152 542.72681745489342 254.77657451345556)" fill="rgb(255,255,255)" fill-opacity="0" stroke="none" stroke-width="1"/><circle id="ez9htsgyecy47" r="27.500000" transform="matrix(0.12568504725652 0.09510523315753 -0.19114567725872 0.25260601001152 528.75746640989269 271.71675600845333)" fill="rgb(255,255,255)" fill-opacity="0" stroke="none" stroke-width="1"/><circle id="ez9htsgyecy48" r="27.500000" transform="matrix(0.12568504725652 0.09510523315753 -0.19114567725872 0.25260601001152 556.69616850489047 236.65245614845423)" fill="rgb(255,255,255)" fill-opacity="0" stroke="none" stroke-width="1"/><circle id="ez9htsgyecy49" r="27.500000" transform="matrix(0.12568504725652 0.09510523315753 -0.19114567725872 0.25260601001152 584.63487058989085 203.63500721345315)" fill="rgb(255,255,255)" fill-opacity="0" stroke="none" stroke-width="1"/><circle id="ez9htsgyecy50" r="27.500000" transform="matrix(0.12568504725652 0.09510523315753 -0.19114567725872 0.25260601001152 570.66551954989063 220.14373168345426)" fill="rgb(255,255,255)" fill-opacity="0" stroke="none" stroke-width="1"/></g><g id="ez9htsgyecy51"><circle id="ez9htsgyecy52" r="27.500000" transform="matrix(0.12568504725652 0.09510523315753 -0.19114567725872 0.25260601001152 395.39408795989090 212.60509796845309)" fill="rgb(255,255,255)" fill-opacity="0" stroke="none" stroke-width="1"/><circle id="ez9htsgyecy53" r="27.500000" transform="matrix(0.12568504725652 0.09510523315753 -0.19114567725872 0.25260601001152 381.42473691489073 229.11382243345307)" fill="rgb(255,255,255)" fill-opacity="0" stroke="none" stroke-width="1"/><circle id="ez9htsgyecy54" r="27.500000" transform="matrix(0.12568504725652 0.09510523315753 -0.19114567725872 0.25260601001152 353.48603481989301 264.17812229345276)" fill="rgb(255,255,255)" fill-opacity="0" stroke="none" stroke-width="1"/><circle id="ez9htsgyecy55" r="27.500000" transform="matrix(0.12568504725652 0.09510523315753 -0.19114567725872 0.25260601001152 367.45538586489374 247.23794079845439)" fill="rgb(255,255,255)" fill-opacity="0" stroke="none" stroke-width="1"/></g><rect id="ez9htsgyecy56" width="297.130987" height="188.036369" rx="6.220000" ry="6.220000" transform="matrix(1 0 0 1 335.64780000000002 30.36363066999999)" fill="rgb(255,255,255)" stroke="none" stroke-width="1"/><g id="ez9htsgyecy57" transform="matrix(0.30000000000000 0 0 0.30000000000000 164.50458878499927 -121.42028129500005)"><g id="ez9htsgyecy58"><g id="ez9htsgyecy59"><g id="ez9htsgyecy60"/><g id="ez9htsgyecy61" display="none"><rect id="ez9htsgyecy62" width="72" height="569" rx="0" ry="0" transform="matrix(1 0 0 1 544.39999999999998 524.39999999999998)" fill="rgb(9,36,76)" stroke="none" stroke-width="1"/><rect id="ez9htsgyecy63" width="914.900000" height="559.900000" rx="0" ry="0" transform="matrix(1 0 0 1 616.70000000000005 541.39999999999998)" fill="rgb(36,50,63)" stroke="none" stroke-width="1"/><rect id="ez9htsgyecy64" width="682.500000" height="321.600000" rx="0" ry="0" transform="matrix(1 0 0 1 616.70000000000005 524.39999999999998)" fill="rgb(0,204,194)" stroke="none" stroke-width="1"/><rect id="ez9htsgyecy65" width="232.400000" height="321.600000" rx="0" ry="0" transform="matrix(1 0 0 1 1299.20000000000005 524.39999999999998)" fill="rgb(9,36,76)" stroke="none" stroke-width="1"/><path id="ez9htsgyecy66" d="M1389.500000,1104.700000L1265.100000,1104.700000C1261.900000,1104.700000,1259.200000,1102.100000,1259.200000,1098.800000L1259.200000,933.100000C1259.200000,929.900000,1261.800000,927.200000,1265.100000,927.200000L1389.500000,927.200000C1392.700000,927.200000,1395.400000,929.800000,1395.400000,933.100000L1395.400000,1098.900000C1395.400000,1102.100000,1392.700000,1104.700000,1389.500000,1104.700000Z" fill="rgb(0,204,194)" stroke="none" stroke-width="1"/><path id="ez9htsgyecy67" d="M1239,1101.400000L1114.600000,1101.400000C1111.400000,1101.400000,1108.700000,1098.800000,1108.700000,1095.500000L1108.700000,933.100000C1108.700000,929.900000,1111.300000,927.200000,1114.600000,927.200000L1239,927.200000C1242.200000,927.200000,1244.900000,929.800000,1244.900000,933.100000L1244.900000,1095.500000C1244.800000,1098.700000,1242.200000,1101.400000,1239,1101.400000Z" fill="rgb(22,22,99)" stroke="none" stroke-width="1"/><path id="ez9htsgyecy68" d="M1085.600000,1104.700000L961.200000,1104.700000C958,1104.700000,955.300000,1102.100000,955.300000,1098.800000L955.300000,933.100000C955.300000,929.900000,957.900000,927.200000,961.200000,927.200000L1085.600000,927.200000C1088.800000,927.200000,1091.500000,929.800000,1091.500000,933.100000L1091.500000,1098.900000C1091.500000,1102.100000,1088.900000,1104.700000,1085.600000,1104.700000Z" fill="rgb(187,103,245)" stroke="none" stroke-width="1"/><path id="ez9htsgyecy69" d="M931.900000,1104.700000L807.500000,1104.700000C804.300000,1104.700000,801.600000,1102.100000,801.600000,1098.800000L801.600000,933.100000C801.600000,929.900000,804.200000,927.200000,807.500000,927.200000L931.900000,927.200000C935.100000,927.200000,937.800000,929.800000,937.800000,933.100000L937.800000,1098.900000C937.800000,1102.100000,935.200000,1104.700000,931.900000,1104.700000Z" fill="rgb(47,100,235)" stroke="none" stroke-width="1"/><path id="ez9htsgyecy70" d="M778.200000,1104.700000L653.800000,1104.700000C650.600000,1104.700000,647.900000,1102.100000,647.900000,1098.800000L647.900000,933.100000C647.900000,929.900000,650.500000,927.200000,653.800000,927.200000L778.200000,927.200000C781.400000,927.200000,784.100000,929.800000,784.100000,933.100000L784.100000,1098.900000C784.100000,1102.100000,781.500000,1104.700000,778.200000,1104.700000Z" fill="rgb(99,79,214)" stroke="none" stroke-width="1"/><path id="ez9htsgyecy71" d="M1541.100000,1103L1416.700000,1103C1413.500000,1103,1410.800000,1100.400000,1410.800000,1097.100000L1410.800000,931.400000C1410.800000,928.200000,1413.400000,925.500000,1416.700000,925.500000L1541.100000,925.500000C1544.300000,925.500000,1547,928.100000,1547,931.400000L1547,1097.200000C1547,1100.400000,1544.400000,1103,1541.100000,1103Z" fill="rgb(99,79,214)" stroke="none" stroke-width="1"/><rect id="ez9htsgyecy72" width="154.100000" height="12.700000" rx="0" ry="0" transform="matrix(1 0 0 1 1337.09999999999991 558.20000000000005)" fill="rgb(255,255,255)" stroke="none" stroke-width="1"/><rect id="ez9htsgyecy73" width="129.500000" height="6.400000" rx="0" ry="0" transform="matrix(1 0 0 1 1349.40000000000009 586.79999999999995)" fill="rgb(255,255,255)" stroke="none" stroke-width="1"/><rect id="ez9htsgyecy74" width="129.500000" height="6.400000" rx="0" ry="0" transform="matrix(1 0 0 1 647.89999999999998 894.70000000000005)" fill="rgb(255,255,255)" stroke="none" stroke-width="1"/><rect id="ez9htsgyecy75" width="147.400000" height="15.300000" rx="0" ry="0" transform="matrix(1 0 0 1 647.89999999999998 869.79999999999995)" fill="rgb(255,255,255)" stroke="none" stroke-width="1"/><rect id="ez9htsgyecy76" width="129.500000" height="12.800000" rx="0" ry="0" transform="matrix(1 0 0 1 1349.40000000000009 738.50000000000000)" fill="rgb(255,255,255)" stroke="none" stroke-width="1"/><rect id="ez9htsgyecy77" width="1009.100000" height="28.300000" rx="0" ry="0" transform="matrix(1 0 0 1 544.39999999999998 1093.40000000000009)" fill="rgb(234,234,234)" stroke="none" stroke-width="1"/><path id="ez9htsgyecy78" d="M1467,821.100000L1361.200000,821.100000C1358.200000,821.100000,1355.800000,818.700000,1355.800000,815.700000L1355.800000,784.600000C1355.800000,781.600000,1358.200000,779.200000,1361.200000,779.200000L1467,779.200000C1470,779.200000,1472.400000,781.600000,1472.400000,784.600000L1472.400000,815.700000C1472.500000,818.700000,1470,821.100000,1467,821.100000Z" fill="rgb(255,255,255)" stroke="none" stroke-width="1"/><circle id="ez9htsgyecy79" r="15.200000" transform="matrix(1 0 0 1 582.20000000000005 586.10000000000002)" fill="rgb(234,234,234)" stroke="none" stroke-width="1"/><rect id="ez9htsgyecy80" width="27.700000" height="27.700000" rx="0" ry="0" transform="matrix(1 0 0 1 568.39999999999998 850.20000000000005)" fill="rgb(234,234,234)" stroke="none" stroke-width="1"/><rect id="ez9htsgyecy81" width="27.700000" height="27.700000" rx="0" ry="0" transform="matrix(1 0 0 1 568.39999999999998 896.50000000000000)" fill="rgb(234,234,234)" stroke="none" stroke-width="1"/><rect id="ez9htsgyecy82" width="27.700000" height="27.700000" rx="0" ry="0" transform="matrix(1 0 0 1 568.39999999999998 942.79999999999995)" fill="rgb(255,255,255)" stroke="none" stroke-width="1"/><rect id="ez9htsgyecy83" width="27.700000" height="27.700000" rx="0" ry="0" transform="matrix(1 0 0 1 568.39999999999998 994.39999999999998)" fill="rgb(234,234,234)" stroke="none" stroke-width="1"/><rect id="ez9htsgyecy84" width="27.700000" height="27.700000" rx="0" ry="0" transform="matrix(1 0 0 1 568.39999999999998 1035.50000000000000)" fill="rgb(234,234,234)" stroke="none" stroke-width="1"/><rect id="ez9htsgyecy85" width="21.900000" height="366.200000" rx="0" ry="0" transform="matrix(1 0 0 1 1531.59999999999991 738.50000000000000)" fill="rgb(234,234,234)" stroke="none" stroke-width="1"/></g></g><g id="ez9htsgyecy86"><g id="ez9htsgyecy87"/><g id="ez9htsgyecy88"><rect id="ez9htsgyecy89" width="914.900000" height="569" rx="0" ry="0" transform="matrix(1 0 0 1 616.70000000000005 524.39999999999998)" fill="rgb(36,50,63)" stroke="none" stroke-width="1"/><rect id="ez9htsgyecy90" width="682.500000" height="371.800000" rx="0" ry="0" transform="matrix(1 0 0 1 616.70000000000005 577.70000000000005)" fill="rgb(47,100,235)" stroke="none" stroke-width="1"/><rect id="ez9htsgyecy91" width="914" height="53.300000" rx="0" ry="0" transform="matrix(1 0 0 1 616.29999999999995 524.39999999999998)" fill="rgb(13,47,89)" stroke="none" stroke-width="1"/><path id="ez9htsgyecy92" d="M1215.600000,1103.400000L1091.200000,1103.400000C1088,1103.400000,1085.300000,1100.800000,1085.300000,1097.500000L1085.300000,1042C1085.300000,1038.800000,1087.900000,1036.100000,1091.200000,1036.100000L1215.600000,1036.100000C1218.800000,1036.100000,1221.500000,1038.700000,1221.500000,1042L1221.500000,1097.500000C1221.500000,1100.800000,1218.900000,1103.400000,1215.600000,1103.400000Z" fill="rgb(22,22,99)" stroke="none" stroke-width="1"/><path id="ez9htsgyecy93" d="M1070.200000,1104.700000L945.800000,1104.700000C942.600000,1104.700000,939.900000,1102.100000,939.900000,1098.800000L939.900000,1042C939.900000,1038.800000,942.500000,1036.100000,945.800000,1036.100000L1070.200000,1036.100000C1073.400000,1036.100000,1076.100000,1038.700000,1076.100000,1042L1076.100000,1098.800000C1076.100000,1102.100000,1073.400000,1104.700000,1070.200000,1104.700000Z" fill="rgb(187,103,245)" stroke="none" stroke-width="1"/><path id="ez9htsgyecy94" d="M924.700000,1104.700000L800.300000,1104.700000C797.100000,1104.700000,794.400000,1102.100000,794.400000,1098.800000L794.400000,1042C794.400000,1038.800000,797,1036.100000,800.300000,1036.100000L924.700000,1036.100000C927.900000,1036.100000,930.600000,1038.700000,930.600000,1042L930.600000,1098.800000C930.600000,1102.100000,928,1104.700000,924.700000,1104.700000Z" fill="rgb(47,100,235)" stroke="none" stroke-width="1"/><path id="ez9htsgyecy95" d="M778.200000,1104.700000L653.800000,1104.700000C650.600000,1104.700000,647.900000,1102.100000,647.900000,1098.800000L647.900000,1042C647.900000,1038.800000,650.500000,1036.100000,653.800000,1036.100000L778.200000,1036.100000C781.400000,1036.100000,784.100000,1038.700000,784.100000,1042L784.100000,1098.800000C784.100000,1102.100000,781.500000,1104.700000,778.200000,1104.700000Z" fill="rgb(99,79,214)" stroke="none" stroke-width="1"/><rect id="ez9htsgyecy96" width="356.100000" height="21" rx="0" ry="0" transform="matrix(1 0 0 1 862.50000000000000 540.60000000000002)" fill="rgb(255,255,255)" stroke="none" stroke-width="1"/><rect id="ez9htsgyecy97" width="112.400000" height="6.400000" rx="0" ry="0" transform="matrix(1 0 0 1 1348.29999999999995 1001.89999999999998)" fill="rgb(255,255,255)" stroke="none" stroke-width="1"/><rect id="ez9htsgyecy98" width="112.400000" height="6.400000" rx="0" ry="0" transform="matrix(1 0 0 1 1348.29999999999995 980.70000000000005)" fill="rgb(255,255,255)" stroke="none" stroke-width="1"/><rect id="ez9htsgyecy99" width="112.400000" height="6.400000" rx="0" ry="0" transform="matrix(1 0 0 1 1348.29999999999995 959.39999999999998)" fill="rgb(255,255,255)" stroke="none" stroke-width="1"/><rect id="ez9htsgyecy100" width="112.400000" height="6.400000" rx="0" ry="0" transform="matrix(1 0 0 1 1348.29999999999995 938.20000000000005)" fill="rgb(255,255,255)" stroke="none" stroke-width="1"/><rect id="ez9htsgyecy101" width="19.500000" height="6.400000" rx="0" ry="0" transform="matrix(1 0 0 1 1319.79999999999995 1001.89999999999998)" fill="rgb(255,255,255)" stroke="none" stroke-width="1"/><rect id="ez9htsgyecy102" width="19.500000" height="6.400000" rx="0" ry="0" transform="matrix(1 0 0 1 1319.79999999999995 980.70000000000005)" fill="rgb(255,255,255)" stroke="none" stroke-width="1"/><rect id="ez9htsgyecy103" width="19.500000" height="6.400000" rx="0" ry="0" transform="matrix(1 0 0 1 1319.79999999999995 959.39999999999998)" fill="rgb(234,234,234)" stroke="none" stroke-width="1"/><rect id="ez9htsgyecy104" width="19.500000" height="6.400000" rx="0" ry="0" transform="matrix(1 0 0 1 1319.79999999999995 938.20000000000005)" fill="rgb(255,255,255)" stroke="none" stroke-width="1"/><rect id="ez9htsgyecy105" width="112.400000" height="6.400000" rx="0" ry="0" transform="matrix(1 0 0 1 1348.29999999999995 714.79999999999995)" fill="rgb(255,255,255)" stroke="none" stroke-width="1"/><rect id="ez9htsgyecy106" width="112.400000" height="6.400000" rx="0" ry="0" transform="matrix(1 0 0 1 1348.29999999999995 693.50000000000000)" fill="rgb(255,255,255)" stroke="none" stroke-width="1"/><rect id="ez9htsgyecy107" width="112.400000" height="6.400000" rx="0" ry="0" transform="matrix(1 0 0 1 1348.29999999999995 672.29999999999995)" fill="rgb(255,255,255)" stroke="none" stroke-width="1"/><rect id="ez9htsgyecy108" width="112.400000" height="6.400000" rx="0" ry="0" transform="matrix(1 0 0 1 1348.29999999999995 651)" fill="rgb(255,255,255)" stroke="none" stroke-width="1"/><rect id="ez9htsgyecy109" width="19.500000" height="6.400000" rx="0" ry="0" transform="matrix(1 0 0 1 1319.79999999999995 714.79999999999995)" fill="rgb(255,255,255)" stroke="none" stroke-width="1"/><rect id="ez9htsgyecy110" width="19.500000" height="6.400000" rx="0" ry="0" transform="matrix(1 0 0 1 1319.79999999999995 693.50000000000000)" fill="rgb(255,255,255)" stroke="none" stroke-width="1"/><rect id="ez9htsgyecy111" width="19.500000" height="6.400000" rx="0" ry="0" transform="matrix(1 0 0 1 1319.79999999999995 672.29999999999995)" fill="rgb(255,255,255)" stroke="none" stroke-width="1"/><rect id="ez9htsgyecy112" width="19.500000" height="6.400000" rx="0" ry="0" transform="matrix(1 0 0 1 1319.79999999999995 651)" fill="rgb(255,255,255)" stroke="none" stroke-width="1"/><rect id="ez9htsgyecy113" width="43.100000" height="6.400000" rx="0" ry="0" transform="matrix(1 0 0 1 1401.29999999999995 587.29999999999995)" fill="rgb(170,170,170)" stroke="none" stroke-width="1"/><rect id="ez9htsgyecy114" width="19.500000" height="6.400000" rx="0" ry="0" transform="matrix(1 0 0 1 1495.79999999999995 813.10000000000002)" fill="rgb(255,255,255)" stroke="none" stroke-width="1"/><rect id="ez9htsgyecy115" width="19.500000" height="6.400000" rx="0" ry="0" transform="matrix(1 0 0 1 1495.79999999999995 832.39999999999998)" fill="rgb(255,255,255)" stroke="none" stroke-width="1"/><rect id="ez9htsgyecy116" width="19.500000" height="6.400000" rx="0" ry="0" transform="matrix(1 0 0 1 1495.79999999999995 855.60000000000002)" fill="rgb(255,255,255)" stroke="none" stroke-width="1"/><rect id="ez9htsgyecy117" width="19.500000" height="6.400000" rx="0" ry="0" transform="matrix(1 0 0 1 1495.79999999999995 874.39999999999998)" fill="rgb(255,255,255)" stroke="none" stroke-width="1"/><rect id="ez9htsgyecy118" width="19.500000" height="6.400000" rx="0" ry="0" transform="matrix(1 0 0 1 1495.79999999999995 896.50000000000000)" fill="rgb(255,255,255)" stroke="none" stroke-width="1"/><rect id="ez9htsgyecy119" width="19.500000" height="6.400000" rx="0" ry="0" transform="matrix(1 0 0 1 1495.79999999999995 791.79999999999995)" fill="rgb(255,255,255)" stroke="none" stroke-width="1"/><rect id="ez9htsgyecy120" width="19.500000" height="6.400000" rx="0" ry="0" transform="matrix(1 0 0 1 1495.79999999999995 771)" fill="rgb(255,255,255)" stroke="none" stroke-width="1"/><rect id="ez9htsgyecy121" width="19.500000" height="6.400000" rx="0" ry="0" transform="matrix(1 0 0 1 1495.79999999999995 749.29999999999995)" fill="rgb(255,255,255)" stroke="none" stroke-width="1"/><rect id="ez9htsgyecy122" width="97.100000" height="6.400000" rx="0" ry="0" transform="matrix(1 0 0 1 1390.20000000000005 896.50000000000000)" fill="rgb(255,255,255)" stroke="none" stroke-width="1"/><rect id="ez9htsgyecy123" width="97.100000" height="6.400000" rx="0" ry="0" transform="matrix(1 0 0 1 1390.20000000000005 874.39999999999998)" fill="rgb(255,255,255)" stroke="none" stroke-width="1"/><rect id="ez9htsgyecy124" width="97.100000" height="6.400000" rx="0" ry="0" transform="matrix(1 0 0 1 1390.20000000000005 855.60000000000002)" fill="rgb(255,255,255)" stroke="none" stroke-width="1"/><rect id="ez9htsgyecy125" width="97.100000" height="6.400000" rx="0" ry="0" transform="matrix(1 0 0 1 1390.20000000000005 832.39999999999998)" fill="rgb(255,255,255)" stroke="none" stroke-width="1"/><rect id="ez9htsgyecy126" width="97.100000" height="6.400000" rx="0" ry="0" transform="matrix(1 0 0 1 1390.20000000000005 813.39999999999998)" fill="rgb(255,255,255)" stroke="none" stroke-width="1"/><rect id="ez9htsgyecy127" width="97.100000" height="6.400000" rx="0" ry="0" transform="matrix(1 0 0 1 1390.20000000000005 791.79999999999995)" fill="rgb(255,255,255)" stroke="none" stroke-width="1"/><rect id="ez9htsgyecy128" width="97.100000" height="6.400000" rx="0" ry="0" transform="matrix(1 0 0 1 1390.20000000000005 771)" fill="rgb(255,255,255)" stroke="none" stroke-width="1"/><rect id="ez9htsgyecy129" width="97.100000" height="6.400000" rx="0" ry="0" transform="matrix(1 0 0 1 1390.20000000000005 749.29999999999995)" fill="rgb(255,255,255)" stroke="none" stroke-width="1"/><rect id="ez9htsgyecy130" width="129.500000" height="6.400000" rx="0" ry="0" transform="matrix(1 0 0 1 651.29999999999995 1005.10000000000002)" fill="rgb(255,255,255)" stroke="none" stroke-width="1"/><rect id="ez9htsgyecy131" width="147.400000" height="15.300000" rx="0" ry="0" transform="matrix(1 0 0 1 647.89999999999998 976.20000000000005)" fill="rgb(255,255,255)" stroke="none" stroke-width="1"/><rect id="ez9htsgyecy132" width="203.600000" height="49.400000" rx="0" ry="0" transform="matrix(1 0 0 1 1311.79999999999995 1029.09999999999991)" fill="none" stroke="rgb(255,255,255)" stroke-width="1" stroke-miterlimit="10"/><path id="ez9htsgyecy133" d="M1294.600000,983.800000L1224,983.800000C1221,983.800000,1218.600000,981.400000,1218.600000,978.400000L1218.600000,971.100000C1218.600000,968.100000,1221,965.700000,1224,965.700000L1294.600000,965.700000C1297.600000,965.700000,1300,968.100000,1300,971.100000L1300,978.400000C1300,981.400000,1297.600000,983.800000,1294.600000,983.800000Z" fill="rgb(255,255,255)" stroke="none" stroke-width="1"/></g></g></g><g id="ez9htsgyecy134" display="none"><path id="ez9htsgyecy135" d="M1553.500000,1122.100000L1553.500000,527.700000C1553.500000,512.200000,1541.700000,499.700000,1527.100000,499.700000L543.600000,499.700000C529,499.700000,517.200000,512.200000,517.200000,527.700000L517.200000,1122.100000L1553.500000,1122.100000Z" fill="rgb(234,234,234)" stroke="none" stroke-width="1"/><rect id="ez9htsgyecy136" width="960.100000" height="510.500000" rx="0" ry="0" transform="matrix(1 0 0 1 555.29999999999995 541.39999999999998)" fill="rgb(255,255,255)" stroke="none" stroke-width="1"/><path id="ez9htsgyecy137" d="M1709,1139.800000L361.700000,1139.800000C360.400000,1139.800000,359.300000,1138.700000,359.300000,1137.400000L359.300000,1124.100000C359.300000,1122.800000,360.400000,1121.700000,361.700000,1121.700000L1709,1121.700000C1710.300000,1121.700000,1711.400000,1122.800000,1711.400000,1124.100000L1711.400000,1137.400000C1711.400000,1138.700000,1710.300000,1139.800000,1709,1139.800000Z" fill="rgb(209,209,223)" stroke="none" stroke-width="1"/><polygon id="ez9htsgyecy138" points="1580.600000,1182.400000 1708.600000,1139.800000 362.100000,1139.800000 490,1182.400000" fill="rgb(234,234,234)" stroke="none" stroke-width="1"/><path id="ez9htsgyecy139" d="M1105,1133.300000L965.600000,1133.300000C964.200000,1133.300000,963,1132.100000,963,1130.700000L963,1121.700000L1107.600000,1121.700000L1107.600000,1130.700000C1107.600000,1132.100000,1106.500000,1133.300000,1105,1133.300000Z" fill="rgb(255,255,255)" stroke="none" stroke-width="1"/></g><g id="ez9htsgyecy140"/><g id="ez9htsgyecy141"><rect id="ez9htsgyecy142" width="938.563000" height="580.300000" rx="0" ry="0" transform="matrix(1 0 0 1 593.03700000000003 524.39999999999998)" fill="rgb(36,50,63)" stroke="none" stroke-width="1"/><rect id="ez9htsgyecy143" width="682.500000" height="371.800000" rx="0" ry="0" transform="matrix(1 0 0 1 616.70000000000005 577.70000000000005)" fill="rgb(47,100,235)" stroke="none" stroke-width="1"/><rect id="ez9htsgyecy144" width="914" height="53.300000" rx="0" ry="0" transform="matrix(1 0 0 1 616.29999999999995 524.39999999999998)" fill="rgb(13,47,89)" stroke="none" stroke-width="1"/><path id="ez9htsgyecy145" d="M1215.600000,1103.400000L1091.200000,1103.400000C1088,1103.400000,1085.300000,1100.800000,1085.300000,1097.500000L1085.300000,1042C1085.300000,1038.800000,1087.900000,1036.100000,1091.200000,1036.100000L1215.600000,1036.100000C1218.800000,1036.100000,1221.500000,1038.700000,1221.500000,1042L1221.500000,1097.500000C1221.500000,1100.800000,1218.900000,1103.400000,1215.600000,1103.400000Z" fill="rgb(22,22,99)" stroke="none" stroke-width="1"/><path id="ez9htsgyecy146" d="M1070.200000,1104.700000L945.800000,1104.700000C942.600000,1104.700000,939.900000,1102.100000,939.900000,1098.800000L939.900000,1042C939.900000,1038.800000,942.500000,1036.100000,945.800000,1036.100000L1070.200000,1036.100000C1073.400000,1036.100000,1076.100000,1038.700000,1076.100000,1042L1076.100000,1098.800000C1076.100000,1102.100000,1073.400000,1104.700000,1070.200000,1104.700000Z" fill="rgb(187,103,245)" stroke="none" stroke-width="1"/><path id="ez9htsgyecy147" d="M924.700000,1104.700000L800.300000,1104.700000C797.100000,1104.700000,794.400000,1102.100000,794.400000,1098.800000L794.400000,1042C794.400000,1038.800000,797,1036.100000,800.300000,1036.100000L924.700000,1036.100000C927.900000,1036.100000,930.600000,1038.700000,930.600000,1042L930.600000,1098.800000C930.600000,1102.100000,928,1104.700000,924.700000,1104.700000Z" fill="rgb(47,100,235)" stroke="none" stroke-width="1"/><path id="ez9htsgyecy148" d="M778.200000,1104.700000L653.800000,1104.700000C650.600000,1104.700000,647.900000,1102.100000,647.900000,1098.800000L647.900000,1042C647.900000,1038.800000,650.500000,1036.100000,653.800000,1036.100000L778.200000,1036.100000C781.400000,1036.100000,784.100000,1038.700000,784.100000,1042L784.100000,1098.800000C784.100000,1102.100000,781.500000,1104.700000,778.200000,1104.700000Z" fill="rgb(99,79,214)" stroke="none" stroke-width="1"/><rect id="ez9htsgyecy149" width="356.100000" height="21" rx="0" ry="0" transform="matrix(1 0 0 1 862.50000000000000 540.60000000000002)" fill="rgb(255,255,255)" stroke="none" stroke-width="1"/><rect id="ez9htsgyecy150" width="112.400000" height="6.400000" rx="0" ry="0" transform="matrix(1 0 0 1 1346.95000000000005 965.72699999999998)" fill="rgb(255,255,255)" stroke="none" stroke-width="1"/><rect id="ez9htsgyecy151" width="112.400000" height="6.400000" rx="0" ry="0" transform="matrix(1 0 0 1 1348 798.70299999999997)" fill="rgb(255,255,255)" stroke="none" stroke-width="1"/><rect id="ez9htsgyecy152" width="112.400000" height="6.400000" rx="0" ry="0" transform="matrix(1 0 0 1 1346.95000000000005 944.52700000000004)" fill="rgb(255,255,255)" stroke="none" stroke-width="1"/><rect id="ez9htsgyecy153" width="112.400000" height="6.400000" rx="0" ry="0" transform="matrix(1 0 0 1 1348 777.50300000000004)" fill="rgb(255,255,255)" stroke="none" stroke-width="1"/><rect id="ez9htsgyecy154" width="112.400000" height="6.400000" rx="0" ry="0" transform="matrix(1 0 0 1 1346.95000000000005 923.22699999999998)" fill="rgb(255,255,255)" stroke="none" stroke-width="1"/><rect id="ez9htsgyecy155" width="112.400000" height="6.400000" rx="0" ry="0" transform="matrix(1 0 0 1 1348 756.20299999999997)" fill="rgb(255,255,255)" stroke="none" stroke-width="1"/><rect id="ez9htsgyecy156" width="112.400000" height="6.400000" rx="0" ry="0" transform="matrix(1 0 0 1 1346.95000000000005 902.02700000000004)" fill="rgb(255,255,255)" stroke="none" stroke-width="1"/><rect id="ez9htsgyecy157" width="112.400000" height="6.400000" rx="0" ry="0" transform="matrix(1 0 0 1 1348 735.00300000000004)" fill="rgb(255,255,255)" stroke="none" stroke-width="1"/><rect id="ez9htsgyecy158" width="19.500000" height="6.400000" rx="0" ry="0" transform="matrix(1 0 0 1 1318.45000000000005 965.72699999999998)" fill="rgb(255,255,255)" stroke="none" stroke-width="1"/><rect id="ez9htsgyecy159" width="19.500000" height="6.400000" rx="0" ry="0" transform="matrix(1 0 0 1 1319.50000000000000 798.70299999999997)" fill="rgb(255,255,255)" stroke="none" stroke-width="1"/><rect id="ez9htsgyecy160" width="19.500000" height="6.400000" rx="0" ry="0" transform="matrix(1 0 0 1 1318.45000000000005 944.52700000000004)" fill="rgb(255,255,255)" stroke="none" stroke-width="1"/><rect id="ez9htsgyecy161" width="19.500000" height="6.400000" rx="0" ry="0" transform="matrix(1 0 0 1 1319.50000000000000 777.50300000000004)" fill="rgb(255,255,255)" stroke="none" stroke-width="1"/><rect id="ez9htsgyecy162" width="19.500000" height="6.400000" rx="0" ry="0" transform="matrix(1 0 0 1 1318.45000000000005 923.22699999999998)" fill="rgb(234,234,234)" stroke="none" stroke-width="1"/><rect id="ez9htsgyecy163" width="19.500000" height="6.400000" rx="0" ry="0" transform="matrix(1 0 0 1 1319.50000000000000 756.20299999999997)" fill="rgb(234,234,234)" stroke="none" stroke-width="1"/><rect id="ez9htsgyecy164" width="19.500000" height="6.400000" rx="0" ry="0" transform="matrix(1 0 0 1 1319.20000000000005 902.02700000000004)" fill="rgb(255,255,255)" stroke="none" stroke-width="1"/><rect id="ez9htsgyecy165" width="19.500000" height="6.400000" rx="0" ry="0" transform="matrix(1 0 0 1 1320.25000000000000 735.00300000000004)" fill="rgb(255,255,255)" stroke="none" stroke-width="1"/><rect id="ez9htsgyecy166" width="112.400000" height="6.400000" rx="0" ry="0" transform="matrix(1 0 0 1 1348 881.82399999999996)" fill="rgb(255,255,255)" stroke="none" stroke-width="1"/><rect id="ez9htsgyecy167" width="112.400000" height="6.400000" rx="0" ry="0" transform="matrix(1 0 0 1 1349.04999999999995 714.79999999999995)" fill="rgb(255,255,255)" stroke="none" stroke-width="1"/><rect id="ez9htsgyecy168" width="112.400000" height="6.400000" rx="0" ry="0" transform="matrix(1 0 0 1 1348 860.52400000000000)" fill="rgb(255,255,255)" stroke="none" stroke-width="1"/><rect id="ez9htsgyecy169" width="112.400000" height="6.400000" rx="0" ry="0" transform="matrix(1 0 0 1 1349.04999999999995 693.50000000000000)" fill="rgb(255,255,255)" stroke="none" stroke-width="1"/><rect id="ez9htsgyecy170" width="112.400000" height="6.400000" rx="0" ry="0" transform="matrix(1 0 0 1 1348 839.32399999999996)" fill="rgb(255,255,255)" stroke="none" stroke-width="1"/><rect id="ez9htsgyecy171" width="112.400000" height="6.400000" rx="0" ry="0" transform="matrix(1 0 0 1 1349.04999999999995 672.29999999999995)" fill="rgb(255,255,255)" stroke="none" stroke-width="1"/><rect id="ez9htsgyecy172" width="112.400000" height="6.400000" rx="0" ry="0" transform="matrix(1 0 0 1 1348 818.02400000000000)" fill="rgb(255,255,255)" stroke="none" stroke-width="1"/><rect id="ez9htsgyecy173" width="112.400000" height="6.400000" rx="0" ry="0" transform="matrix(1 0 0 1 1349.04999999999995 651)" fill="rgb(255,255,255)" stroke="none" stroke-width="1"/><rect id="ez9htsgyecy174" width="19.500000" height="6.400000" rx="0" ry="0" transform="matrix(1 0 0 1 1319.50000000000000 881.82399999999996)" fill="rgb(255,255,255)" stroke="none" stroke-width="1"/><rect id="ez9htsgyecy175" width="19.500000" height="6.400000" rx="0" ry="0" transform="matrix(1 0 0 1 1320.54999999999995 714.79999999999995)" fill="rgb(255,255,255)" stroke="none" stroke-width="1"/><rect id="ez9htsgyecy176" width="19.500000" height="6.400000" rx="0" ry="0" transform="matrix(1 0 0 1 1319.50000000000000 860.52400000000000)" fill="rgb(255,255,255)" stroke="none" stroke-width="1"/><rect id="ez9htsgyecy177" width="19.500000" height="6.400000" rx="0" ry="0" transform="matrix(1 0 0 1 1320.54999999999995 693.50000000000000)" fill="rgb(255,255,255)" stroke="none" stroke-width="1"/><rect id="ez9htsgyecy178" width="19.500000" height="6.400000" rx="0" ry="0" transform="matrix(1 0 0 1 1319.50000000000000 839.32399999999996)" fill="rgb(255,255,255)" stroke="none" stroke-width="1"/><rect id="ez9htsgyecy179" width="19.500000" height="6.400000" rx="0" ry="0" transform="matrix(1 0 0 1 1320.54999999999995 672.29999999999995)" fill="rgb(255,255,255)" stroke="none" stroke-width="1"/><rect id="ez9htsgyecy180" width="19.500000" height="6.400000" rx="0" ry="0" transform="matrix(1 0 0 1 1319.50000000000000 818.02400000000000)" fill="rgb(255,255,255)" stroke="none" stroke-width="1"/><rect id="ez9htsgyecy181" width="19.500000" height="6.400000" rx="0" ry="0" transform="matrix(1 0 0 1 1320.54999999999995 651)" fill="rgb(255,255,255)" stroke="none" stroke-width="1"/><rect id="ez9htsgyecy182" width="43.100000" height="6.400000" rx="0" ry="0" transform="matrix(1 0 0 1 1401.29999999999995 587.29999999999995)" fill="rgb(170,170,170)" stroke="none" stroke-width="1"/><rect id="ez9htsgyecy183" width="129.500000" height="6.400000" rx="0" ry="0" transform="matrix(1 0 0 1 651.29999999999995 1005.10000000000002)" fill="rgb(255,255,255)" stroke="none" stroke-width="1"/><rect id="ez9htsgyecy184" width="147.400000" height="15.300000" rx="0" ry="0" transform="matrix(1 0 0 1 647.89999999999998 976.20000000000005)" fill="rgb(255,255,255)" stroke="none" stroke-width="1"/><rect id="ez9htsgyecy185" width="203.600000" height="49.400000" rx="0" ry="0" transform="matrix(1 0 0 1 1311.79999999999995 1029.09999999999991)" fill="none" stroke="rgb(255,255,255)" stroke-width="1" stroke-miterlimit="10"/><path id="ez9htsgyecy186" d="M1294.600000,983.800000L1224,983.800000C1221,983.800000,1218.600000,981.400000,1218.600000,978.400000L1218.600000,971.100000C1218.600000,968.100000,1221,965.700000,1224,965.700000L1294.600000,965.700000C1297.600000,965.700000,1300,968.100000,1300,971.100000L1300,978.400000C1300,981.400000,1297.600000,983.800000,1294.600000,983.800000Z" fill="rgb(255,255,255)" stroke="none" stroke-width="1"/></g><rect id="ez9htsgyecy187" display="none" width="986" height="569" rx="0" ry="0" transform="matrix(1 0 0 1 544.40002441406250 524.40002441406250)" fill="none" stroke="none" stroke-width="1"/><g id="ez9htsgyecy188" display="none" opacity="0"><path id="ez9htsgyecy189" d="M1553.800000,1122.100000L1553.800000,528.100000C1553.800000,512.600000,1542,500.100000,1527.400000,500.100000L544.200000,500.100000C529.600000,500.100000,517.800000,512.600000,517.800000,528.100000L517.800000,1122.100000L1553.800000,1122.100000Z" fill="rgb(234,234,234)" stroke="none" stroke-width="1"/><rect id="ez9htsgyecy190" width="960" height="511" rx="0" ry="0" transform="matrix(1 0 0 1 555.79999999999995 541.10000000000002)" fill="rgb(255,255,255)" stroke="none" stroke-width="1"/><path id="ez9htsgyecy191" d="M1709.400000,1140.100000L362.100000,1140.100000C360.800000,1140.100000,359.700000,1139,359.700000,1137.700000L359.700000,1124.400000C359.700000,1123.100000,360.800000,1122,362.100000,1122L1709.400000,1122C1710.700000,1122,1711.800000,1123.100000,1711.800000,1124.400000L1711.800000,1137.700000C1711.800000,1139,1710.700000,1140.100000,1709.400000,1140.100000Z" fill="rgb(209,209,223)" stroke="none" stroke-width="1"/><polygon id="ez9htsgyecy192" points="1580.600000,1182.100000 1708.600000,1139.100000 362.100000,1139.100000 490,1182.100000" fill="rgb(234,234,234)" stroke="none" stroke-width="1"/><path id="ez9htsgyecy193" d="M1105.200000,1133.100000L965.300000,1133.100000C963.900000,1133.100000,962.700000,1131.900000,962.700000,1130.500000L962.700000,1121.100000L1107.700000,1121.100000L1107.700000,1130.500000C1107.800000,1131.900000,1106.600000,1133.100000,1105.200000,1133.100000Z" fill="rgb(255,255,255)" stroke="none" stroke-width="1"/><rect id="ez9htsgyecy194" width="72" height="569" rx="0" ry="0" transform="matrix(1 0 0 1 544.79999999999995 524.10000000000002)" fill="rgb(9,36,76)" stroke="none" stroke-width="1"/><rect id="ez9htsgyecy195" width="915" height="560" rx="0" ry="0" transform="matrix(1 0 0 1 616.79999999999995 541.10000000000002)" fill="rgb(36,50,63)" stroke="none" stroke-width="1"/><rect id="ez9htsgyecy196" width="682" height="322" rx="0" ry="0" transform="matrix(1 0 0 1 616.79999999999995 524.10000000000002)" fill="rgb(0,204,194)" stroke="none" stroke-width="1"/><rect id="ez9htsgyecy197" width="232" height="322" rx="0" ry="0" transform="matrix(1 0 0 1 1299.79999999999995 524.10000000000002)" fill="rgb(9,36,76)" stroke="none" stroke-width="1"/><path id="ez9htsgyecy198" d="M1389.900000,1105.100000L1265.700000,1105.100000C1262.500000,1105.100000,1259.800000,1102.500000,1259.800000,1099.200000L1259.800000,933C1259.800000,929.800000,1262.400000,927.100000,1265.700000,927.100000L1389.900000,927.100000C1393.100000,927.100000,1395.800000,929.700000,1395.800000,933L1395.800000,1099.200000C1395.800000,1102.400000,1393.100000,1105.100000,1389.900000,1105.100000Z" fill="rgb(0,204,194)" stroke="none" stroke-width="1"/><path id="ez9htsgyecy199" d="M1238.900000,1101.100000L1114.700000,1101.100000C1111.500000,1101.100000,1108.800000,1098.500000,1108.800000,1095.200000L1108.800000,933C1108.800000,929.800000,1111.400000,927.100000,1114.700000,927.100000L1238.900000,927.100000C1242.100000,927.100000,1244.800000,929.700000,1244.800000,933L1244.800000,1095.200000C1244.800000,1098.400000,1242.100000,1101.100000,1238.900000,1101.100000Z" fill="rgb(22,22,99)" stroke="none" stroke-width="1"/><path id="ez9htsgyecy200" d="M1085.900000,1105.100000L961.600000,1105.100000C958.400000,1105.100000,955.700000,1102.500000,955.700000,1099.200000L955.700000,933C955.700000,929.800000,958.300000,927.100000,961.600000,927.100000L1085.800000,927.100000C1089,927.100000,1091.700000,929.700000,1091.700000,933L1091.700000,1099.200000C1091.800000,1102.400000,1089.100000,1105.100000,1085.900000,1105.100000Z" fill="rgb(187,103,245)" stroke="none" stroke-width="1"/><path id="ez9htsgyecy201" d="M931.900000,1105.100000L807.600000,1105.100000C804.400000,1105.100000,801.700000,1102.500000,801.700000,1099.200000L801.700000,933C801.700000,929.800000,804.300000,927.100000,807.600000,927.100000L931.800000,927.100000C935,927.100000,937.700000,929.700000,937.700000,933L937.700000,1099.200000C937.800000,1102.400000,935.100000,1105.100000,931.900000,1105.100000Z" fill="rgb(47,100,235)" stroke="none" stroke-width="1"/><path id="ez9htsgyecy202" d="M777.900000,1105.100000L653.600000,1105.100000C650.400000,1105.100000,647.700000,1102.500000,647.700000,1099.200000L647.700000,933C647.700000,929.800000,650.300000,927.100000,653.600000,927.100000L777.800000,927.100000C781,927.100000,783.700000,929.700000,783.700000,933L783.700000,1099.200000C783.800000,1102.400000,781.100000,1105.100000,777.900000,1105.100000Z" fill="rgb(99,79,214)" stroke="none" stroke-width="1"/><path id="ez9htsgyecy203" d="M1540.900000,1103.100000L1416.700000,1103.100000C1413.500000,1103.100000,1410.800000,1100.500000,1410.800000,1097.200000L1410.800000,931C1410.800000,927.800000,1413.400000,925.100000,1416.700000,925.100000L1540.900000,925.100000C1544.100000,925.100000,1546.800000,927.700000,1546.800000,931L1546.800000,1097.200000C1546.800000,1100.400000,1544.100000,1103.100000,1540.900000,1103.100000Z" fill="rgb(99,79,214)" stroke="none" stroke-width="1"/><rect id="ez9htsgyecy204" width="154" height="13" rx="0" ry="0" transform="matrix(1 0 0 1 1336.79999999999995 558.10000000000002)" fill="rgb(255,255,255)" stroke="none" stroke-width="1"/><rect id="ez9htsgyecy205" width="129" height="6" rx="0" ry="0" transform="matrix(1 0 0 1 1349.79999999999995 587.10000000000002)" fill="rgb(255,255,255)" stroke="none" stroke-width="1"/><rect id="ez9htsgyecy206" width="129" height="6" rx="0" ry="0" transform="matrix(1 0 0 1 647.79999999999995 895.10000000000002)" fill="rgb(255,255,255)" stroke="none" stroke-width="1"/><rect id="ez9htsgyecy207" width="147" height="15" rx="0" ry="0" transform="matrix(1 0 0 1 647.79999999999995 870.10000000000002)" fill="rgb(255,255,255)" stroke="none" stroke-width="1"/><rect id="ez9htsgyecy208" width="129" height="13" rx="0" ry="0" transform="matrix(1 0 0 1 1349.79999999999995 738.10000000000002)" fill="rgb(255,255,255)" stroke="none" stroke-width="1"/><rect id="ez9htsgyecy209" width="1009" height="28" rx="0" ry="0" transform="matrix(1 0 0 1 544.79999999999995 1093.09999999999991)" fill="rgb(234,234,234)" stroke="none" stroke-width="1"/><path id="ez9htsgyecy210" d="M1467.300000,821.100000L1361.100000,821.100000C1358.100000,821.100000,1355.700000,818.700000,1355.700000,815.700000L1355.700000,784.500000C1355.700000,781.500000,1358.100000,779.100000,1361.100000,779.100000L1467.300000,779.100000C1470.300000,779.100000,1472.700000,781.500000,1472.700000,784.500000L1472.700000,815.700000C1472.800000,818.600000,1470.300000,821.100000,1467.300000,821.100000Z" fill="rgb(255,255,255)" stroke="none" stroke-width="1"/><circle id="ez9htsgyecy211" r="15" transform="matrix(1 0 0 1 581.79999999999995 586.10000000000002)" fill="rgb(234,234,234)" stroke="none" stroke-width="1"/><rect id="ez9htsgyecy212" width="28" height="28" rx="0" ry="0" transform="matrix(1 0 0 1 567.79999999999995 850.10000000000002)" fill="rgb(234,234,234)" stroke="none" stroke-width="1"/><rect id="ez9htsgyecy213" width="28" height="28" rx="0" ry="0" transform="matrix(1 0 0 1 567.79999999999995 896.10000000000002)" fill="rgb(234,234,234)" stroke="none" stroke-width="1"/><rect id="ez9htsgyecy214" width="28" height="28" rx="0" ry="0" transform="matrix(1 0 0 1 567.79999999999995 943.10000000000002)" fill="rgb(234,234,234)" stroke="none" stroke-width="1"/><rect id="ez9htsgyecy215" width="28" height="28" rx="0" ry="0" transform="matrix(1 0 0 1 567.79999999999995 994.10000000000002)" fill="rgb(234,234,234)" stroke="none" stroke-width="1"/><rect id="ez9htsgyecy216" width="28" height="28" rx="0" ry="0" transform="matrix(1 0 0 1 567.79999999999995 1035.09999999999991)" fill="rgb(234,234,234)" stroke="none" stroke-width="1"/><rect id="ez9htsgyecy217" width="22" height="366" rx="0" ry="0" transform="matrix(1 0 0 1 1531.79999999999995 739.10000000000002)" fill="rgb(234,234,234)" stroke="none" stroke-width="1"/></g><rect id="ez9htsgyecy218" display="none" width="987" height="570" rx="0" ry="0" transform="matrix(1 0 0 1 544.79998779296875 524.09997558593750)" fill="none" stroke="none" stroke-width="1"/></g><script><![CDATA[!function(t,n){"object"==typeof exports&&"undefined"!=typeof module?module.exports=n():"function"==typeof define&&define.amd?define(n):(t=t||self).__SVGATOR_PLAYER__=n()}(this,(function(){"use strict";function t(n){return(t="function"==typeof Symbol&&"symbol"==typeof Symbol.iterator?function(t){return typeof t}:function(t){return t&&"function"==typeof Symbol&&t.constructor===Symbol&&t!==Symbol.prototype?"symbol":typeof t})(n)}function n(t,n){if(!(t instanceof n))throw new TypeError("Cannot call a class as a function")}function r(t,n){for(var r=0;r<n.length;r++){var e=n[r];e.enumerable=e.enumerable||!1,e.configurable=!0,"value"in e&&(e.writable=!0),Object.defineProperty(t,e.key,e)}}function e(t,n,e){return n&&r(t.prototype,n),e&&r(t,e),t}var i=Math.abs;function u(t){return t}function o(t,n,r){var e=1-r;return 3*r*e*(t*e+n*r)+r*r*r}function a(){var t=arguments.length>0&&void 0!==arguments[0]?arguments[0]:0,n=arguments.length>1&&void 0!==arguments[1]?arguments[1]:0,r=arguments.length>2&&void 0!==arguments[2]?arguments[2]:1,e=arguments.length>3&&void 0!==arguments[3]?arguments[3]:1;return t<0||t>1||r<0||r>1?null:i(t-n)<=1e-5&&i(r-e)<=1e-5?u:function(u){if(u<=0)return t>0?u*n/t:0===n&&r>0?u*e/r:0;if(u>=1)return r<1?1+(u-1)*(e-1)/(r-1):1===r&&t<1?1+(u-1)*(n-1)/(t-1):1;for(var a,l=0,f=1;l<f;){var s=o(t,r,a=(l+f)/2);if(i(u-s)<1e-5)break;s<u?l=a:f=a}return o(n,e,a)}}function l(){return 1}function f(t){return 1===t?1:0}function s(){var t=arguments.length>0&&void 0!==arguments[0]?arguments[0]:1,n=arguments.length>1&&void 0!==arguments[1]?arguments[1]:0;if(1===t){if(0===n)return f;if(1===n)return l}var r=1/t;return function(t){return t>=1?1:(t+=n*r)-t%r}}function c(t){var n=arguments.length>1&&void 0!==arguments[1]?arguments[1]:2;if(Number.isInteger(t))return t;var r=Math.pow(10,n);return Math.round(t*r)/r}var v=Math.PI/180;function h(t,n,r){return t>=.5?r:n}function y(t,n,r){return 0===t||n===r?n:t*(r-n)+n}function d(t,n,r){var e=y(t,n,r);return e<=0?0:e}function g(t,n,r){return 0===t?n:1===t?r:{x:y(t,n.x,r.x),y:y(t,n.y,r.y)}}function m(t,n,r){return 0===t?n:1===t?r:{x:d(t,n.x,r.x),y:d(t,n.y,r.y)}}function p(t,n,r){var e=function(t,n,r){return Math.round(y(t,n,r))}(t,n,r);return e<=0?0:e>=255?255:e}function b(t,n,r){return 0===t?n:1===t?r:{r:p(t,n.r,r.r),g:p(t,n.g,r.g),b:p(t,n.b,r.b),a:y(t,null==n.a?1:n.a,null==r.a?1:r.a)}}function w(t,n,r){if(0===t)return n;if(1===t)return r;var e=n.length;if(e!==r.length)return h(t,n,r);for(var i=[],u=0;u<e;u++)i.push(b(t,n[u],r[u]));return i}function A(t,n,r){var e=n.length;if(e!==r.length)return h(t,n,r);for(var i=new Array(e),u=0;u<e;u++)i[u]=y(t,n[u],r[u]);return i}function x(t,n){for(var r=[],e=0;e<t;e++)r.push(n);return r}function k(t,n){if(--n<=0)return t;var r=(t=Object.assign([],t)).length;do{for(var e=0;e<r;e++)t.push(t[e])}while(--n>0);return t}var S=/\.0+$/g;function _(t){return Number.isInteger(t)?t+"":t.toFixed(6).replace(S,"")}function M(t){var n=arguments.length>1&&void 0!==arguments[1]?arguments[1]:" ";return t&&t.length?t.map(_).join(n):""}function I(t){return _(t.x)+","+_(t.y)}function E(t){return t?null==t.a||t.a>=1?"rgb("+t.r+","+t.g+","+t.b+")":"rgba("+t.r+","+t.g+","+t.b+","+t.a+")":"transparent"}var F={f:null,i:m,u:function(t,n){return function(r){var e=n(r);t.setAttribute("rx",_(e.x)),t.setAttribute("ry",_(e.y))}}},B={f:null,i:function(t,n,r){return 0===t?n:1===t?r:{width:d(t,n.width,r.width),height:d(t,n.height,r.height)}},u:function(t,n){return function(r){var e=n(r);t.setAttribute("width",_(e.width)),t.setAttribute("height",_(e.height))}}},j=Math.sin,q=Math.cos,P=Math.acos,O=Math.asin,z=Math.tan,L=Math.atan2,C=Math.PI/180,R=180/Math.PI,T=Math.sqrt,V=function(){function t(){var r=arguments.length>0&&void 0!==arguments[0]?arguments[0]:1,e=arguments.length>1&&void 0!==arguments[1]?arguments[1]:0,i=arguments.length>2&&void 0!==arguments[2]?arguments[2]:0,u=arguments.length>3&&void 0!==arguments[3]?arguments[3]:1,o=arguments.length>4&&void 0!==arguments[4]?arguments[4]:0,a=arguments.length>5&&void 0!==arguments[5]?arguments[5]:0;n(this,t),this.m=[r,e,i,u,o,a],this.i=null,this.w=null,this.s=null}return e(t,[{key:"point",value:function(t,n){var r=this.m;return{x:r[0]*t+r[2]*n+r[4],y:r[1]*t+r[3]*n+r[5]}}},{key:"translateSelf",value:function(){var t=arguments.length>0&&void 0!==arguments[0]?arguments[0]:0,n=arguments.length>1&&void 0!==arguments[1]?arguments[1]:0;if(!t&&!n)return this;var r=this.m;return r[4]+=r[0]*t+r[2]*n,r[5]+=r[1]*t+r[3]*n,this.w=this.s=this.i=null,this}},{key:"rotateSelf",value:function(){var t=arguments.length>0&&void 0!==arguments[0]?arguments[0]:0;if(t%=360){var n=j(t*=C),r=q(t),e=this.m,i=e[0],u=e[1];e[0]=i*r+e[2]*n,e[1]=u*r+e[3]*n,e[2]=e[2]*r-i*n,e[3]=e[3]*r-u*n,this.w=this.s=this.i=null}return this}},{key:"scaleSelf",value:function(){var t=arguments.length>0&&void 0!==arguments[0]?arguments[0]:1,n=arguments.length>1&&void 0!==arguments[1]?arguments[1]:1;if(1!==t||1!==n){var r=this.m;r[0]*=t,r[1]*=t,r[2]*=n,r[3]*=n,this.w=this.s=this.i=null}return this}},{key:"skewSelf",value:function(t,n){if(n%=360,(t%=360)||n){var r=this.m,e=r[0],i=r[1],u=r[2],o=r[3];t&&(t=z(t*C),r[2]+=e*t,r[3]+=i*t),n&&(n=z(n*C),r[0]+=u*n,r[1]+=o*n),this.w=this.s=this.i=null}return this}},{key:"resetSelf",value:function(){var t=arguments.length>0&&void 0!==arguments[0]?arguments[0]:1,n=arguments.length>1&&void 0!==arguments[1]?arguments[1]:0,r=arguments.length>2&&void 0!==arguments[2]?arguments[2]:0,e=arguments.length>3&&void 0!==arguments[3]?arguments[3]:1,i=arguments.length>4&&void 0!==arguments[4]?arguments[4]:0,u=arguments.length>5&&void 0!==arguments[5]?arguments[5]:0,o=this.m;return o[0]=t,o[1]=n,o[2]=r,o[3]=e,o[4]=i,o[5]=u,this.w=this.s=this.i=null,this}},{key:"recomposeSelf",value:function(){var t=arguments.length>0&&void 0!==arguments[0]?arguments[0]:null,n=arguments.length>1&&void 0!==arguments[1]?arguments[1]:null,r=arguments.length>2&&void 0!==arguments[2]?arguments[2]:null,e=arguments.length>3&&void 0!==arguments[3]?arguments[3]:null,i=arguments.length>4&&void 0!==arguments[4]?arguments[4]:null;return this.isIdentity||this.resetSelf(),t&&(t.x||t.y)&&this.translateSelf(t.x,t.y),n&&this.rotateSelf(n),r&&(r.x&&this.skewSelf(r.x,0),r.y&&this.skewSelf(0,r.y)),!e||1===e.x&&1===e.y||this.scaleSelf(e.x,e.y),i&&(i.x||i.y)&&this.translateSelf(i.x,i.y),this}},{key:"decompose",value:function(){var t=arguments.length>0&&void 0!==arguments[0]?arguments[0]:0,n=arguments.length>1&&void 0!==arguments[1]?arguments[1]:0,r=this.m,e=r[0]*r[0]+r[1]*r[1],i=[[r[0],r[1]],[r[2],r[3]]],u=T(e);if(0===u)return{origin:{x:r[4],y:r[5]},translate:{x:t,y:n},scale:{x:0,y:0},skew:{x:0,y:0},rotate:0};i[0][0]/=u,i[0][1]/=u;var o=r[0]*r[3]-r[1]*r[2]<0;o&&(u=-u);var a=i[0][0]*i[1][0]+i[0][1]*i[1][1];i[1][0]-=i[0][0]*a,i[1][1]-=i[0][1]*a;var l=T(i[1][0]*i[1][0]+i[1][1]*i[1][1]);if(0===l)return{origin:{x:r[4],y:r[5]},translate:{x:t,y:n},scale:{x:u,y:0},skew:{x:0,y:0},rotate:0};i[1][0]/=l,i[1][1]/=l,a/=l;var f=0;return i[1][1]<0?(f=P(i[1][1])*R,i[0][1]<0&&(f=360-f)):f=O(i[0][1])*R,o&&(f=-f),a=L(a,T(i[0][0]*i[0][0]+i[0][1]*i[0][1]))*R,{origin:{x:r[4],y:r[5]},translate:{x:t,y:n},scale:{x:u,y:l},skew:{x:a,y:0},rotate:f}}},{key:"toString",value:function(){return null===this.s&&(this.s="matrix("+this.m.map(N).join(" ")+")"),this.s}},{key:"determinant",get:function(){var t=this.m;return t[0]*t[3]-t[1]*t[2]}},{key:"isIdentity",get:function(){if(null===this.i){var t=this.m;this.i=1===t[0]&&0===t[1]&&0===t[2]&&1===t[3]&&0===t[4]&&0===t[5]}return this.i}}]),t}(),D=/\.0+$/;function N(t){return Number.isInteger(t)?t:t.toFixed(14).replace(D,"")}Object.freeze({M:2,L:2,Z:0,H:1,V:1,C:6,Q:4,T:2,S:4,A:7});function G(t,n,r){return t+(n-t)*r}function $(t,n,r){var e=arguments.length>3&&void 0!==arguments[3]&&arguments[3],i={x:G(t.x,n.x,r),y:G(t.y,n.y,r)};return e&&(i.a=H(t,n)),i}function H(t,n){return Math.atan2(n.y-t.y,n.x-t.x)}function Q(t,n,r,e){var i=1-e;return i*i*t+2*i*e*n+e*e*r}function U(t,n,r,e){return 2*(1-e)*(n-t)+2*e*(r-n)}function Y(t,n,r,e){var i=arguments.length>4&&void 0!==arguments[4]&&arguments[4],u={x:Q(t.x,n.x,r.x,e),y:Q(t.y,n.y,r.y,e)};return i&&(u.a=Z(t,n,r,e)),u}function Z(t,n,r,e){return Math.atan2(U(t.y,n.y,r.y,e),U(t.x,n.x,r.x,e))}function J(t,n,r,e,i){var u=i*i;return i*u*(e-t+3*(n-r))+3*u*(t+r-2*n)+3*i*(n-t)+t}function K(t,n,r,e,i){var u=1-i;return 3*(u*u*(n-t)+2*u*i*(r-n)+i*i*(e-r))}function W(t,n,r,e,i){var u=arguments.length>5&&void 0!==arguments[5]&&arguments[5],o={x:J(t.x,n.x,r.x,e.x,i),y:J(t.y,n.y,r.y,e.y,i)};return u&&(o.a=X(t,n,r,e,i)),o}function X(t,n,r,e,i){return Math.atan2(K(t.y,n.y,r.y,e.y,i),K(t.x,n.x,r.x,e.x,i))}function tt(t,n,r){var e=arguments.length>3&&void 0!==arguments[3]&&arguments[3];if(rt(n)){if(et(r))return Y(n,r.start,r,t,e)}else if(rt(r)){if(n.end)return Y(n,n.end,r,t,e)}else{if(n.end)return r.start?W(n,n.end,r.start,r,t,e):Y(n,n.end,r,t,e);if(r.start)return Y(n,r.start,r,t,e)}return $(n,r,t,e)}function nt(t,n,r){var e=tt(t,n,r,!0);return e.a=function(t){var n=arguments.length>1&&void 0!==arguments[1]&&arguments[1];return n?t+Math.PI:t}(e.a)/v,e}function rt(t){return!t.type||"corner"===t.type}function et(t){return null!=t.start&&!rt(t)}var it=new V;var ut={f:function(t){return t?t.join(" "):""},i:function(n,r,e){if(0===n)return r;if(1===n)return e;var i=r.length;if(i!==e.length)return h(n,r,e);for(var u,o=new Array(i),a=0;a<i;a++){if((u=t(r[a]))!==t(e[a]))return h(n,r,e);if("number"===u)o[a]=y(n,r[a],e[a]);else{if(r[a]!==e[a])return h(n,r,e);o[a]=r[a]}}return o}},ot={f:null,i:A,u:function(t,n){return function(r){var e=n(r);t.setAttribute("x1",_(e[0])),t.setAttribute("y1",_(e[1])),t.setAttribute("x2",_(e[2])),t.setAttribute("y2",_(e[3]))}}},at={f:_,i:y},lt={f:_,i:function(t,n,r){var e=y(t,n,r);return e<=0?0:e>=1?1:e}},ft={f:M,i:function(t,n,r){var e,i,u,o=n.length,a=r.length;if(o!==a)if(0===o)n=x(o=a,0);else if(0===a)a=o,r=x(o,0);else{var l=(u=(e=o)*(i=a)/function(t,n){for(var r;n;)r=n,n=t%n,t=r;return t||1}(e,i))<0?-u:u;n=k(n,Math.floor(l/o)),r=k(r,Math.floor(l/a)),o=a=l}for(var f=[],s=0;s<o;s++)f.push(c(d(t,n[s],r[s]),6));return f}};function st(t,n,r,e,i,u,o,a){return n=function(t,n,r){for(var e,i,u,o=t.length-1,a={},l=0;l<=o;l++)(e=t[l]).e&&(e.e=n(e.e)),e.v&&"g"===(i=e.v).t&&i.r&&(u=r.getElementById(i.r))&&(a[i.r]=u.querySelectorAll("stop"));return a}(t,e,a),function(e){var i,u=r(e,t,ct);return u?"c"===u.t?E(u.v):"g"===u.t?(n[u.r]&&function(t,n){for(var r=0,e=t.length;r<e;r++)t[r].setAttribute("stop-color",E(n[r]))}(n[u.r],u.v),(i=u.r)?"url(#"+i+")":"none"):"none":"none"}}function ct(t,n,r){if(0===t)return n;if(1===t)return r;if(n&&r){var e=n.t;if(e===r.t)switch(n.t){case"c":return{t:e,v:b(t,n.v,r.v)};case"g":if(n.r===r.r)return{t:e,v:w(t,n.v,r.v),r:n.r}}}return h(t,n,r)}var vt={blur:m,brightness:d,contrast:d,"drop-shadow":function(t,n,r){return 0===t?n:1===t?r:{blur:m(t,n.blur,r.blur),offset:g(t,n.offset,r.offset),color:b(t,n.color,r.color)}},grayscale:d,"hue-rotate":y,invert:d,opacity:d,saturate:d,sepia:d};function ht(t,n,r){if(0===t)return n;if(1===t)return r;var e=n.length;if(e!==r.length)return h(t,n,r);for(var i,u=[],o=0;o<e;o++){if(n[o].type!==r[o].type)return n;if(!(i=vt[n[o].type]))return h(t,n,r);u.push({type:n.type,value:i(t,n[o].value,r[o].value)})}return u}var yt={blur:function(t){return t?function(n){t.setAttribute("stdDeviation",I(n))}:null},brightness:function(t,n,r){return(t=gt(r,n))?function(n){n=_(n),t.map((function(t){return t.setAttribute("slope",n)}))}:null},contrast:function(t,n,r){return(t=gt(r,n))?function(n){var r=_((1-n)/2);n=_(n),t.map((function(t){t.setAttribute("slope",n),t.setAttribute("intercept",r)}))}:null},"drop-shadow":function(t,n,r){var e=r.getElementById(n+"-blur");if(!e)return null;var i=r.getElementById(n+"-offset");if(!i)return null;var u=r.getElementById(n+"-flood");return u?function(t){e.setAttribute("stdDeviation",I(t.blur)),i.setAttribute("dx",_(t.offset.x)),i.setAttribute("dy",_(t.offset.y)),u.setAttribute("flood-color",E(t.color))}:null},grayscale:function(t){return t?function(n){t.setAttribute("values",M(function(t){return[.2126+.7874*(t=1-t),.7152-.7152*t,.0722-.0722*t,0,0,.2126-.2126*t,.7152+.2848*t,.0722-.0722*t,0,0,.2126-.2126*t,.7152-.7152*t,.0722+.9278*t,0,0,0,0,0,1,0]}(n)))}:null},"hue-rotate":function(t){return t?function(n){return t.setAttribute("values",_(n))}:null},invert:function(t,n,r){return(t=gt(r,n))?function(n){n=_(n)+" "+_(1-n),t.map((function(t){return t.setAttribute("tableValues",n)}))}:null},opacity:function(t,n,r){return(t=r.getElementById(n+"-A"))?function(n){return t.setAttribute("tableValues","0 "+_(n))}:null},saturate:function(t){return t?function(n){return t.setAttribute("values",_(n))}:null},sepia:function(t){return t?function(n){return t.setAttribute("values",M(function(t){return[.393+.607*(t=1-t),.769-.769*t,.189-.189*t,0,0,.349-.349*t,.686+.314*t,.168-.168*t,0,0,.272-.272*t,.534-.534*t,.131+.869*t,0,0,0,0,0,1,0]}(n)))}:null}};var dt=["R","G","B"];function gt(t,n){var r=dt.map((function(r){return t.getElementById(n+"-"+r)||null}));return-1!==r.indexOf(null)?null:r}var mt={fill:st,"fill-opacity":lt,stroke:st,"stroke-opacity":lt,"stroke-width":at,"stroke-dashoffset":{f:_,i:y},"stroke-dasharray":ft,opacity:lt,transform:function(n,r,e,i){if(!(n=function(n,r){if(!n||"object"!==t(n))return null;var e=!1;for(var i in n)n.hasOwnProperty(i)&&(n[i]&&n[i].length?(n[i].forEach((function(t){t.e&&(t.e=r(t.e))})),e=!0):delete n[i]);return e?n:null}(n,i)))return null;var u=function(t,i,u){var o=arguments.length>3&&void 0!==arguments[3]?arguments[3]:null;return n[t]?e(i,n[t],u):r&&r[t]?r[t]:o};return r&&r.a&&n.o?function(t){var r=e(t,n.o,nt);return it.recomposeSelf(r,u("r",t,y,0)+r.a,u("k",t,g),u("s",t,g),u("t",t,g)).toString()}:function(t){return it.recomposeSelf(u("o",t,tt,null),u("r",t,y,0),u("k",t,g),u("s",t,g),u("t",t,g)).toString()}},"#filter":function(t,n,r,e,i,u,o,a){if(!n.items||!t||!t.length)return null;var l=function(t,n){var r=(t=t.map((function(t){return t&&yt[t[0]]?(n.getElementById(t[1]),yt[t[0]](n.getElementById(t[1]),t[1],n)):null}))).length;return function(n){for(var e=0;e<r;e++)t[e]&&t[e](n[e].value)}}(n.items,a);return l?(t=function(t,n){return t.map((function(t){return t.e=n(t.e),t}))}(t,e),function(n){l(r(n,t,ht))}):null},"#line":ot,points:{f:M,i:A},d:ut,r:at,"#size":B,"#radius":F,_:function(t,n){if(Array.isArray(t))for(var r=0;r<t.length;r++)this[t[r]]=n;else this[t]=n}},pt=function(){function t(r){n(this,t),this.list=r,this.length=r.length}return e(t,[{key:"setAttribute",value:function(t,n){for(var r=this.list,e=0;e<this.length;e++)r[e].setAttribute(t,n)}},{key:"removeAttribute",value:function(t){for(var n=this.list,r=0;r<this.length;r++)n[r].removeAttribute(t)}},{key:"style",value:function(t,n){for(var r=this.list,e=0;e<this.length;e++)r[e].style[t]=n}}]),t}(),bt=/-./g,wt=function(t,n){return n.toUpperCase()};function At(t){return"function"==typeof t?t:h}function xt(t){return t?"function"==typeof t?t:Array.isArray(t)?function(t){var n=arguments.length>1&&void 0!==arguments[1]?arguments[1]:u;if(!Array.isArray(t))return n;switch(t.length){case 1:return s(t[0])||n;case 2:return s(t[0],t[1])||n;case 4:return a(t[0],t[1],t[2],t[3])||n}return n}(t,null):function(t,n){var r=arguments.length>2&&void 0!==arguments[2]?arguments[2]:u;switch(t){case"linear":return u;case"steps":return s(n.steps||1,n.jump||0)||r;case"bezier":case"cubic-bezier":return a(n.x1||0,n.y1||0,n.x2||0,n.y2||0)||r}return r}(t.type,t.value,null):null}function kt(t,n,r){var e=arguments.length>3&&void 0!==arguments[3]&&arguments[3],i=n.length-1;if(t<=n[0].t)return e?[0,0,n[0].v]:n[0].v;if(t>=n[i].t)return e?[i,1,n[i].v]:n[i].v;var u,o=n[0],a=null;for(u=1;u<=i;u++){if(!(t>n[u].t)){a=n[u];break}o=n[u]}return null==a?e?[i,1,n[i].v]:n[i].v:o.t===a.t?e?[u,1,a.v]:a.v:(t=(t-o.t)/(a.t-o.t),o.e&&(t=o.e(t)),e?[u,t,r(t,o.v,a.v)]:r(t,o.v,a.v))}function St(t,n){var r=arguments.length>2&&void 0!==arguments[2]?arguments[2]:null;return t&&t.length?"function"!=typeof n?null:("function"!=typeof r&&(r=null),function(e){var i=kt(e,t,n);return null!=i&&r&&(i=r(i)),i}):null}function _t(t,n){return t.t-n.t}function Mt(n,r,e,i,u){var o,a="@"===e[0],l="#"===e[0],f=mt[e],s=h;switch(a?(o=e.substr(1),e=o.replace(bt,wt)):l&&(e=e.substr(1)),t(f)){case"function":if(s=f(i,u,kt,xt,e,a,r,n),l)return s;break;case"string":s=St(i,At(f));break;case"object":if((s=St(i,At(f.i),f.f))&&"function"==typeof f.u)return f.u(r,s,e,a,n)}return s?function(t,n,r){var e=arguments.length>3&&void 0!==arguments[3]&&arguments[3];if(e)return t instanceof pt?function(e){return t.style(n,r(e))}:function(e){return t.style[n]=r(e)};if(Array.isArray(n)){var i=n.length;return function(e){var u=r(e);if(null==u)for(var o=0;o<i;o++)t[o].removeAttribute(n);else for(var a=0;a<i;a++)t[a].setAttribute(n,u)}}return function(e){var i=r(e);null==i?t.removeAttribute(n):t.setAttribute(n,i)}}(r,e,s,a):null}function It(n,r,e,i){if(!i||"object"!==t(i))return null;var u=null,o=null;return Array.isArray(i)?o=function(t){if(!t||!t.length)return null;for(var n=0;n<t.length;n++)t[n].e&&(t[n].e=xt(t[n].e));return t.sort(_t)}(i):(o=i.keys,u=i.data||null),o?Mt(n,r,e,o,u):null}function Et(t,n,r){if(!r)return null;var e=[];for(var i in r)if(r.hasOwnProperty(i)){var u=It(t,n,i,r[i]);u&&e.push(u)}return e.length?e:null}function Ft(t,n){if(!n.duration||n.duration<0)return null;var r=function(t,n){if(!n)return null;var r=[];if(Array.isArray(n))for(var e=n.length,i=0;i<e;i++){var u=n[i];if(2===u.length){var o=null;if("string"==typeof u[0])o=t.getElementById(u[0]);else if(Array.isArray(u[0])){o=[];for(var a=0;a<u[0].length;a++)if("string"==typeof u[0][a]){var l=t.getElementById(u[0][a]);l&&o.push(l)}o=o.length?1===o.length?o[0]:new pt(o):null}if(o){var f=Et(t,o,u[1]);f&&(r=r.concat(f))}}}else for(var s in n)if(n.hasOwnProperty(s)){var c=t.getElementById(s);if(c){var v=Et(t,c,n[s]);v&&(r=r.concat(v))}}return r.length?r:null}(t,n.elements);return r?function(t,n){var r=arguments.length>2&&void 0!==arguments[2]?arguments[2]:1/0,e=arguments.length>3&&void 0!==arguments[3]?arguments[3]:1,i=arguments.length>4&&void 0!==arguments[4]&&arguments[4],u=arguments.length>5&&void 0!==arguments[5]?arguments[5]:1,o=t.length,a=e>0?n:0;i&&r%2==0&&(a=n-a);var l=null;return function(f,s){var c=f%n,v=1+(f-c)/n;s*=e,i&&v%2==0&&(s=-s);var h=!1;if(v>r)c=a,h=!0,-1===u&&(c=e>0?0:n);else if(s<0&&(c=n-c),c===l)return!1;l=c;for(var y=0;y<o;y++)t[y](c);return h}}(r,n.duration,n.iterations||1/0,n.direction||1,!!n.alternate,n.fill||1):null}var Bt=function(){function t(r){var e=arguments.length>1&&void 0!==arguments[1]?arguments[1]:{};n(this,t),this._id=0,this._running=!1,this._animations=r,this.direction=e.direction||1,this.speed=e.speed||1,this.fps=e.fps||100,this.offset=e.offset||0}return e(t,[{key:"_start",value:function(){var t=this,n=arguments.length>0&&void 0!==arguments[0]?arguments[0]:0,r=-1/0,e=null,i={},u=function u(o){t._running=!0,null==e&&(e=o);var a=Math.round((o-e+n)*t.speed),l=t.fps?1e3/t.fps:0;if(a>r+l){t.offset=a,r=a;for(var f=t._animations,s=f.length,c=0,v=0;v<s;v++)i[v]?c++:(i[v]=f[v](a,t.direction),i[v]&&c++);if(c===s)return void t._stop()}t._id=window.requestAnimationFrame(u)};this._id=window.requestAnimationFrame(u)}},{key:"_stop",value:function(){this._id&&window.cancelAnimationFrame(this._id),this._running=!1}},{key:"play",value:function(){this._running||this._start(this.offset)}},{key:"stop",value:function(){this._stop(),this.offset=0;var t=this.direction,n=this._animations;requestAnimationFrame((function(){for(var r=0;r<n.length;r++)n[r](0,t)}))}},{key:"restart",value:function(){this._stop(),this.offset=0,this._start()}},{key:"pause",value:function(){this._stop()}},{key:"reverse",value:function(){this.direction=-this.direction}}],[{key:"build",value:function(n){if(!(n=function(t){if(!t||!t.root||!Array.isArray(t.animations))return null;var n=window.document.getElementById(t.root);if(!n)return null;var r=t.animations.map((function(t){return Ft(n,t)})).filter((function(t){return!!t}));return r.length?{element:n,animations:r,options:t.options||void 0}:null}(n)))return null;var r=n.element,e=n.options||{},i=new t(n.animations,n.options);return function(t,n,r){var e=arguments.length>3&&void 0!==arguments[3]?arguments[3]:null;if("click"===r){var i=function r(){n.removeEventListener("click",r),t.play()};return void n.addEventListener("click",i)}if("hover"===r)return n.addEventListener("mouseenter",(function(){return t.play()})),void n.addEventListener("mouseleave","freeze"===e?function(){return t.pause()}:function(){return t.stop()});t.play()}(i,r,e.start,e.hover),i}}]),t}();return function(){for(var t=0,n=["ms","moz","webkit","o"],r=0;r<n.length&&!window.requestAnimationFrame;++r)window.requestAnimationFrame=window[n[r]+"RequestAnimationFrame"],window.cancelAnimationFrame=window[n[r]+"CancelAnimationFrame"]||window[n[r]+"CancelRequestAnimationFrame"];window.requestAnimationFrame||(window.requestAnimationFrame=function(n){var r=Date.now(),e=Math.max(0,16-(r-t)),i=window.setTimeout((function(){n(r+e)}),e);return t=r+e,i},window.cancelAnimationFrame=window.clearTimeout)}(),Bt}));
__SVGATOR_PLAYER__.build({"root":"ez9htsgyecy1","animations":[{"duration":5000,"direction":1,"iterations":0,"fill":1,"alternate":false,"elements":{"ez9htsgyecy19":{"fill":[{"t":0,"v":{"t":"c","v":{"r":47,"g":100,"b":235,"a":1}}},{"t":600,"v":{"t":"c","v":{"r":92,"g":153,"b":242,"a":1}}},{"t":1600,"v":{"t":"c","v":{"r":109,"g":198,"b":198,"a":1}}},{"t":2600,"v":{"t":"c","v":{"r":0,"g":204,"b":194,"a":1}}},{"t":3600,"v":{"t":"c","v":{"r":30,"g":46,"b":250,"a":1}}},{"t":4600,"v":{"t":"c","v":{"r":47,"g":100,"b":235,"a":1}}}]},"ez9htsgyecy21":{"fill-opacity":[{"t":0,"v":0},{"t":1400,"v":0},{"t":1600,"v":1},{"t":3000,"v":1},{"t":3200,"v":0},{"t":4600,"v":0}]},"ez9htsgyecy43":{"fill":[{"t":0,"v":{"t":"c","v":{"r":47,"g":100,"b":235,"a":1}}},{"t":600,"v":{"t":"c","v":{"r":92,"g":153,"b":242,"a":1}}},{"t":1600,"v":{"t":"c","v":{"r":109,"g":198,"b":198,"a":1}}},{"t":2600,"v":{"t":"c","v":{"r":0,"g":204,"b":194,"a":1}}},{"t":3600,"v":{"t":"c","v":{"r":30,"g":46,"b":250,"a":1}}},{"t":4600,"v":{"t":"c","v":{"r":47,"g":100,"b":235,"a":1}}}]},"ez9htsgyecy46":{"fill-opacity":[{"t":0,"v":0},{"t":800,"v":0},{"t":1000,"v":1},{"t":3600,"v":1},{"t":3800,"v":0},{"t":4600,"v":0}]},"ez9htsgyecy47":{"fill-opacity":[{"t":0,"v":0},{"t":600,"v":0},{"t":800,"v":1},{"t":3800,"v":1},{"t":4000,"v":0},{"t":4600,"v":0}]},"ez9htsgyecy48":{"fill-opacity":[{"t":0,"v":0},{"t":1000,"v":0},{"t":1200,"v":1},{"t":3400,"v":1},{"t":3600,"v":0},{"t":4600,"v":0}]},"ez9htsgyecy49":{"fill-opacity":[{"t":0,"v":0},{"t":1400,"v":0},{"t":1600,"v":1},{"t":3000,"v":1},{"t":3200,"v":0},{"t":4600,"v":0}]},"ez9htsgyecy50":{"fill-opacity":[{"t":0,"v":0},{"t":1200,"v":0},{"t":1400,"v":1},{"t":3200,"v":1},{"t":3400,"v":0},{"t":4600,"v":0}]},"ez9htsgyecy52":{"fill-opacity":[{"t":0,"v":0},{"t":1200,"v":0},{"t":1400,"v":1},{"t":3200,"v":1},{"t":3400,"v":0},{"t":4600,"v":0}]},"ez9htsgyecy53":{"fill-opacity":[{"t":0,"v":0},{"t":1000,"v":0},{"t":1200,"v":1},{"t":3400,"v":1},{"t":3600,"v":0},{"t":4600,"v":0}]},"ez9htsgyecy54":{"fill-opacity":[{"t":0,"v":0},{"t":600,"v":0},{"t":800,"v":1},{"t":3800,"v":1},{"t":4000,"v":0},{"t":4600,"v":0}]},"ez9htsgyecy55":{"fill-opacity":[{"t":0,"v":0},{"t":800,"v":0},{"t":1000,"v":1},{"t":3600,"v":1},{"t":3800,"v":0},{"t":4600,"v":0}]},"ez9htsgyecy143":{"fill":[{"t":0,"v":{"t":"c","v":{"r":47,"g":100,"b":235,"a":1}}},{"t":600,"v":{"t":"c","v":{"r":92,"g":153,"b":242,"a":1}}},{"t":1600,"v":{"t":"c","v":{"r":109,"g":198,"b":198,"a":1}}},{"t":2600,"v":{"t":"c","v":{"r":0,"g":204,"b":194,"a":1}}},{"t":3600,"v":{"t":"c","v":{"r":30,"g":46,"b":250,"a":1}}},{"t":4600,"v":{"t":"c","v":{"r":47,"g":100,"b":235,"a":1}}}]}}}],"options":{"start":"load","hover":"freeze"}})]]></script></svg>