<?xml version="1.0" encoding="utf-8"?>
<!-- Generator: Adobe Illustrator 23.0.6, SVG Export Plug-In . SVG Version: 6.00 Build 0)  -->
<svg version="1.1" id="Layer_1" xmlns="http://www.w3.org/2000/svg" xmlns:xlink="http://www.w3.org/1999/xlink" x="0px" y="0px"
	 viewBox="0 0 792 612" style="enable-background:new 0 0 792 612;" xml:space="preserve">
<style type="text/css">
	.st0{fill:url(#SVGID_1_);}
	.st1{fill:#FFFFFF;}
	.st2{font-family:'Poppins-Regular';}
	.st3{font-size:88.7471px;}
</style>
<g>
	
		<linearGradient id="SVGID_1_" gradientUnits="userSpaceOnUse" x1="-13.2282" y1="431.4095" x2="-13.2282" y2="278.3367" gradientTransform="matrix(0.9905 0.1373 -0.1373 0.9905 219.311 -39.8545)">
		<stop  offset="0" style="stop-color:#5C50A1"/>
		<stop  offset="1" style="stop-color:#42BDA9"/>
	</linearGradient>
	<path class="st0" d="M182.1,235.99c0,0-17.76,19.4-10.1,49.42c7.66,30.02,6.07,64.96,3.25,74.62
		c-2.82,9.66-33.01,24.97-33.01,24.97s-18.04-8.41-17.17-8.29c0.87,0.12,7.9-1.56,7.9-1.56s19.67-7.62,12.13-59.78
		c0,0-14.42-53.71,0.92-76.99L182.1,235.99z"/>
	<path class="st1" d="M216.61,278.96c2.1-0.62,4.1,1.2,3.7,3.35l-3.58,19.34c0,0-0.88,8.45-9.47,10.8s-65.71,5.96-71.2,8.45
		c-5.48,2.49-24.29,11.11-20.42,36.47c0,0,6.72,21.32,32.6,19.29c0,0,24.76-5.16,27.61-19.14c0,0,0.58,11.11-12.19,22.25
		c-12.77,11.14-29.34,11.8-41.75,6.24c-12.41-5.56-23.09-24.47-20.24-45.06c2.85-20.58,13.4-32.71,13.4-32.71
		s13.17-18.27,40.64-22.44c21.46-3.26,32-3.52,35.59-3.48c1.26,0.01,2.52-0.02,3.77-0.12C199.71,281.84,210.32,280.83,216.61,278.96
		z"/>
	<path class="st1" d="M141.2,249.67c0,0,4.37-37.95,45.03-40.3c39.26-2.26,41.91,3.21,70.52-6.04c1.45-0.47,2.9,0.74,2.69,2.25
		l-2.44,17.58c0,0-0.98,11.86-7.82,13.24c-1.02,0.21-2.04,0.38-3.04,0.67c-5.74,1.67-24.56,6.5-43.2,4.16
		C180.58,238.43,147.4,243.29,141.2,249.67z"/>
</g>
<text transform="matrix(1 0 0 1 270.7329 334.1385)" class="st1 st2 st3">floob.club</text>
</svg>
